<ttFont>
          <CharString index="0">
            rmoveto
            220 140 127 224 36 hvcurveto
            5 30 3 31 31 vvcurveto
            171 -112 95 -190 -219 -140 -126 -222 -37 vhcurveto
            -5 -30 -3 -31 -33 vvcurveto
            -172 112 -95 190 vhcurveto
            -1 94 rmoveto
            -119 -68 66 111 25 2 25 6 34 hvcurveto
            173 30 94 87 159 hhcurveto
            119 1 68 -65 -111 vvcurveto
            -26 -2 -25 -6 -33 vhcurveto
            -174 -30 -94 -88 -159 hhcurveto
            return
          </CharString>
          <CharString index="1">
            rmoveto
            117 98 62 131 21 hvcurveto
            -101 hlineto
            -78 -13 -56 -32 -68 hhcurveto
            -87 -40 41 84 13 1 13 3 15 hvcurveto
            370 hlineto
            7 40 rlineto
            6 27 2 25 23 vvcurveto
            124 -73 62 -136 -203 -81 -162 -183 -140 77 -65 156 vhcurveto
            -111 327 rmoveto
            90 23 53 50 86 hhcurveto
            64 42 -29 -73 -12 -1 -13 -3 -13 hvcurveto
            return
          </CharString>
          <CharString index="2">
            117 hlineto
            91 167 rlineto
            317 hlineto
            34 -167 rlineto
            114 hlineto
            -145 -36 callsubr
            -141 -21 callgsubr
            -424 rmoveto
            103 187 24 44 34 65 18 33 rlinecurve
            5 hlineto
            7 -35 10 -65 9 -45 36 -184 rcurveline
            return
          </CharString>
          <CharString index="3">
            rmoveto
            -59 callsubr
            hvcurveto
            7 -71 80 hlineto
            93 526 rlineto
            -103 -60 callsubr
            2 1 callsubr
            -59 -338 rlineto
            -5 -26 -3 -25 -20 vvcurveto
            -94 63 -35 92 vhcurveto
            return
          </CharString>
          <CharString index="4">
            49 36 -33 54 hhcurveto
            63 35 51 59 10 hvcurveto
            -67 hlineto
            -25 -7 -13 -8 -16 -49 -36 33 -54 hhcurveto
            -63 -34 -51 -59 -10 hvcurveto
            return
          </CharString>
          <CharString index="5">
            rmoveto
            150 82 81 164 29 hvcurveto
            82 463 rlineto
            -82 hlineto
            -22 -70 rlineto
            -6 hlineto
            54 -28 -57 28 -73 hhcurveto
            -158 -94 -152 -189 -129 72 -57 102 70 50 27 45 40 hvcurveto
            6 hlineto
            -5 -24 rlineto
            -106 -20 -54 -51 -84 hhcurveto
            -61 -37 21 52 -3 hvcurveto
            -100 -10 hlineto
            -98 1 80 -49 120 hhcurveto
            35 280 rmoveto
            -73 -32 30 74 127 48 122 121 71 32 -39 -74 -114 -52 -126 -115 hvcurveto
            endchar
          </CharString>
          <CharString index="6">
            rmoveto
            102 hlineto
            69 76 44 -76 rlineto
            92 hlineto
            -82 135 rlineto
            -96 hlineto
            return
          </CharString>
          <CharString index="7">
            rmoveto
            -21 -117 rlineto
            50 hlineto
            -18 -40 -34 -25 -49 -12 rrcurveto
            42 -51 -74 22 -91 hhcurveto
            -219 -140 -126 -222 -37 hvcurveto
            -5 -30 -3 -31 -33 vvcurveto
            -172 112 -95 190 220 140 127 224 36 vhcurveto
            5 30 3 31 31 vvcurveto
            62 -15 52 -27 41 vhcurveto
            80 30 46 62 15 95 9 54 rcurveline
            -230 -483 rmoveto
            -174 -30 -94 -88 -159 hhcurveto
            -119 -68 66 111 25 2 25 6 34 hvcurveto
            173 30 94 87 159 hhcurveto
            119 1 68 -65 -111 vvcurveto
            -26 -2 -25 -6 -33 vhcurveto
            return
          </CharString>
          <CharString index="8">
            rmoveto
            166 105 78 180 30 hvcurveto
            38 210 41 230 -74 callgsubr
            -36 -205 rlineto
            -127 -23 -75 -66 -102 hhcurveto
            -72 -38 32 63 11 1 12 2 12 hvcurveto
            48 268 -74 callgsubr
            -47 -263 rlineto
            -4 -23 -2 -21 -19 vvcurveto
            -112 65 -54 119 84 68 28 62 46 vhcurveto
            6 hlineto
            -8 -48 rlineto
            -107 -19 -64 -47 -99 hhcurveto
            -89 -38 27 59 hvcurveto
            -114 -10 hlineto
            -116 93 -54 140 vhcurveto
            endchar
          </CharString>
          <CharString index="9">
            rmoveto
            151 150 62 164 hvcurveto
            218 -391 -60 136 vvcurveto
            65 76 31 101 83 56 -31 -55 -4 0 -9 -4 -15 vhcurveto
            109 hlineto
            4 22 1 16 12 vvcurveto
            111 -110 47 -147 -147 -136 -65 -139 vhcurveto
            -219 389 67 -147 vvcurveto
            -71 -71 -42 -125 -94 -61 32 63 14 5 17 2 9 vhcurveto
            -110 hlineto
            -5 -15 -3 -25 -18 vvcurveto
            -121 122 -50 155 vhcurveto
            return
          </CharString>
          <CharString index="10">
            rmoveto
            121 113 53 133 hvcurveto
            169 -287 -51 95 vvcurveto
            28 27 40 90 67 26 -27 -35 -6 -1 -7 -1 -6 vhcurveto
            100 hlineto
            2 4 5 21 17 vvcurveto
            71 -72 51 -126 -127 -98 -64 -109 vhcurveto
            -162 285 52 -108 vvcurveto
            -52 -63 -25 -65 -60 -48 21 51 3 1 11 2 9 vhcurveto
            -101 hlineto
            0 -7 -22 -22 vvcurveto
            -74 66 -59 151 vhcurveto
            return
          </CharString>
          <CharString index="11">
            105 hlineto
            77 441 4 22 4 28 3 16 rlinecurve
            5 1 7 -12 12 -24 11 -21 rlinecurve
            245 -451 rlineto
            99 -35 callsubr
            686 -29 callsubr
            -77 -440 -3 -18 -4 -28 -3 -15 rlinecurve
            -4 hlineto
            -6 10 -12 24 -8 16 -248 451 rcurveline
            -102 hlineto
            return
          </CharString>
          <CharString index="12">
            rlineto
            100 18 76 57 76 hhcurveto
            45 30 -16 -51 -15 -2 -18 -3 -19 hvcurveto
            -58 -331 rlineto
            103 hlineto
            59 338 rlineto
            5 26 3 25 20 vvcurveto
            94 -63 35 -92 return
          </CharString>
          <CharString index="13">
            rmoveto
            96 hlineto
            129 135 rlineto
            -102 hlineto
            -67 -76 -45 76 rlineto
            -93 hlineto
            return
          </CharString>
          <CharString index="14">
            -103 callgsubr
            -470 -82 callsubr
            return
          </CharString>
          <CharString index="15">
            141 hlineto
            191 468 rlineto
            14 35 24 72 0 vvcurveto
            4 hlineto
            0 1 -66 2 -41 vhcurveto
            25 -468 rlineto
            141 hlineto
            314 686 -74 callgsubr
            -205 -465 rlineto
            -12 -27 -29 -75 0 vvcurveto
            -5 hlineto
            0 0 71 -2 31 vhcurveto
            -25 465 rlineto
            -151 hlineto
            -186 -465 rlineto
            -8 -19 -28 -83 0 vvcurveto
            -5 hlineto
            0 -3 76 -3 26 vhcurveto
            -45 465 rlineto
            -109 hlineto
            endchar
          </CharString>
          <CharString index="16">
            rmoveto
            137 75 87 121 19 hvcurveto
            -99 hlineto
            -66 -12 -42 -58 -81 hhcurveto
            -69 -35 37 89 24 2 27 6 31 hvcurveto
            94 17 44 80 96 hhcurveto
            72 21 -42 -54 -9 0 -9 -1 -10 hvcurveto
            104 hlineto
            2 14 1 14 12 vvcurveto
            102 -62 66 -140 -196 -72 -177 -170 -138 66 -65 147 vhcurveto
            endchar
          </CharString>
          <CharString index="17">
            98 726 868 -88 callgsubr
            return
          </CharString>
          <CharString index="18">
            564 723 -88 callsubr
            return
          </CharString>
          <CharString index="19">
            rmoveto
            -21 -117 rlineto
            50 hlineto
            -20 -44 -38 -25 -57 -11 rrcurveto
            -39 -60 callsubr
            2 1 callsubr
            -59 -338 rlineto
            -5 -26 -3 -25 -20 vvcurveto
            -94 63 -35 92 -59 callsubr
            vhcurveto
            -50 callsubr
            85 481 81 30 47 63 15 95 rlinecurve
            9 54 rlineto
            return
          </CharString>
          <CharString index="20">
            -76 callgsubr
            endchar
          </CharString>
          <CharString index="21">
            rmoveto
            97 29 64 63 11 hvcurveto
            103 581 -69 callsubr
            -103 -579 rlineto
            -30 -5 -18 -17 -30 hhcurveto
            -46 hlineto
            -12 -69 rlineto
            -6 18 32 -7 27 hhcurveto
            endchar
          </CharString>
          <CharString index="22">
            452 hlineto
            -18 callgsubr
            -296 hlineto
            351 391 9 50 rlineto
            -420 hlineto
            -15 -85 rlineto
            262 hlineto
            -349 -390 rlineto
            return
          </CharString>
          <CharString index="23">
            600 -103 callgsubr
            return
          </CharString>
          <CharString index="24">
            rmoveto
            83 hlineto
            -51 callsubr
            -106 -37 callsubr
            rlineto
            return
          </CharString>
          <CharString index="25">
            -745 rmoveto
            -105 callsubr
            return
          </CharString>
          <CharString index="26">
            566 -54 callgsubr
            -395 hlineto
            480 536 10 55 rlineto
            -532 hlineto
            -17 -95 rlineto
            359 hlineto
            -478 -536 rlineto
            return
          </CharString>
          <CharString index="27">
            103 -22 callsubr
            103 18 62 42 74 hhcurveto
            37 hlineto
            18 98 rlineto
            0 -20 8 -29 -70 -40 -46 -47 -26 vhcurveto
            -6 hlineto
            2 81 rlineto
            -81 hlineto
            return
          </CharString>
          <CharString index="28">
            rmoveto
            55 hlineto
            66 93 15 85 rlineto
            -103 -19 callsubr
            40 hlineto
            endchar
          </CharString>
          <CharString index="29">
            733 -101 callsubr
            return
          </CharString>
          <CharString index="30">
            -67 callgsubr
            hlineto
            return
          </CharString>
          <CharString index="31">
            66 hlineto
            25 7 13 8 16 return
          </CharString>
          <CharString index="32">
            588 -101 callsubr
            return
          </CharString>
          <CharString index="33">
            rmoveto
            87 hlineto
            67 76 rlineto
            -26 48 64 -13 74 hhcurveto
            105 90 33 59 67 hvcurveto
            90 79 51 124 151 vvcurveto
            79 -23 62 -42 44 vhcurveto
            103 116 rlineto
            -87 hlineto
            -69 -78 rlineto
            27 -48 -63 14 -75 hhcurveto
            -98 -84 -29 -52 -66 hvcurveto
            -98 -78 -55 -131 -157 vvcurveto
            -80 22 -61 43 -43 vhcurveto
            75 85 rmoveto
            -17 27 -9 36 46 vvcurveto
            35 4 34 9 42 vhcurveto
            146 33 103 86 145 hhcurveto
            44 37 -8 -17 29 hvcurveto
            -222 -497 rmoveto
            -44 -37 7 17 -28 hvcurveto
            377 428 rlineto
            18 -28 9 -36 -46 vvcurveto
            -30 -2 -27 -7 -37 vhcurveto
            -156 -29 -107 -92 -150 hhcurveto
            endchar
          </CharString>
          <CharString index="34">
            rmoveto
            305 hlineto
            13 77 rlineto
            -305 hlineto
            return
          </CharString>
          <CharString index="35">
            rmoveto
            77 hlineto
            52 63 rlineto
            -17 36 46 -9 57 hhcurveto
            210 72 177 172 59 -15 45 -29 33 hvcurveto
            83 101 rlineto
            -77 hlineto
            -53 -64 rlineto
            18 -37 -46 9 -57 hhcurveto
            -210 -71 -178 -173 -59 14 -45 30 -33 hvcurveto
            71 87 rmoveto
            -6 16 -2 19 23 vvcurveto
            30 2 32 9 36 vhcurveto
            91 20 47 69 97 hhcurveto
            32 26 -6 -12 18 hvcurveto
            -129 -362 rmoveto
            -32 -25 5 11 -19 hvcurveto
            243 298 rlineto
            6 -16 2 -20 -22 vvcurveto
            -38 -5 -41 -12 -41 vhcurveto
            -81 -23 -48 -55 -87 hhcurveto
            endchar
          </CharString>
          <CharString index="36">
            rmoveto
            -71 -34 35 86 127 47 129 118 75 32 -41 -76 -125 -50 -135 -117 hvcurveto
            return
          </CharString>
          <CharString index="37">
            -6 callsubr
            114 -38 callsubr
            -112 hlineto
            64 -132 -6 callsubr
            114 -38 callsubr
            -112 hlineto
            return
          </CharString>
          <CharString index="38">
            rlineto
            -103 hlineto
            return
          </CharString>
          <CharString index="39">
            rmoveto
            -62 callgsubr
            return
          </CharString>
          <CharString index="40">
            hlineto
            -52 -293 rlineto
            -100 return
          </CharString>
          <CharString index="41">
            98 382 686 rmoveto
            -246 hlineto
            -52 -296 rlineto
            -71 hlineto
            -12 -70 rlineto
            70 hlineto
            -56 -320 rlineto
            283 hlineto
            116 96 39 70 68 hvcurveto
            70 73 38 106 127 vvcurveto
            186 -112 85 -192 vhcurveto
            182 -364 rmoveto
            -146 -27 -102 -81 -142 hhcurveto
            -150 hlineto
            39 225 rlineto
            163 -3 callsubr
            -163 hlineto
            35 201 rlineto
            153 hlineto
            120 70 -54 -130 -28 -3 -25 -5 -32 hvcurveto
            endchar
          </CharString>
          <CharString index="42">
            621 -92 callgsubr
            return
          </CharString>
          <CharString index="43">
            rlineto
            47 hlineto
            27 9 -6 -12 -24 -19 -6 -27 hvcurveto
            -96 hlineto
            -9 -49 rlineto
            -5 28 39 -3 36 hhcurveto
            56 76 14 73 41 -37 18 -46 1 hvcurveto
            return
          </CharString>
          <CharString index="44">
            rmoveto
            85 hlineto
            68 -38 callsubr
            -105 hlineto
            return
          </CharString>
          <CharString index="45">
            -488 -107 callgsubr
            return
          </CharString>
          <CharString index="46">
            -107 220 -12 -97 callsubr
            return
          </CharString>
          <CharString index="47">
            -67 callsubr
            -18 -76 -57 -77 hhcurveto
            -44 -30 -33 callgsubr
            return
          </CharString>
          <CharString index="48">
            66 67 35 48 39 return
          </CharString>
          <CharString index="49">
            299 21 116 return
          </CharString>
          <CharString index="50">
            vvcurveto
            -57 46 -18 43 -10 callsubr
            vhcurveto
            9 52 rlineto
            -29 hlineto
            -32 -11 19 21 35 27 31 22 18 hvcurveto
            return
          </CharString>
          <CharString index="51">
            119 hlineto
            110 167 rlineto
            326 hlineto
            17 -167 rlineto
            375 -54 callgsubr
            -296 hlineto
            -21 208 rlineto
            303 -54 callgsubr
            -330 hlineto
            -20 193 rlineto
            427 hlineto
            18 95 rlineto
            -601 hlineto
            -170 -424 rmoveto
            218 329 rlineto
            5 hlineto
            32 -329 rlineto
            endchar
          </CharString>
          <CharString index="52">
            hlineto
            127 723 -69 callsubr
            return
          </CharString>
          <CharString index="53">
            -107 13 hmoveto
            103 hlineto
            28 161 109 87 93 -248 rlineto
            -2 callgsubr
            -132 319 215 207 -6 callgsubr
            hlineto
            -251 -240 return
          </CharString>
          <CharString index="54">
            15 hmoveto
            -96 callsubr
            return
          </CharString>
          <CharString index="55">
            98 15 hmoveto
            -89 callgsubr
            return
          </CharString>
          <CharString index="56">
            -61 -37 callgsubr
            return
          </CharString>
          <CharString index="57">
            7 -71 80 hlineto
            return
          </CharString>
          <CharString index="58">
            -2 callgsubr
            21 -41 callsubr
            return
          </CharString>
          <CharString index="59">
            102 rlineto
            -97 hlineto
            return
          </CharString>
          <CharString index="60">
            60 -1 callsubr
            33 192 176 142 160 -334 rlineto
            123 hlineto
            -197 409 310 277 rlineto
            -144 hlineto
            -404 -361 64 361 -74 callgsubr
            return
          </CharString>
          <CharString index="61">
            98 15 hmoveto
            -43 callsubr
            return
          </CharString>
          <CharString index="62">
            617 -50 callgsubr
            return
          </CharString>
          <CharString index="63">
            -36 callgsubr
            9 52 rlineto
            -29 hlineto
            -32 -11 19 21 35 27 31 22 18 hvcurveto
            4 -67 vlineto
            -36 -27 -39 -35 -57 vvcurveto
            -57 46 -18 43 vhcurveto
            endchar
          </CharString>
          <CharString index="64">
            -25 callgsubr
            53 303 rlineto
            351 hlineto
            -54 -303 rlineto
            -69 callgsubr
            -50 -287 rlineto
            -351 -22 callsubr
            -111 hlineto
            return
          </CharString>
          <CharString index="65">
            rlineto
            66 12 41 33 70 hhcurveto
            55 28 -26 -54 -8 -1 -14 -3 -20 hvcurveto
            102 hlineto
            5 26 1 15 23 vvcurveto
            101 -72 42 -117 -123 -79 -57 -142 -25 vhcurveto
            return
          </CharString>
          <CharString index="66">
            117 -77 callsubr
            return
          </CharString>
          <CharString index="67">
            rmoveto
            88 hlineto
            178 200 -115 200 rlineto
            -80 hlineto
            88 -200 rlineto
            return
          </CharString>
          <CharString index="68">
            129 -1 return
          </CharString>
          <CharString index="69">
            -39 callsubr
            3 rlineto
            return
          </CharString>
          <CharString index="70">
            hlineto
            -1 -3 return
          </CharString>
          <CharString index="71">
            686 rlineto
            return
          </CharString>
          <CharString index="72">
            hlineto
            121 return
          </CharString>
          <CharString index="73">
            -20 -173 rmoveto
            103 hlineto
            41 233 rlineto
            6 hlineto
            -46 28 48 -26 76 hhcurveto
            153 97 154 188 145 return
          </CharString>
          <CharString index="74">
            rmoveto
            -75 -33 41 76 125 50 135 117 72 33 -35 -86 -127 -47 -129 -117 hvcurveto
            endchar
          </CharString>
          <CharString index="75">
            -33 -18 14 26 3 0 7 3 14 hvcurveto
            -69 hlineto
            -4 -15 return
          </CharString>
          <CharString index="76">
            61 -26 callgsubr
            return
          </CharString>
          <CharString index="77">
            132 26 146 rlineto
            -115 hlineto
            -26 -146 rlineto
            return
          </CharString>
          <CharString index="78">
            rlineto
            -105 hlineto
            return
          </CharString>
          <CharString index="79">
            110 hlineto
            return
          </CharString>
          <CharString index="80">
            -1 callgsubr
            endchar
          </CharString>
          <CharString index="81">
            121 -45 callsubr
            return
          </CharString>
          <CharString index="82">
            76 428 rmoveto
            58 hlineto
            80 151 19 107 -74 callgsubr
            -21 -117 rlineto
            44 hlineto
            return
          </CharString>
          <CharString index="83">
            hlineto
            -12 -69 rlineto
            -6 18 33 -7 27 hhcurveto
            endchar
          </CharString>
          <CharString index="84">
            rmoveto
            69 hlineto
            119 507 rlineto
            -126 hlineto
            return
          </CharString>
          <CharString index="85">
            hlineto
            51 287 rlineto
            return
          </CharString>
          <CharString index="86">
            rmoveto
            69 hlineto
            14 79 rlineto
            43 hlineto
            11 60 rlineto
            -44 hlineto
            30 167 rlineto
            -42 hlineto
            return
          </CharString>
          <CharString index="87">
            26 47 vvcurveto
            57 -46 30 -70 -66 -10 callgsubr
            -2 -17 rlineto
            69 hlineto
            return
          </CharString>
          <CharString index="88">
            hlineto
            -17 -94 rlineto
            return
          </CharString>
          <CharString index="89">
            -101 callsubr
            -74 return
          </CharString>
          <CharString index="90">
            -291 22 218 rmoveto
            261 hlineto
            18 104 rlineto
            -261 hlineto
            endchar
          </CharString>
          <CharString index="91">
            -457 -278 -12 rmoveto
            85 hlineto
            633 710 rlineto
            -85 hlineto
            endchar
          </CharString>
          <CharString index="92">
            16 hvcurveto
            39 21 21 34 36 vvcurveto
            50 return
          </CharString>
          <CharString index="93">
            rlineto
            117 hlineto
            return
          </CharString>
          <CharString index="94">
            rmoveto
            233 hlineto
            11 -31 callsubr
            return
          </CharString>
          <CharString index="95">
            -385 -26 callsubr
            return
          </CharString>
          <CharString index="96">
            219 rmoveto
            -27 -16 14 24 35 return
          </CharString>
          <CharString index="97">
            21 22 5 9 24 return
          </CharString>
          <CharString index="98">
            rlineto
            228 hlineto
            return
          </CharString>
          <CharString index="99">
            -24 -14 -81 rcurveline
            -91 hlineto
            33 41 67 99 36 87 rrcurveto
            return
          </CharString>
          <CharString index="100">
            107 -77 callsubr
            -20 -117 rlineto
            44 hlineto
            endchar
          </CharString>
          <CharString index="101">
            rmoveto
            89 hlineto
            return
          </CharString>
          <CharString index="102">
            -68 -12 hmoveto
            480 hlineto
            16 89 rlineto
            -319 hlineto
            return
          </CharString>
          <CharString index="103">
            rmoveto
            21 hlineto
            199 189 return
          </CharString>
          <CharString index="104">
            hlineto
            12 70 rlineto
            return
          </CharString>
          <CharString index="105">
            -723 -68 callsubr
            return
          </CharString>
          <CharString index="106">
            15 hmoveto
            -25 callgsubr
            return
          </CharString>
          <CharString index="107">
            56 155 42 117 vvcurveto
            54 -35 35 return
          </CharString>
          <CharString index="108">
            18 3 19 hvcurveto
            58 331 -69 callsubr
            return
          </CharString>
        <CharString name=".notdef">
          -123 0 vmoveto
          500 700 -500 hlineto
          250 -305 rmoveto
          -170 255 rlineto
          340 hlineto
          -370 -555 rmoveto
          510 vlineto
          170 -255 rlineto
          230 -255 rmoveto
          -170 255 170 255 rlineto
          -370 -555 rmoveto
          170 255 170 -255 rlineto
          endchar
        </CharString>
        <CharString name="A">
          60 -45 hmoveto
          -105 callsubr
          endchar
        </CharString>
        <CharString name="AE">
          376 -61 hmoveto
          -56 callsubr
        </CharString>
        <CharString name="AEacute">
          376 539 736 -95 callgsubr
          -707 -868 rmoveto
          -56 callsubr
        </CharString>
        <CharString name="Aacute">
          60 377 736 -95 callgsubr
          -529 -868 -102 callgsubr
        </CharString>
        <CharString name="Abreve">
          60 425 745 -93 callgsubr
        </CharString>
        <CharString name="Acircumflex">
          60 265 -78 callsubr
          -439 -868 -102 callgsubr
        </CharString>
        <CharString name="Adieresis">
          60 285 -72 callgsubr
          -542 -868 -102 callgsubr
        </CharString>
        <CharString name="Agrave">
          60 383 736 -83 callsubr
          -343 -865 -102 callgsubr
        </CharString>
        <CharString name="Amacron">
          60 279 767 -73 callsubr
          -337 -844 -102 callgsubr
        </CharString>
        <CharString name="Aogonek">
          60 524 -20 callgsubr
          23 25 4 10 27 hvcurveto
          9 52 rlineto
          -30 hlineto
          -29 -12 19 21 31 28 27 29 18 hvcurveto
          34 hlineto
          -145 -36 callsubr
          -141 hlineto
          -387 -686 -14 callsubr
          91 167 rlineto
          317 hlineto
          34 -167 rlineto
          -38 -24 -32 -35 -48 vvcurveto
          -57 42 -18 38 vhcurveto
          -309 444 rmoveto
          103 187 24 44 34 65 18 33 rlinecurve
          5 hlineto
          7 -35 10 -65 9 -45 36 -184 rcurveline
          endchar
        </CharString>
        <CharString name="Aring">
          60 420 708 -70 callgsubr
          -471 -757 -102 callgsubr
        </CharString>
        <CharString name="Aringacute">
          60 396 861 rmoveto
          93 hlineto
          126 -38 callsubr
          -112 hlineto
          -547 -993 rmoveto
          117 hlineto
          91 167 rlineto
          317 hlineto
          34 -167 rlineto
          114 hlineto
          -143 674 rlineto
          23 18 11 30 34 vvcurveto
          46 -33 36 -52 -70 -43 -50 -65 -18 6 -16 10 -12 vhcurveto
          76 14 rmoveto
          -27 -15 17 22 32 21 27 36 26 16 -18 -22 -31 -22 -27 -35 hvcurveto
          -198 -429 rmoveto
          103 187 24 44 34 65 18 33 rlinecurve
          5 hlineto
          7 -35 10 -65 9 -45 36 -184 rcurveline
          endchar
        </CharString>
        <CharString name="Atilde">
          60 263 758 rmoveto
          -76 callsubr
          -103 callsubr
          -308 -758 -102 callgsubr
        </CharString>
        <CharString name="B">
          60 15 hmoveto
          361 hlineto
          123 113 62 149 79 -44 48 -62 18 hvcurveto
          4 vlineto
          78 20 65 68 87 vvcurveto
          101 -79 50 -124 vhcurveto
          -310 hlineto
          60 -287 rmoveto
          34 192 rlineto
          216 hlineto
          54 36 -23 -58 -62 -48 -49 -80 hvcurveto
          -265 -304 rmoveto
          37 209 rlineto
          220 hlineto
          66 34 -31 -58 -89 -59 -31 -70 hvcurveto
          endchar
        </CharString>
        <CharString name="C">
          98 326 -12 -94 callgsubr
        </CharString>
        <CharString name="CR">
          -624 endchar
        </CharString>
        <CharString name="Cacute">
          98 395 736 -95 callgsubr
          -176 -880 -94 callgsubr
        </CharString>
        <CharString name="Cacute.loclPLK">
          98 388 736 -63 callsubr
          -109 -880 -94 callgsubr
        </CharString>
        <CharString name="Ccaron">
          98 394 733 -94 callsubr
          14 -880 -94 callgsubr
        </CharString>
        <CharString name="Ccedilla">
          98 694 436 rmoveto
          3 20 2 19 17 vvcurveto
          138 -110 68 -159 -98 -82 -28 -50 -63 vhcurveto
          -100 -79 -51 -134 -155 vvcurveto
          -164 84 -84 158 -14 vhcurveto
          -24 -67 rlineto
          48 hlineto
          27 9 -6 -12 -24 -19 -6 -27 hvcurveto
          -96 hlineto
          -9 -49 rlineto
          -5 28 39 -3 35 hhcurveto
          57 76 14 73 41 -38 18 -46 1 hvcurveto
          8 23 159 7 126 82 30 171 rlinecurve
          -109 hlineto
          -110 -20 -88 -56 -120 hhcurveto
          -117 -57 54 123 36 4 36 9 43 hvcurveto
          142 31 92 88 147 hhcurveto
          93 59 -42 -88 -11 -2 -14 -2 -13 hvcurveto
          endchar
        </CharString>
        <CharString name="Ccircumflex">
          98 -23 callgsubr
          -86 -880 -94 callgsubr
        </CharString>
        <CharString name="Cdotaccent">
          98 396 763 -86 callgsubr
          -89 -880 -94 callgsubr
        </CharString>
        <CharString name="D">
          98 15 hmoveto
          -83 callgsubr
          endchar
        </CharString>
        <CharString name="Dcaron">
          98 347 733 -94 callsubr
          -250 -868 rmoveto
          -83 callgsubr
          endchar
        </CharString>
        <CharString name="Dcroat">
          -66 callsubr
        </CharString>
        <CharString name="E">
          43 15 hmoveto
          -99 callgsubr
          endchar
        </CharString>
        <CharString name="Eacute">
          43 370 736 -95 callgsubr
          -462 -868 rmoveto
          -99 callgsubr
          endchar
        </CharString>
        <CharString name="Ebreve">
          43 418 -78 callgsubr
          -403 -745 rmoveto
          -99 callgsubr
          endchar
        </CharString>
        <CharString name="Ecaron">
          43 369 733 -94 callsubr
          -272 -868 rmoveto
          -99 callgsubr
          endchar
        </CharString>
        <CharString name="Ecircumflex">
          43 258 -78 callsubr
          -372 -868 rmoveto
          -99 callgsubr
          endchar
        </CharString>
        <CharString name="Edieresis">
          43 278 -72 callgsubr
          -475 -868 rmoveto
          -99 callgsubr
          endchar
        </CharString>
        <CharString name="Edotaccent">
          43 371 763 -86 callgsubr
          -375 -868 rmoveto
          -99 callgsubr
          endchar
        </CharString>
        <CharString name="Egrave">
          43 376 736 -83 callsubr
          -276 -865 rmoveto
          -99 callgsubr
          endchar
        </CharString>
        <CharString name="Emacron">
          43 272 767 -73 callsubr
          -270 -844 rmoveto
          -99 callgsubr
          endchar
        </CharString>
        <CharString name="Eng">
          98 441 -20 callgsubr
          96 29 64 63 12 hvcurveto
          130 741 -29 callsubr
          -77 -440 -3 -18 -4 -28 -3 -15 rlinecurve
          -4 hlineto
          -6 10 -12 24 -8 16 -248 451 rcurveline
          -102 hlineto
          -121 -686 rlineto
          105 hlineto
          79 445 2 21 3 30 1 16 rlinecurve
          5 hlineto
          9 -12 8 -23 12 -20 245 -450 rcurveline
          -11 -60 rlineto
          -30 -5 -17 -17 -31 hhcurveto
          -45 -24 callsubr
        </CharString>
        <CharString name="Eogonek">
          43 456 -36 callgsubr
          10 52 rlineto
          -30 hlineto
          -29 -15 16 18 34 47 31 47 17 hvcurveto
          17 95 rlineto
          -427 hlineto
          36 208 rlineto
          377 -54 callgsubr
          -377 hlineto
          33 193 rlineto
          421 hlineto
          18 95 rlineto
          -532 hlineto
          -121 -686 rlineto
          434 hlineto
          -50 -25 -32 -33 -52 vvcurveto
          -54 47 -18 42 vhcurveto
          endchar
        </CharString>
        <CharString name="Eth">
          -66 callsubr
        </CharString>
        <CharString name="Euro">
          -68 363 -12 rmoveto
          43 35 8 4 20 hvcurveto
          14 83 rlineto
          -3 -18 -34 -7 -36 hhcurveto
          -83 -110 34 133 -11 hvcurveto
          248 -3 callsubr
          -259 hlineto
          1 21 5 30 6 19 rrcurveto
          260 -3 callsubr
          -247 -35 callsubr
          53 117 42 102 hhcurveto
          31 28 -7 -3 15 hvcurveto
          14 83 rlineto
          4 -19 -36 8 -47 hhcurveto
          -147 -157 -68 -180 -68 hvcurveto
          -73 hlineto
          -12 -70 rlineto
          65 hlineto
          -5 -21 -5 -29 -2 -20 rrcurveto
          -66 hlineto
          -11 -70 rlineto
          75 hlineto
          -185 8 137 -67 145 hhcurveto
          endchar
        </CharString>
        <CharString name="F">
          -13 -1 callsubr
          51 293 rlineto
          343 -54 callgsubr
          -343 hlineto
          35 203 rlineto
          379 hlineto
          18 95 rlineto
          -490 hlineto
          endchar
        </CharString>
        <CharString name="G">
          154 730 452 -101 callgsubr
          endchar
        </CharString>
        <CharString name="G_tilde.loclGUA">
          154 383 791 rmoveto
          -103 callsubr
          -76 callsubr
          hhcurveto
          347 -339 -101 callgsubr
          endchar
        </CharString>
        <CharString name="Gbreve">
          154 443 -78 callgsubr
          287 -293 -101 callgsubr
          endchar
        </CharString>
        <CharString name="Gcaron">
          154 490 733 rmoveto
          129 135 rlineto
          -102 hlineto
          -67 -76 -45 76 rlineto
          -93 hlineto
          82 -135 rlineto
          336 -281 -101 callgsubr
          endchar
        </CharString>
        <CharString name="Gcircumflex">
          154 454 809 rmoveto
          44 -76 rlineto
          92 hlineto
          -82 135 rlineto
          -96 hlineto
          -129 -135 rlineto
          102 hlineto
          345 -281 -101 callgsubr
          endchar
        </CharString>
        <CharString name="Gcommaaccent">
          154 730 452 -101 callgsubr
          -350 -598 rmoveto
          40 hlineto
          -56 -84 rlineto
          55 hlineto
          66 93 15 85 -69 callsubr
          endchar
        </CharString>
        <CharString name="Gdotaccent">
          154 517 868 rmoveto
          -102 hlineto
          -19 -105 rlineto
          102 hlineto
          232 -311 -101 callgsubr
          endchar
        </CharString>
        <CharString name="H">
          -46 callsubr
          endchar
        </CharString>
        <CharString name="Hbar">
          98 -1 callsubr
          53 303 rlineto
          351 hlineto
          -54 -303 rlineto
          -25 callgsubr
          91 520 rlineto
          67 hlineto
          14 78 rlineto
          -67 hlineto
          16 88 -74 callgsubr
          -16 -88 rlineto
          -350 hlineto
          16 88 -74 callgsubr
          -16 -88 rlineto
          -67 hlineto
          -13 -78 rlineto
          67 hlineto
          89 -121 rmoveto
          21 121 rlineto
          351 hlineto
          -21 -121 rlineto
          endchar
        </CharString>
        <CharString name="Hcircumflex">
          98 271 -78 callsubr
          -385 -868 rmoveto
          -43 callsubr
          endchar
        </CharString>
        <CharString name="I">
          -346 24 hmoveto
          -69 callgsubr
          endchar
        </CharString>
        <CharString name="IJ">
          171 24 hmoveto
          -69 callgsubr
          320 -698 -84 callgsubr
        </CharString>
        <CharString name="Iacute">
          -346 162 736 -95 callgsubr
          -245 -868 -73 callgsubr
        </CharString>
        <CharString name="Iacute_J.loclNLD">
          171 162 736 -95 callgsubr
          420 -132 -95 callgsubr
          -772 -868 rmoveto
          -69 callgsubr
          320 -698 -84 callgsubr
        </CharString>
        <CharString name="Ibreve">
          -346 210 -78 callgsubr
          -186 -745 -73 callgsubr
        </CharString>
        <CharString name="Icircumflex">
          -346 50 -78 callsubr
          -155 -868 -73 callgsubr
        </CharString>
        <CharString name="Idieresis">
          -346 70 -72 callgsubr
          -258 -868 -73 callgsubr
        </CharString>
        <CharString name="Idotaccent">
          -346 163 763 -86 callgsubr
          -158 -868 -73 callgsubr
        </CharString>
        <CharString name="Igrave">
          -346 168 736 -83 callsubr
          -59 -865 -73 callgsubr
        </CharString>
        <CharString name="Imacron">
          -346 64 767 -73 callsubr
          -53 -844 -73 callgsubr
        </CharString>
        <CharString name="Iogonek">
          -346 104 hmoveto
          31 -63 callgsubr
          -121 -686 rlineto
          8 hlineto
          -35 -26 -35 -35 -54 -57 callsubr
          endchar
        </CharString>
        <CharString name="Itilde">
          -346 48 758 rmoveto
          -76 callsubr
          -103 callsubr
          -24 -758 -73 callgsubr
        </CharString>
        <CharString name="J">
          -107 187 -12 -84 callgsubr
        </CharString>
        <CharString name="Jcircumflex">
          -107 299 -78 callsubr
          -241 -880 -84 callgsubr
        </CharString>
        <CharString name="K">
          -47 callsubr
          endchar
        </CharString>
        <CharString name="Kcommaaccent">
          -47 callsubr
          67 -916 -79 callsubr
        </CharString>
        <CharString name="L">
          15 hmoveto
          -59 callgsubr
          endchar
        </CharString>
        <CharString name="Lacute">
          153 736 -95 callgsubr
          -245 -868 rmoveto
          -59 callgsubr
          endchar
        </CharString>
        <CharString name="Lcaron">
          15 hmoveto
          -59 callgsubr
          199 -211 rmoveto
          54 -11 callgsubr
          endchar
        </CharString>
        <CharString name="Lcommaaccent">
          15 hmoveto
          -59 callgsubr
          26 -916 -79 callsubr
        </CharString>
        <CharString name="Ldot">
          15 hmoveto
          -59 callgsubr
          186 -277 rmoveto
          -49 callsubr
          endchar
        </CharString>
        <CharString name="Lslash">
          27 hmoveto
          468 hlineto
          17 96 rlineto
          -358 hlineto
          42 236 177 105 16 88 -178 -105 47 266 rlineto
          -110 hlineto
          -60 -339 -79 -48 -15 -87 79 47 rlineto
          endchar
        </CharString>
        <CharString name="M">
          209 15 hmoveto
          105 hlineto
          79 448 rlineto
          5 28 13 95 0 vvcurveto
          5 hlineto
          1 -9 2 -39 3 -24 75 -499 rcurveline
          99 hlineto
          253 499 13 27 13 36 4 9 rlinecurve
          6 hlineto
          -24 -123 -79 -448 rlineto
          110 -35 callsubr
          -36 callsubr
          -171 hlineto
          -222 -440 rlineto
          -18 -37 -29 -82 0 vvcurveto
          -5 hlineto
          0 -1 76 -6 43 vhcurveto
          -68 440 rlineto
          -163 hlineto
          endchar
        </CharString>
        <CharString name="N">
          98 -53 callsubr
          endchar
        </CharString>
        <CharString name="NULL">
          -624 endchar
        </CharString>
        <CharString name="Nacute">
          98 400 736 -95 callgsubr
          -492 -868 rmoveto
          -96 callsubr
          endchar
        </CharString>
        <CharString name="Nacute.loclPLK">
          98 393 736 -63 callsubr
          -425 -868 rmoveto
          -96 callsubr
          endchar
        </CharString>
        <CharString name="Ncaron">
          98 399 733 -94 callsubr
          -302 -868 rmoveto
          -96 callsubr
          endchar
        </CharString>
        <CharString name="Ncommaaccent">
          98 -53 callsubr
          86 -916 -79 callsubr
        </CharString>
        <CharString name="Ntilde">
          98 286 758 rmoveto
          -76 callsubr
          -103 callsubr
          -271 -758 rmoveto
          -96 callsubr
          endchar
        </CharString>
        <CharString name="O">
          154 338 -11 -107 callsubr
          endchar
        </CharString>
        <CharString name="OE">
          376 267 -12 rmoveto
          72 63 27 54 52 hvcurveto
          -12 -69 rlineto
          443 hlineto
          17 93 rlineto
          -333 hlineto
          37 211 rlineto
          275 hlineto
          16 93 rlineto
          -274 hlineto
          34 196 rlineto
          326 hlineto
          17 93 rlineto
          -437 hlineto
          -12 -69 rlineto
          54 -38 -60 27 -83 hhcurveto
          -165 -119 -119 -236 -39 hvcurveto
          -7 -41 -4 -38 -34 vvcurveto
          -161 84 -81 147 vhcurveto
          23 94 rmoveto
          -92 -48 46 110 30 4 35 6 40 hvcurveto
          184 33 70 77 116 hhcurveto
          84 51 -41 -117 -29 -4 -34 -7 -40 hvcurveto
          -192 -34 -76 -69 -103 hhcurveto
          endchar
        </CharString>
        <CharString name="Oacute">
          154 395 736 -95 callgsubr
          -164 -879 -107 callsubr
          endchar
        </CharString>
        <CharString name="Oacute.loclPLK">
          154 388 736 -63 callsubr
          -97 -879 -107 callsubr
          endchar
        </CharString>
        <CharString name="Obreve">
          154 443 -78 callgsubr
          -105 -756 -107 callsubr
          endchar
        </CharString>
        <CharString name="Ocircumflex">
          154 -23 callgsubr
          -74 -879 -107 callsubr
          endchar
        </CharString>
        <CharString name="Odieresis">
          154 303 -72 callgsubr
          -177 -879 -107 callsubr
          endchar
        </CharString>
        <CharString name="Ograve">
          154 401 736 -83 callsubr
          22 -876 -107 callsubr
          endchar
        </CharString>
        <CharString name="Ohorn">
          154 728 828 -100 callsubr
          endchar
        </CharString>
        <CharString name="Ohungarumlaut">
          154 321 736 -70 callsubr
          -227 -879 -107 callsubr
          endchar
        </CharString>
        <CharString name="Omacron">
          154 297 767 -73 callsubr
          28 -855 -107 callsubr
          endchar
        </CharString>
        <CharString name="Oslash">
          154 -1 -49 -74 callsubr
        </CharString>
        <CharString name="Oslashacute">
          154 428 736 -95 callgsubr
          -536 -917 -74 callsubr
        </CharString>
        <CharString name="Otilde">
          154 281 758 rmoveto
          -76 callsubr
          -103 callsubr
          57 -769 -107 callsubr
          endchar
        </CharString>
        <CharString name="P">
          43 -1 callsubr
          44 255 rlineto
          226 hlineto
          150 107 98 150 111 -64 72 -146 hvcurveto
          -307 hlineto
          51 -336 rmoveto
          42 241 rlineto
          208 hlineto
          70 33 -36 -63 -89 -63 -53 -82 hvcurveto
          endchar
        </CharString>
        <CharString name="Q">
          154 478 -130 rmoveto
          138 hlineto
          -125 145 rlineto
          156 59 95 157 203 vvcurveto
          177 -111 87 -193 -102 -86 -31 -56 -66 vhcurveto
          -95 -79 -52 -127 -154 vvcurveto
          -177 111 -86 191 12 15 1 1 11 vhcurveto
          -44 92 rmoveto
          -116 -66 55 124 37 4 34 10 43 hvcurveto
          144 34 101 85 145 hhcurveto
          117 66 -55 -125 -41 -5 -37 -11 -44 hvcurveto
          -139 -36 -102 -81 -141 hhcurveto
          endchar
        </CharString>
        <CharString name="R">
          -52 callsubr
          endchar
        </CharString>
        <CharString name="Racute">
          98 354 736 -95 callgsubr
          -446 -868 rmoveto
          -89 callgsubr
          endchar
        </CharString>
        <CharString name="Rcaron">
          98 353 733 -94 callsubr
          -256 -868 rmoveto
          -89 callgsubr
          endchar
        </CharString>
        <CharString name="Rcommaaccent">
          -52 callsubr
          -210 -599 -79 callsubr
        </CharString>
        <CharString name="S">
          -66 callgsubr
          endchar
        </CharString>
        <CharString name="Sacute">
          43 352 736 -95 callgsubr
          -164 -880 -98 callsubr
          endchar
        </CharString>
        <CharString name="Sacute.loclPLK">
          43 345 736 -63 callsubr
          -97 -880 -98 callsubr
          endchar
        </CharString>
        <CharString name="Scaron">
          43 351 733 -94 callsubr
          26 -880 -98 callsubr
          endchar
        </CharString>
        <CharString name="Scedilla">
          43 267 -20 callgsubr
          56 76 14 73 41 -37 18 -46 1 hvcurveto
          8 24 rlineto
          140 8 132 63 154 218 -391 -60 136 vvcurveto
          65 76 31 101 83 56 -31 -55 -4 0 -9 -4 -15 vhcurveto
          109 hlineto
          4 22 1 16 12 vvcurveto
          111 -110 47 -147 -147 -136 -65 -139 vhcurveto
          -219 389 67 -147 vvcurveto
          -71 -71 -42 -125 -94 -61 32 63 14 5 17 2 9 vhcurveto
          -110 hlineto
          -5 -15 -3 -25 -18 vvcurveto
          -111 101 -51 136 -8 vhcurveto
          -23 -66 rlineto
          48 hlineto
          26 10 -6 -12 -24 -20 -6 -27 hvcurveto
          -96 hlineto
          -9 -49 rlineto
          -5 28 39 -3 36 hhcurveto
          endchar
        </CharString>
        <CharString name="Scircumflex">
          43 240 -78 callsubr
          -74 -880 -98 callsubr
          endchar
        </CharString>
        <CharString name="Scommaaccent">
          -66 callgsubr
          -100 -218 -79 callsubr
        </CharString>
        <CharString name="T">
          -13 191 hmoveto
          -52 callgsubr
          endchar
        </CharString>
        <CharString name="Tbar">
          -13 191 hmoveto
          -28 callsubr
          65 372 rlineto
          100 hlineto
          14 78 rlineto
          -100 hlineto
          25 140 -9 callsubr
          18 96 rlineto
          -568 hlineto
          -17 -96 -9 callsubr
          -24 -140 rlineto
          -100 hlineto
          -14 -78 rlineto
          100 hlineto
          endchar
        </CharString>
        <CharString name="Tcaron">
          -13 324 733 -94 callsubr
          -51 -868 rmoveto
          -52 callgsubr
          endchar
        </CharString>
        <CharString name="Thorn">
          43 -1 callsubr
          24 139 rlineto
          225 hlineto
          151 107 99 149 112 -65 72 -146 hvcurveto
          -196 hlineto
          21 115 -74 callgsubr
          31 -451 rmoveto
          42 240 rlineto
          208 hlineto
          70 33 -35 -63 -89 -64 -53 -81 hvcurveto
          endchar
        </CharString>
        <CharString name="U">
          98 320 -12 -104 callgsubr
          endchar
        </CharString>
        <CharString name="Uacute">
          98 388 736 -95 callgsubr
          -175 -880 -104 callgsubr
          endchar
        </CharString>
        <CharString name="Ubreve">
          98 436 -78 callgsubr
          -116 -757 -104 callgsubr
          endchar
        </CharString>
        <CharString name="Ucircumflex">
          98 276 -78 callsubr
          -85 -880 -104 callgsubr
          endchar
        </CharString>
        <CharString name="Udieresis">
          98 296 -72 callgsubr
          -188 -880 -104 callgsubr
          endchar
        </CharString>
        <CharString name="Ugrave">
          98 394 736 -83 callsubr
          11 -877 -104 callgsubr
          endchar
        </CharString>
        <CharString name="Uhorn">
          -90 callsubr
          endchar
        </CharString>
        <CharString name="Uhungarumlaut">
          98 314 736 -70 callsubr
          -238 -880 -104 callgsubr
          endchar
        </CharString>
        <CharString name="Umacron">
          98 290 767 -73 callsubr
          17 -856 -104 callgsubr
          endchar
        </CharString>
        <CharString name="Uogonek">
          98 342 -36 callgsubr
          9 52 rlineto
          -29 hlineto
          -32 -11 19 21 26 15 25 17 18 hvcurveto
          138 17 89 82 29 162 76 432 rcurveline
          -111 hlineto
          -76 -434 -67 callgsubr
          -20 -75 -58 -110 hhcurveto
          -97 -52 44 86 14 2 18 2 14 hvcurveto
          75 428 rlineto
          -110 hlineto
          -74 -424 rlineto
          -4 -22 -2 -22 -19 vvcurveto
          -133 87 -71 154 -6 vhcurveto
          -25 -24 -21 -30 -42 vvcurveto
          -57 46 -18 43 vhcurveto
          endchar
        </CharString>
        <CharString name="Uring">
          98 431 708 -70 callgsubr
          -117 -769 -104 callgsubr
          endchar
        </CharString>
        <CharString name="Utilde">
          98 274 758 rmoveto
          -76 callsubr
          -103 callsubr
          46 -770 -104 callgsubr
          endchar
        </CharString>
        <CharString name="V">
          43 206 hmoveto
          137 hlineto
          374 -36 callsubr
          -118 hlineto
          -251 -470 -51 -99 rlineto
          -5 hlineto
          -3 20 -9 53 -6 30 -85 466 rcurveline
          -115 hlineto
          endchar
        </CharString>
        <CharString name="W">
          320 139 hmoveto
          -92 callsubr
        </CharString>
        <CharString name="Wacute">
          320 499 736 -95 callgsubr
          -467 -868 rmoveto
          -92 callsubr
        </CharString>
        <CharString name="Wcircumflex">
          320 387 -78 callsubr
          -377 -868 rmoveto
          -92 callsubr
        </CharString>
        <CharString name="Wdieresis">
          320 407 -72 callgsubr
          -480 -868 rmoveto
          -92 callsubr
        </CharString>
        <CharString name="Wgrave">
          320 505 736 -83 callsubr
          -281 -865 rmoveto
          -92 callsubr
        </CharString>
        <CharString name="X">
          43 -57 hmoveto
          135 hlineto
          243 271 rlineto
          5 hlineto
          150 -271 rlineto
          126 hlineto
          -202 356 298 330 rlineto
          -136 hlineto
          -210 -239 rlineto
          -5 hlineto
          -133 239 rlineto
          -127 hlineto
          183 -323 rlineto
          endchar
        </CharString>
        <CharString name="Y">
          43 219 hmoveto
          -85 callgsubr
          endchar
        </CharString>
        <CharString name="Y.loclGUA">
          43 274 -12 -99 callsubr
        </CharString>
        <CharString name="Yacute">
          43 359 736 -95 callgsubr
          -247 -868 rmoveto
          -85 callgsubr
          endchar
        </CharString>
        <CharString name="Yacute.loclGUA">
          43 373 736 -95 callgsubr
          -206 -880 -99 callsubr
        </CharString>
        <CharString name="Ycircumflex">
          43 247 -78 callsubr
          -157 -868 rmoveto
          -85 callgsubr
          endchar
        </CharString>
        <CharString name="Ycircumflex.loclGUA">
          43 261 -78 callsubr
          -116 -880 -99 callsubr
        </CharString>
        <CharString name="Ydieresis">
          43 267 -72 callgsubr
          -260 -868 rmoveto
          -85 callgsubr
          endchar
        </CharString>
        <CharString name="Ydieresis.loclGUA">
          43 281 -72 callgsubr
          -219 -880 -99 callsubr
        </CharString>
        <CharString name="Ygrave">
          43 365 736 -83 callsubr
          -61 -865 rmoveto
          -85 callgsubr
          endchar
        </CharString>
        <CharString name="Ygrave.loclGUA">
          43 379 736 -83 callsubr
          -20 -877 -99 callsubr
        </CharString>
        <CharString name="Z">
          -13 -37 hmoveto
          -81 callsubr
          endchar
        </CharString>
        <CharString name="Zacute">
          -13 336 736 -95 callgsubr
          -480 -868 rmoveto
          -81 callsubr
          endchar
        </CharString>
        <CharString name="Zacute.loclPLK">
          -13 329 736 -63 callsubr
          -413 -868 rmoveto
          -81 callsubr
          endchar
        </CharString>
        <CharString name="Zcaron">
          -13 335 733 -94 callsubr
          -290 -868 rmoveto
          -81 callsubr
          endchar
        </CharString>
        <CharString name="Zdotaccent">
          -13 337 763 -86 callgsubr
          -393 -868 rmoveto
          -81 callsubr
          endchar
        </CharString>
        <CharString name="a">
          -57 453 100 -105 callgsubr
        </CharString>
        <CharString name="aacute">
          -57 483 720 -61 callgsubr
          96 -491 -105 callgsubr
        </CharString>
        <CharString name="abreve">
          -57 311 -84 callsubr
          142 -500 -105 callgsubr
        </CharString>
        <CharString name="acircumflex">
          -57 322 664 -71 callgsubr
          endchar
        </CharString>
        <CharString name="acute">
          -291 61 591 -95 callgsubr
          endchar
        </CharString>
        <CharString name="acute.loclPLK">
          -291 159 591 -63 callsubr
          endchar
        </CharString>
        <CharString name="adieresis">
          -57 286 723 rmoveto
          -97 -3 callgsubr
          96 hlineto
          213 102 rmoveto
          -97 -3 callgsubr
          97 hlineto
          -9 -521 -105 callgsubr
        </CharString>
        <CharString name="ae">
          265 174 -12 -77 callgsubr
        </CharString>
        <CharString name="aeacute">
          265 455 591 -95 callgsubr
          -388 -735 -77 callgsubr
        </CharString>
        <CharString name="agrave">
          -57 352 591 -55 callgsubr
          184 -491 -105 callgsubr
        </CharString>
        <CharString name="amacron">
          -57 483 699 rmoveto
          -305 hlineto
          -13 -77 rlineto
          305 hlineto
          -17 -522 -105 callgsubr
        </CharString>
        <CharString name="ampersand">
          60 263 -12 rmoveto
          167 99 77 132 24 hvcurveto
          19 108 rlineto
          88 hlineto
          15 86 rlineto
          -191 hlineto
          -35 -197 rlineto
          -79 -14 -61 -41 -109 hhcurveto
          -86 -53 30 69 107 92 26 80 hvcurveto
          61 hlineto
          -18 callgsubr
          -64 hlineto
          -64 -51 30 59 92 84 40 94 81 51 -28 -61 -7 0 -8 -4 -19 hvcurveto
          103 hlineto
          6 28 1 14 9 vvcurveto
          97 -94 61 -144 -157 -126 -77 -140 -64 37 -35 51 -26 vhcurveto
          -1 -4 rlineto
          -83 -20 -77 -67 -107 vvcurveto
          -108 97 -62 149 vhcurveto
          endchar
        </CharString>
        <CharString name="aogonek">
          -57 450 100 rmoveto
          11 59 -58 callsubr
          vhcurveto
          -82 hlineto
          -31 -60 rlineto
          -6 hlineto
          49 -27 -45 23 -72 hhcurveto
          -151 -96 -159 -195 -131 66 -65 101 64 62 31 60 37 hvcurveto
          4 -9 hlineto
          -1 -39 16 -26 27 -10 rrcurveto
          -46 -23 -32 -31 -48 vvcurveto
          -57 46 -18 43 22 21 5 9 24 vhcurveto
          9 52 rlineto
          -29 hlineto
          -33 -10 17 21 46 60 24 33 12 hvcurveto
          12 69 rlineto
          -36 hlineto
          -19 -11 8 19 hvcurveto
          -232 -25 rmoveto
          -63 -28 40 75 127 47 135 113 70 30 -41 -76 -76 -43 -184 -126 hvcurveto
          endchar
        </CharString>
        <CharString name="approxequal">
          -75 35 265 rmoveto
          0 70 72 81 vhcurveto
          74 45 -60 72 hhcurveto
          93 59 72 0 hvcurveto
          17 101 rlineto
          0 -70 -72 -82 vhcurveto
          -74 -44 60 -72 hhcurveto
          -93 -59 -72 0 hvcurveto
          -55 -314 rmoveto
          0 70 72 82 vhcurveto
          74 44 -60 72 hhcurveto
          93 59 72 0 hvcurveto
          18 101 rlineto
          0 -71 -72 -81 vhcurveto
          -74 -45 60 -72 hhcurveto
          -93 -59 -72 0 hvcurveto
          endchar
        </CharString>
        <CharString name="aring">
          -57 306 563 rmoveto
          70 43 49 64 46 -34 36 -52 -70 -43 -50 -65 -45 35 -35 51 hvcurveto
          21 146 rmoveto
          26 16 -17 -23 -31 -22 -26 -35 -27 -15 16 22 32 21 27 36 hvcurveto
          126 -609 -105 callgsubr
        </CharString>
        <CharString name="aringacute">
          -57 513 909 -61 callgsubr
          -81 -217 rmoveto
          70 43 49 64 46 -34 36 -52 -70 -43 -50 -65 -45 35 -35 51 hvcurveto
          21 146 rmoveto
          26 16 -17 -23 -31 -22 -26 -35 -27 -15 16 22 32 21 27 36 hvcurveto
          126 -609 -105 callgsubr
        </CharString>
        <CharString name="arrowboth">
          376 204 76 rmoveto
          45 hlineto
          -30 134 rlineto
          543 hlineto
          -80 -134 rlineto
          53 hlineto
          219 166 3 21 -168 166 rlineto
          -45 hlineto
          33 -134 rlineto
          -543 hlineto
          77 134 rlineto
          -54 hlineto
          -218 -166 -3 -21 rlineto
          endchar
        </CharString>
        <CharString name="arrowdown">
          -124 152 -208 -4 callsubr
          10 53 -145 -56 129 732 rlineto
          -84 hlineto
          -129 -732 -125 56 -8 -45 rlineto
          endchar
        </CharString>
        <CharString name="arrowleft">
          376 197 76 rmoveto
          45 hlineto
          -32 134 rlineto
          732 hlineto
          15 84 rlineto
          -733 hlineto
          81 135 rlineto
          -53 hlineto
          -219 -166 -3 -21 rlineto
          endchar
        </CharString>
        <CharString name="arrowright">
          376 681 76 rmoveto
          53 hlineto
          219 166 3 21 -167 166 rlineto
          -45 hlineto
          32 -135 rlineto
          -732 hlineto
          -15 -84 rlineto
          733 hlineto
          endchar
        </CharString>
        <CharString name="arrowup">
          -124 116 -208 rmoveto
          84 hlineto
          129 733 124 -57 8 45 -132 197 rlineto
          -21 hlineto
          -199 -189 -9 -53 145 57 rlineto
          endchar
        </CharString>
        <CharString name="arrowupdn">
          -124 154 -206 -4 callsubr
          9 53 -144 -57 96 543 125 -53 8 45 -132 -12 callgsubr
          -96 -543 -125 57 -8 -45 rlineto
          endchar
        </CharString>
        <CharString name="arrowupdnbse">
          -124 168 -125 -4 callsubr
          9 53 -144 -56 81 461 125 -53 9 45 -133 -12 callgsubr
          -81 -461 -125 56 -8 -45 rlineto
          -54 -305 rmoveto
          354 hlineto
          11 60 rlineto
          -354 hlineto
          endchar
        </CharString>
        <CharString name="asciicircum">
          -155 21 294 rmoveto
          98 hlineto
          166 301 62 -301 rlineto
          93 hlineto
          -88 392 rlineto
          -107 hlineto
          endchar
        </CharString>
        <CharString name="asciitilde">
          -40 24 207 rmoveto
          0 73 73 85 vhcurveto
          78 47 -61 76 hhcurveto
          97 61 73 0 hvcurveto
          18 101 rlineto
          0 -73 -73 -85 vhcurveto
          -78 -47 61 -76 hhcurveto
          -97 -61 -73 0 hvcurveto
          endchar
        </CharString>
        <CharString name="asterisk">
          -235 162 362 rmoveto
          83 hlineto
          4 119 83 -74 53 71 -103 46 120 47 -29 70 -109 -73 38 118 rlineto
          -83 hlineto
          -4 -119 -83 74 -53 -70 104 -47 -121 -46 29 -71 109 74 rlineto
          endchar
        </CharString>
        <CharString name="at">
          379 561 698 rmoveto
          -316 -199 -154 -346 -204 99 -147 303 80 58 9 5 33 hvcurveto
          11 68 rlineto
          0 -77 -18 -105 -253 -76 124 170 293 175 136 267 209 113 -98 -157 -141 -67 -139 -112 -25 -12 7 18 14 54 267 18 105 vhcurveto
          -77 hlineto
          -28 -55 rlineto
          -6 hlineto
          45 -24 -41 21 -65 hhcurveto
          -138 -89 -144 -177 -120 62 -58 93 58 56 28 54 33 hvcurveto
          5 -14 hlineto
          -52 51 -16 44 205 78 198 159 197 -138 122 -257 vhcurveto
          -107 -596 rmoveto
          -58 -25 35 68 116 43 121 103 63 28 -36 -69 -70 -40 -165 -114 hvcurveto
          endchar
        </CharString>
        <CharString name="atilde">
          -57 251 646 rmoveto
          -103 callsubr
          -76 callsubr
          hhcurveto
          202 -546 -105 callgsubr
        </CharString>
        <CharString name="b">
          281 -12 rmoveto
          162 91 162 192 135 -67 61 -104 -68 -52 -27 -45 -39 hvcurveto
          -6 hlineto
          45 257 rlineto
          -103 -21 callgsubr
          -723 rlineto
          82 hlineto
          22 70 rlineto
          6 hlineto
          -54 28 57 -28 73 hhcurveto
          -23 86 rmoveto
          -71 -32 43 80 116 53 138 117 70 32 -33 -81 -130 -48 -133 -121 hvcurveto
          endchar
        </CharString>
        <CharString name="backslash">
          -346 130 -49 rmoveto
          78 hlineto
          -59 784 rlineto
          -78 hlineto
          endchar
        </CharString>
        <CharString name="bar">
          -358 91 -173 rmoveto
          84 896 -84 hlineto
          endchar
        </CharString>
        <CharString name="braceleft">
          -273 226 -159 rmoveto
          11 63 rlineto
          -39 -43 10 45 hvcurveto
          29 32 176 40 vvcurveto
          50 -22 29 -62 vhcurveto
          2 10 rlineto
          77 26 34 74 16 hvcurveto
          9 39 26 119 9 45 rrcurveto
          56 10 53 12 41 hhcurveto
          11 63 rlineto
          -115 -73 -22 -126 -22 hvcurveto
          -34 -196 rlineto
          -45 -8 -48 -15 -41 hhcurveto
          -15 -86 rlineto
          37 40 -12 -39 hvcurveto
          -33 -40 -160 -51 vvcurveto
          -92 69 -17 93 vhcurveto
          endchar
        </CharString>
        <CharString name="braceright">
          -273 -53 -159 rmoveto
          115 73 22 126 22 hvcurveto
          34 196 rlineto
          45 8 48 15 41 hhcurveto
          16 86 rlineto
          -38 -40 12 39 hvcurveto
          33 40 160 51 vvcurveto
          92 -69 17 -93 vhcurveto
          -11 -63 rlineto
          39 43 -10 -45 hvcurveto
          -29 -32 -176 -40 vvcurveto
          -50 22 -29 62 vhcurveto
          -2 -10 rlineto
          -77 -25 -34 -74 -17 hvcurveto
          -9 -39 -26 -119 -9 -45 rrcurveto
          -56 -10 -53 -12 -41 hhcurveto
          endchar
        </CharString>
        <CharString name="bracketleft">
          -329 -15 -161 rmoveto
          196 hlineto
          12 74 rlineto
          -106 hlineto
          132 748 rlineto
          106 hlineto
          13 74 rlineto
          -197 hlineto
          endchar
        </CharString>
        <CharString name="bracketright">
          -329 -65 -161 rmoveto
          195 hlineto
          157 896 rlineto
          -196 hlineto
          -13 -74 rlineto
          107 hlineto
          -132 -748 rlineto
          -106 hlineto
          endchar
        </CharString>
        <CharString name="breve">
          -291 164 -84 callsubr
          endchar
        </CharString>
        <CharString name="brokenbar">
          -358 91 357 rmoveto
          84 366 -84 hlineto
          -896 vmoveto
          84 366 -84 hlineto
          endchar
        </CharString>
        <CharString name="bullet">
          -274 163 216 rmoveto
          86 54 65 77 63 -50 50 -66 -86 -55 -66 -77 -63 50 -49 67 hvcurveto
          endchar
        </CharString>
        <CharString name="c">
          -107 233 -12 -91 callsubr
        </CharString>
        <CharString name="cacute">
          -107 263 591 -95 callgsubr
          -137 -735 -91 callsubr
        </CharString>
        <CharString name="cacute.loclPLK">
          -107 256 591 -63 callsubr
          -70 -735 -91 callsubr
        </CharString>
        <CharString name="caron">
          -291 106 588 -94 callsubr
          endchar
        </CharString>
        <CharString name="ccaron">
          -107 262 588 -94 callsubr
          53 -735 -91 callsubr
        </CharString>
        <CharString name="ccedilla">
          -107 487 330 rmoveto
          2 14 1 14 12 vvcurveto
          102 -62 66 -140 -196 -72 -177 -170 -118 48 -65 106 -16 vhcurveto
          -24 -69 -64 callsubr
          8 23 131 4 72 86 19 118 rlinecurve
          -99 hlineto
          -66 -12 -42 -58 -81 hhcurveto
          -69 -35 37 89 24 2 27 6 31 hvcurveto
          94 17 44 80 96 hhcurveto
          72 21 -42 -54 -9 0 -9 -1 -10 hvcurveto
          endchar
        </CharString>
        <CharString name="ccircumflex">
          -107 151 -75 callsubr
          -47 -735 -91 callsubr
        </CharString>
        <CharString name="cdotaccent">
          -107 264 -45 callgsubr
          -50 -735 -91 callsubr
        </CharString>
        <CharString name="cedilla">
          -291 137 -20 callgsubr
          56 76 14 73 41 -37 18 -46 1 hvcurveto
          16 46 rlineto
          -69 hlineto
          -31 -88 rlineto
          47 hlineto
          27 9 -6 -12 -24 -19 -6 -27 hvcurveto
          -96 hlineto
          -9 -49 rlineto
          -5 28 39 -3 36 hhcurveto
          endchar
        </CharString>
        <CharString name="cent">
          -68 193 -49 rmoveto
          51 hlineto
          20 116 138 1 73 87 19 120 rlinecurve
          -99 hlineto
          -12 -61 -35 -54 -69 -8 67 378 rcurveline
          52 -9 16 -37 -47 vvcurveto
          -10 -1 -9 -1 -9 vhcurveto
          105 hlineto
          2 13 1 14 13 vvcurveto
          90 -49 62 -110 13 vhcurveto
          20 109 rlineto
          -51 hlineto
          -19 -107 rlineto
          -191 -4 -71 -175 -167 vvcurveto
          -122 52 -65 113 -14 vhcurveto
          15 84 rmoveto
          -49 11 -24 37 75 vvcurveto
          22 2 24 4 29 vhcurveto
          14 88 38 78 82 13 rrcurveto
          endchar
        </CharString>
        <CharString name="circumflex">
          -291 1 -75 callsubr
          endchar
        </CharString>
        <CharString name="colon">
          -329 109 409 rmoveto
          -49 callsubr
          -93 -526 -22 callgsubr
          -112 hlineto
          endchar
        </CharString>
        <CharString name="comma">
          -346 -43 callgsubr
          endchar
        </CharString>
        <CharString name="copyright">
          -57 callgsubr
          93 vmoveto
          114 45 75 86 hvcurveto
          -67 hlineto
          -67 -26 -36 -66 -74 -32 44 107 110 34 42 72 68 20 -32 -70 vhcurveto
          71 hlineto
          104 -47 57 -112 -121 -57 -66 -145 -144 56 -65 122 vhcurveto
          endchar
        </CharString>
        <CharString name="currency">
          -68 74 99 rmoveto
          55 58 rlineto
          -37 40 55 -18 54 hhcurveto
          54 55 18 37 40 hvcurveto
          55 -58 45 45 -54 56 rlineto
          34 42 16 54 55 vvcurveto
          55 -16 56 -34 39 vhcurveto
          55 54 -48 48 -57 -56 rlineto
          33 -38 -54 18 -53 hhcurveto
          -53 -54 -18 -33 -38 hvcurveto
          -57 56 -48 -48 55 -54 rlineto
          -34 -39 -16 -56 -55 vvcurveto
          -55 16 -54 34 -42 vhcurveto
          -54 -56 rlineto
          249 37 rmoveto
          -91 -72 79 91 89 73 79 90 90 73 -79 -89 -91 -72 -79 -91 hvcurveto
          endchar
        </CharString>
        <CharString name="d">
          -79 callgsubr
          30 87 -32 callgsubr
        </CharString>
        <CharString name="dagger">
          -68 145 -171 rmoveto
          100 hlineto
          88 600 200 -27 callgsubr
          rlineto
          endchar
        </CharString>
        <CharString name="daggerdbl">
          -68 146 -171 rmoveto
          94 hlineto
          20 194 201 -17 17 99 -206 -18 47 173 12 169 201 -27 callgsubr
          -48 -169 -12 -173 -200 18 -16 -99 205 17 rlineto
          endchar
        </CharString>
        <CharString name="dcaron">
          30 -79 callgsubr
          390 487 rmoveto
          54 hlineto
          70 118 16 93 rlineto
          -101 -3 callgsubr
          39 hlineto
          -420 -509 -32 callgsubr
        </CharString>
        <CharString name="dcroat">
          202 -12 rmoveto
          62 58 29 53 41 hvcurveto
          7 -70 80 hlineto
          103 593 rlineto
          67 hlineto
          11 65 rlineto
          -66 hlineto
          12 65 -69 callsubr
          -12 -65 rlineto
          -142 hlineto
          -11 -65 rlineto
          142 hlineto
          -22 -127 rlineto
          -6 hlineto
          46 -29 -47 26 -77 hhcurveto
          -152 -98 -154 -188 -145 69 -63 113 hvcurveto
          30 87 -32 callgsubr
        </CharString>
        <CharString name="degree">
          -224 217 415 rmoveto
          79 63 63 79 78 -63 63 -79 -78 -63 -63 -78 -79 63 -63 78 hvcurveto
          62 vmoveto
          -43 -36 36 44 43 36 35 43 44 35 -35 -43 -44 -35 -36 -44 hvcurveto
          endchar
        </CharString>
        <CharString name="dieresis">
          -291 12 -65 callsubr
          endchar
        </CharString>
        <CharString name="divide">
          -75 244 408 rmoveto
          106 hlineto
          18 103 rlineto
          -106 hlineto
          -236 -300 rmoveto
          473 hlineto
          16 89 rlineto
          -473 hlineto
          129 -300 rmoveto
          106 hlineto
          19 103 rlineto
          -106 hlineto
          endchar
        </CharString>
        <CharString name="dollar">
          -68 185 -49 rmoveto
          51 hlineto
          20 116 rlineto
          119 2 108 53 131 vvcurveto
          94 -90 26 -79 20 vhcurveto
          26 139 rlineto
          47 -6 19 -24 -30 vvcurveto
          -5 -1 -8 -1 -6 vhcurveto
          100 hlineto
          2 4 5 21 17 vvcurveto
          62 -56 48 -101 10 vhcurveto
          19 108 rlineto
          -51 hlineto
          -19 -106 rlineto
          -122 -4 -93 -63 -106 vvcurveto
          -88 84 -25 77 -22 vhcurveto
          -28 -158 rlineto
          -49 5 -35 20 45 vvcurveto
          3 1 12 2 8 vhcurveto
          -101 hlineto
          -4 -12 -3 -19 -13 vvcurveto
          -67 54 -54 120 -10 vhcurveto
          60 338 rmoveto
          -41 12 -29 15 32 vvcurveto
          24 21 36 72 7 vhcurveto
          -18 -383 rmoveto
          26 145 rlineto
          43 -14 33 -19 -36 vvcurveto
          -45 -46 -25 -56 -6 vhcurveto
          endchar
        </CharString>
        <CharString name="dotaccent">
          -291 106 -45 callgsubr
          endchar
        </CharString>
        <CharString name="dotbelowcomb">
          -624 -303 -173 -86 callgsubr
          endchar
        </CharString>
        <CharString name="dotlessi">
          -346 28 hmoveto
          -62 callgsubr
          endchar
        </CharString>
        <CharString name="e">
          -68 253 -12 -106 callsubr
          endchar
        </CharString>
        <CharString name="eacute">
          -68 269 591 -95 callgsubr
          -123 -735 -106 callsubr
          endchar
        </CharString>
        <CharString name="ebreve">
          -68 317 -84 callsubr
          -64 -612 -106 callsubr
          endchar
        </CharString>
        <CharString name="ecaron">
          -68 268 588 -94 callsubr
          67 -735 -106 callsubr
          endchar
        </CharString>
        <CharString name="ecircumflex">
          -68 157 -75 callsubr
          -33 -735 -106 callsubr
          endchar
        </CharString>
        <CharString name="edieresis">
          -68 177 -65 callsubr
          -136 -735 -106 callsubr
          endchar
        </CharString>
        <CharString name="edotaccent">
          -68 270 -45 callgsubr
          -36 -735 -106 callsubr
          endchar
        </CharString>
        <CharString name="egrave">
          -68 275 591 -83 callsubr
          63 -732 -106 callsubr
          endchar
        </CharString>
        <CharString name="eight">
          -68 231 -12 rmoveto
          178 88 107 122 60 -25 47 -61 28 hvcurveto
          81 37 43 69 77 vvcurveto
          93 -66 70 -138 -152 -96 -103 -118 -52 22 -45 48 -28 vhcurveto
          -97 -35 -47 -76 -89 vvcurveto
          -94 62 -70 160 vhcurveto
          58 405 rmoveto
          -66 -36 31 54 85 60 51 81 65 37 -32 -54 -88 -66 -47 -75 hvcurveto
          -56 -321 rmoveto
          -77 -40 35 57 89 63 55 95 77 40 -33 -58 -99 -78 -46 -80 hvcurveto
          endchar
        </CharString>
        <CharString name="ellipsis">
          376 71 hmoveto
          -25 callgsubr
          22 -41 callsubr
          312 -117 rmoveto
          -25 callgsubr
          22 -41 callsubr
          311 -117 rmoveto
          -49 callsubr
          endchar
        </CharString>
        <CharString name="emacron">
          -68 171 622 -73 callsubr
          69 -711 -106 callsubr
          endchar
        </CharString>
        <CharString name="emdash">
          -17 callgsubr
        </CharString>
        <CharString name="endash">
          -68 -9 229 rmoveto
          555 hlineto
          14 82 rlineto
          -556 hlineto
          endchar
        </CharString>
        <CharString name="eng">
          307 -20 callgsubr
          96 30 64 63 11 hvcurveto
          69 393 rlineto
          5 26 3 25 20 vvcurveto
          94 -63 35 -92 -66 -67 -35 -48 -39 vhcurveto
          -29 callgsubr
          -93 -526 rlineto
          103 hlineto
          52 293 rlineto
          100 18 76 57 76 hhcurveto
          45 30 -16 -51 -15 -2 -18 -3 -19 hvcurveto
          -68 -384 rlineto
          -30 -5 -18 -17 -30 hhcurveto
          -46 hlineto
          -12 -69 rlineto
          -6 18 32 -7 27 hhcurveto
          endchar
        </CharString>
        <CharString name="eogonek">
          -68 360 -36 callgsubr
          9 52 rlineto
          -27 hlineto
          -31 -14 23 27 37 22 43 31 31 hvcurveto
          40 36 22 40 10 60 rrcurveto
          -101 hlineto
          -78 -13 -56 -32 -68 hhcurveto
          -87 -40 41 84 13 1 13 3 15 hvcurveto
          370 hlineto
          7 -19 callgsubr
          -73 62 -136 -203 -81 -162 -183 -140 77 -65 156 18 17 2 2 17 vhcurveto
          -19 -24 -15 -31 -37 vvcurveto
          -62 45 -20 44 vhcurveto
          -218 497 rmoveto
          90 23 53 50 86 hhcurveto
          64 42 -29 -73 -12 -1 -13 -3 -13 hvcurveto
          endchar
        </CharString>
        <CharString name="equal">
          -40 64 315 rmoveto
          473 hlineto
          16 90 rlineto
          -473 hlineto
          -53 -302 rmoveto
          472 hlineto
          16 89 rlineto
          -473 hlineto
          endchar
        </CharString>
        <CharString name="equivalence">
          -41 77 435 rmoveto
          472 hlineto
          15 90 rlineto
          -472 hlineto
          -53 -303 rmoveto
          472 hlineto
          16 90 rlineto
          -472 hlineto
          -53 -302 rmoveto
          472 hlineto
          15 89 rlineto
          -472 hlineto
          endchar
        </CharString>
        <CharString name="estimated">
          -24 302 -12 rmoveto
          104 78 50 80 42 hvcurveto
          -34 21 rlineto
          -67 -34 -68 -42 -88 hhcurveto
          -62 -50 19 34 -37 hvcurveto
          165 406 5 vlineto
          165 -98 120 -159 -160 -97 -116 -159 -159 97 -116 160 vhcurveto
          -149 302 rmoveto
          152 vlineto
          34 37 50 20 62 hhcurveto
          61 50 -20 -35 38 hvcurveto
          -151 vlineto
          endchar
        </CharString>
        <CharString name="eth">
          248 -12 rmoveto
          212 73 172 182 103 -37 93 -56 77 hvcurveto
          96 6 12 64 -159 -10 -15 17 -16 15 -18 16 rlinecurve
          -115 hlineto
          -3 -4 19 -18 21 -17 18 -18 rlinecurve
          -102 -7 -11 -64 159 12 20 -28 18 -27 14 -29 rlinecurve
          -3 -2 rlineto
          9 -26 -29 5 -31 hhcurveto
          -79 -60 -29 -48 -44 hvcurveto
          -59 -65 -27 -100 -106 vvcurveto
          -136 77 -63 151 vhcurveto
          1 85 rmoveto
          -83 -39 37 85 26 2 26 6 32 hvcurveto
          96 18 48 75 101 hhcurveto
          84 39 -38 -85 -27 -3 -29 -6 -32 hvcurveto
          -95 -19 -48 -71 -100 hhcurveto
          endchar
        </CharString>
        <CharString name="exclam">
          -329 84 179 -23 callsubr
          -114 -686 -27 callsubr
        </CharString>
        <CharString name="exclamdbl">
          -92 84 179 -23 callsubr
          202 -507 -23 callsubr
          -378 -686 -1 callgsubr
          243 -117 -27 callsubr
        </CharString>
        <CharString name="exclamdown">
          -291 154 409 rmoveto
          -25 callgsubr
          21 -41 callsubr
          -128 -686 rmoveto
          126 hlineto
          62 507 rlineto
          -68 hlineto
          endchar
        </CharString>
        <CharString name="f">
          -329 -20 -20 callgsubr
          -31 callgsubr
          99 hlineto
          -18 callgsubr
          -99 hlineto
          14 74 -81 callgsubr
          endchar
        </CharString>
        <CharString name="f_f">
          -34 586 646 rmoveto
          52 hlineto
          13 72 rlineto
          7 -19 -33 6 -28 hhcurveto
          -100 -32 -65 -63 -10 hvcurveto
          -14 -77 rlineto
          -192 hlineto
          14 74 -81 callgsubr
          -31 callgsubr
          192 hlineto
          -78 -441 rlineto
          103 hlineto
          78 441 rlineto
          99 hlineto
          -18 callgsubr
          -99 hlineto
          13 74 rlineto
          30 5 19 16 31 hhcurveto
          endchar
        </CharString>
        <CharString name="fi">
          -90 -20 -20 callgsubr
          -31 callgsubr
          99 hlineto
          -18 callgsubr
          -99 hlineto
          14 74 -81 callgsubr
          436 799 -50 callgsubr
          -127 -49 callgsubr
        </CharString>
        <CharString name="five">
          -68 231 -12 rmoveto
          150 122 102 178 121 -75 57 -102 -70 -49 -23 -23 -32 hvcurveto
          48 190 rlineto
          303 hlineto
          17 96 rlineto
          -392 hlineto
          -95 -380 94 -14 rlineto
          40 34 52 30 60 hhcurveto
          61 37 -36 -69 -132 -85 -53 -82 -65 -43 41 68 10 1 10 2 12 hvcurveto
          -105 hlineto
          -3 -17 -1 -16 -15 vvcurveto
          -111 82 -66 136 vhcurveto
          endchar
        </CharString>
        <CharString name="fiveeighths">
          210 50 -12 -53 callgsubr
          -543 -377 rmoveto
          80 63 54 93 66 -40 32 -56 -27 -22 -7 -8 -15 hvcurveto
          18 73 rlineto
          153 hlineto
          11 62 rlineto
          -212 hlineto
          -48 -192 59 -9 rlineto
          14 20 18 8 24 hhcurveto
          27 19 -13 -32 -55 -37 -27 -36 -29 -18 17 29 4 0 5 1 5 hvcurveto
          -69 hlineto
          -2 -9 0 -8 -8 vvcurveto
          -60 44 -34 74 vhcurveto
          435 -333 rmoveto
          90 51 55 65 30 -14 26 -26 -15 callsubr
          -36 38 -76 -80 -51 -47 callgsubr
          85 vhcurveto
          30 -11 callsubr
          24 20 36 0 callgsubr
          -30 -21 -31 hvcurveto
          -28 -160 rmoveto
          -33 -18 15 27 37 27 22 42 33 18 -14 -25 -41 -34 -21 -35 hvcurveto
          endchar
        </CharString>
        <CharString name="fl">
          -90 -20 -20 callgsubr
          -31 callgsubr
          99 hlineto
          -18 callgsubr
          -99 hlineto
          14 74 -81 callgsubr
          328 182 rmoveto
          103 -55 callsubr
          endchar
        </CharString>
        <CharString name="florin">
          -68 46 -183 rmoveto
          103 37 60 68 20 hvcurveto
          136 450 rlineto
          98 hlineto
          25 85 rlineto
          -99 hlineto
          37 120 rlineto
          30 9 20 16 32 hhcurveto
          51 hlineto
          21 72 rlineto
          7 -16 -31 6 -27 hhcurveto
          -104 -36 -60 -68 -21 hvcurveto
          -38 -123 rlineto
          -76 hlineto
          -24 -85 rlineto
          76 hlineto
          -135 -447 rlineto
          -30 -9 -20 -16 -31 hhcurveto
          -52 hlineto
          -21 -72 rlineto
          -7 16 31 -6 28 hhcurveto
          endchar
        </CharString>
        <CharString name="four">
          -68 278 hmoveto
          103 hlineto
          29 162 rlineto
          88 hlineto
          -18 callgsubr
          -88 hlineto
          61 349 rlineto
          -52 hlineto
          -23 -53 -25 -50 -29 -47 -35 -199 rcurveline
          -213 hlineto
          50 55 152 214 74 182 rrcurveto
          -114 hlineto
          -70 -169 -85 -145 -105 -136 -14 -86 rcurveline
          310 hlineto
          endchar
        </CharString>
        <CharString name="fraction">
          -16 callsubr
        </CharString>
        <CharString name="franc">
          -68 12 hmoveto
          107 hlineto
          52 295 -14 callsubr
          -51 -295 rlineto
          103 hlineto
          40 232 rlineto
          98 17 55 40 62 hhcurveto
          38 hlineto
          17 98 rlineto
          0 -17 8 -27 -60 -38 -46 -47 -24 vhcurveto
          -6 hlineto
          3 81 rlineto
          -81 hlineto
          -15 -81 rlineto
          -117 hlineto
          37 213 rlineto
          244 hlineto
          16 90 rlineto
          -351 hlineto
          endchar
        </CharString>
        <CharString name="g">
          198 -182 -102 callsubr
        </CharString>
        <CharString name="g_tilde.loclGUA">
          153 613 rmoveto
          -76 callsubr
          -103 callsubr
          45 -795 -102 callsubr
        </CharString>
        <CharString name="gbreve">
          315 -84 callsubr
          -117 -782 -102 callsubr
        </CharString>
        <CharString name="gcaron">
          266 588 -94 callsubr
          14 -905 -102 callsubr
        </CharString>
        <CharString name="gcircumflex">
          155 -75 callsubr
          -86 -905 -102 callsubr
        </CharString>
        <CharString name="gcommaaccent">
          265 601 rmoveto
          103 hlineto
          17 93 rlineto
          -41 hlineto
          58 86 rlineto
          -55 hlineto
          -67 -94 rlineto
          -82 -868 -102 callsubr
        </CharString>
        <CharString name="gdotaccent">
          268 -45 callgsubr
          -89 -905 -102 callsubr
        </CharString>
        <CharString name="germandbls">
          -13 7 hmoveto
          103 hlineto
          91 518 rlineto
          87 15 64 46 90 hhcurveto
          78 39 -39 -58 -69 -66 -56 -76 hvcurveto
          -84 hlineto
          -15 -88 rlineto
          91 hlineto
          71 47 -46 -66 -76 -71 -68 -86 hvcurveto
          -97 hlineto
          -15 -85 rlineto
          115 hlineto
          138 120 93 138 82 -41 54 -71 24 hvcurveto
          4 vlineto
          89 26 57 72 78 vvcurveto
          103 -85 61 -135 -68 -65 -16 -37 -49 vhcurveto
          -47 -36 -34 -55 -13 -77 rrcurveto
          endchar
        </CharString>
        <CharString name="grave">
          -291 171 591 -83 callsubr
          endchar
        </CharString>
        <CharString name="greater">
          -40 9 3 rmoveto
          508 197 21 113 -440 197 -16 -96 359 -154 -414 -155 rlineto
          endchar
        </CharString>
        <CharString name="greaterequal">
          -75 4 124 rmoveto
          508 196 21 113 -440 197 -16 -95 359 -155 -414 -154 rlineto
          -39 -226 -24 callgsubr
        </CharString>
        <CharString name="guillemotleft">
          -68 171 126 -40 callgsubr
          330 -200 -40 callgsubr
          endchar
        </CharString>
        <CharString name="guillemotright">
          -68 14 126 -40 callsubr
          44 -200 -40 callsubr
          endchar
        </CharString>
        <CharString name="guilsinglleft">
          -291 171 126 -40 callgsubr
          endchar
        </CharString>
        <CharString name="guilsinglright">
          -291 14 126 -40 callsubr
          endchar
        </CharString>
        <CharString name="h">
          14 hmoveto
          -75 callgsubr
          45 257 -69 callsubr
          endchar
        </CharString>
        <CharString name="hbar">
          14 hmoveto
          -75 callgsubr
          22 127 rlineto
          144 hlineto
          12 65 rlineto
          -144 hlineto
          11 65 -69 callsubr
          -12 -65 rlineto
          -63 hlineto
          -12 -65 rlineto
          64 hlineto
          endchar
        </CharString>
        <CharString name="hcircumflex">
          38 748 -101 callsubr
          -153 -883 rmoveto
          -75 callgsubr
          45 257 -69 callsubr
          endchar
        </CharString>
        <CharString name="hookabovecomb">
          -624 -148 591 rmoveto
          -100 callgsubr
          -48 callgsubr
          hvcurveto
          -13 hlineto
          endchar
        </CharString>
        <CharString name="house">
          -20 77 hmoveto
          450 310 hlineto
          -225 253 -225 -253 rlineto
          48 -261 rmoveto
          241 vlineto
          177 199 177 -199 rlineto
          -241 vlineto
          endchar
        </CharString>
        <CharString name="hungarumlaut">
          -291 8 591 -70 callsubr
          endchar
        </CharString>
        <CharString name="hyphen">
          -17 callsubr
        </CharString>
        <CharString name="i">
          -34 callgsubr
          endchar
        </CharString>
        <CharString name="i.loclTRK">
          -346 138 -45 callgsubr
          -129 -49 callgsubr
        </CharString>
        <CharString name="iacute">
          -346 125 591 -6 callsubr
          131 -38 callsubr
          -112 hlineto
          -204 -49 callgsubr
        </CharString>
        <CharString name="iacute_j.loclNLD">
          -107 137 591 -95 callgsubr
          156 -132 -95 callgsubr
          -479 -2 callsubr
          126 -708 -86 callsubr
        </CharString>
        <CharString name="ibreve">
          -346 185 -84 callsubr
          -157 -600 -65 callgsubr
        </CharString>
        <CharString name="icircumflex">
          -346 22 588 rmoveto
          101 hlineto
          69 76 44 -76 rlineto
          92 hlineto
          -82 135 rlineto
          -96 hlineto
          -122 -49 callgsubr
        </CharString>
        <CharString name="idieresis">
          -346 38 621 rmoveto
          96 hlineto
          18 102 rlineto
          -96 hlineto
          176 -102 rmoveto
          97 hlineto
          18 -48 callsubr
          -222 -49 callgsubr
        </CharString>
        <CharString name="igrave">
          -346 147 591 rmoveto
          82 hlineto
          -51 callsubr
          -105 -37 callsubr
          rlineto
          -34 -720 -65 callgsubr
        </CharString>
        <CharString name="ij">
          -146 -26 callsubr
          220 -106 -50 callgsubr
          -366 -2 callsubr
          102 -708 -86 callsubr
        </CharString>
        <CharString name="imacron">
          -346 31 639 rmoveto
          305 hlineto
          14 77 rlineto
          -305 hlineto
          -17 -716 -65 callgsubr
        </CharString>
        <CharString name="infinity">
          89 169 141 rmoveto
          69 54 43 52 52 hvcurveto
          -61 38 50 -34 66 hhcurveto
          95 74 81 105 74 -49 53 -78 -71 -55 -49 -46 -46 hvcurveto
          54 -35 -45 41 -73 hhcurveto
          -97 -75 -84 -101 -75 48 -53 78 hvcurveto
          15 75 rmoveto
          -35 -25 28 37 54 47 41 41 43 25 -30 -50 28 hvcurveto
          -43 -40 -40 -37 -44 hhcurveto
          316 hmoveto
          -41 -27 29 52 -30 hvcurveto
          48 47 35 31 42 hhcurveto
          35 24 -28 -37 -45 -37 -50 -48 hvcurveto
          endchar
        </CharString>
        <CharString name="integral">
          -350 -58 -141 rmoveto
          115 53 17 95 17 hvcurveto
          27 152 82 624 0 vvcurveto
          43 8 39 14 47 hhcurveto
          10 55 rlineto
          -115 -56 -18 -94 -16 hvcurveto
          -27 -153 -83 -621 0 vvcurveto
          -44 -7 -37 -14 -47 hhcurveto
          endchar
        </CharString>
        <CharString name="integralbt">
          -20 86 -250 rmoveto
          111 58 18 94 17 hvcurveto
          14 80 78 477 70 440 rrcurveto
          -86 hlineto
          -77 -478 -82 -519 0 vvcurveto
          -43 -7 -40 -14 -47 hhcurveto
          endchar
        </CharString>
        <CharString name="integraltp">
          -20 169 -250 rmoveto
          86 hlineto
          77 478 82 519 0 vvcurveto
          43 7 40 14 47 hhcurveto
          9 55 -56 callgsubr
          -58 -18 -94 -17 hvcurveto
          -14 -80 -78 -477 -70 -440 rrcurveto
          endchar
        </CharString>
        <CharString name="intersection">
          96 44 hmoveto
          79 hlineto
          72 411 rlineto
          105 18 97 83 109 hhcurveto
          90 62 -65 -89 -12 -1 -11 -2 -11 hvcurveto
          -72 -411 rlineto
          79 hlineto
          72 410 rlineto
          3 16 1 16 16 vvcurveto
          125 -97 93 -139 -140 -132 -113 -153 -27 vhcurveto
          endchar
        </CharString>
        <CharString name="iogonek">
          -346 157 723 rmoveto
          -19 -105 rlineto
          102 hlineto
          19 105 rlineto
          -231 -723 rmoveto
          1 hlineto
          -35 -26 -35 -35 -54 -57 callsubr
          30 -60 callgsubr
          endchar
        </CharString>
        <CharString name="itilde">
          -346 11 613 rmoveto
          -76 callsubr
          49 36 -33 54 hhcurveto
          63 34 51 59 11 hvcurveto
          -67 hlineto
          -25 -7 -13 -8 -16 -49 -36 33 -55 hhcurveto
          -62 -34 -51 -59 -10 hvcurveto
          17 -613 -65 callgsubr
        </CharString>
        <CharString name="j">
          -12 callsubr
          -171 -905 -86 callsubr
        </CharString>
        <CharString name="jcircumflex">
          -385 5 588 rmoveto
          101 hlineto
          69 76 44 -76 rlineto
          92 hlineto
          -82 135 rlineto
          -96 hlineto
          -164 -905 -86 callsubr
        </CharString>
        <CharString name="k">
          -54 callsubr
          77 437 -69 callsubr
          endchar
        </CharString>
        <CharString name="kcommaaccent">
          -54 callsubr
          77 437 -69 callsubr
          -2 -953 -79 callsubr
        </CharString>
        <CharString name="kgreenlandic">
          -54 callsubr
          42 240 -69 callsubr
          endchar
        </CharString>
        <CharString name="l">
          -385 -35 callgsubr
          endchar
        </CharString>
        <CharString name="lacute">
          -385 154 751 -95 callgsubr
          -248 -883 rmoveto
          103 -55 callsubr
          endchar
        </CharString>
        <CharString name="lcaron">
          -304 -35 callgsubr
          117 -248 rmoveto
          54 hlineto
          69 118 17 93 rlineto
          -101 -3 callgsubr
          38 hlineto
          endchar
        </CharString>
        <CharString name="lcommaaccent">
          -385 -35 callgsubr
          -168 -953 -79 callsubr
        </CharString>
        <CharString name="ldot">
          -315 -35 callgsubr
          79 -424 rmoveto
          -49 callsubr
          endchar
        </CharString>
        <CharString name="less">
          -40 482 3 rmoveto
          16 96 1 callgsubr
          -509 -197 -20 -114 rlineto
          endchar
        </CharString>
        <CharString name="lessequal">
          -75 477 124 rmoveto
          16 95 1 callgsubr
          -508 -197 -21 -113 rlineto
          -54 -320 -24 callgsubr
        </CharString>
        <CharString name="lira">
          -5 callsubr
          30 111 rlineto
          165 hlineto
          13 78 rlineto
          -164 hlineto
          13 69 rlineto
          164 hlineto
          14 78 rlineto
          -163 hlineto
          16 89 -42 callsubr
          -14 -74 rlineto
          -81 hlineto
          -14 -78 rlineto
          82 hlineto
          -13 -69 rlineto
          -81 hlineto
          -13 -78 rlineto
          81 hlineto
          -19 -111 rlineto
          -71 hlineto
          endchar
        </CharString>
        <CharString name="logicalnot">
          -40 421 196 -6 callsubr
          45 258 rlineto
          -481 hlineto
          -17 -95 rlineto
          393 hlineto
          endchar
        </CharString>
        <CharString name="longs">
          -346 -20 -20 callgsubr
          99 30 65 63 12 hvcurveto
          116 654 -81 callgsubr
          endchar
        </CharString>
        <CharString name="lozenge">
          -24 157 -132 rmoveto
          114 hlineto
          254 430 -102 429 rlineto
          -114 hlineto
          -255 -429 rlineto
          172 -340 rmoveto
          -72 332 199 347 73 -331 rlineto
          endchar
        </CharString>
        <CharString name="lslash">
          -385 16 hmoveto
          103 hlineto
          62 352 76 53 15 85 -77 -53 51 286 -69 callsubr
          -65 -365 -76 -54 -15 -85 77 54 rlineto
          endchar
        </CharString>
        <CharString name="m">
          226 14 hmoveto
          103 hlineto
          53 297 rlineto
          94 16 66 59 67 hhcurveto
          40 27 -15 -52 -11 -2 -13 -2 -14 hvcurveto
          -61 -345 rlineto
          103 hlineto
          53 297 rlineto
          94 16 64 59 67 hhcurveto
          40 29 -15 -53 -11 -2 -12 -2 -14 hvcurveto
          -61 -345 rlineto
          103 hlineto
          64 359 rlineto
          4 21 2 18 18 vvcurveto
          89 -57 33 -83 -64 -62 -32 -51 -42 vhcurveto
          -7 hlineto
          59 -15 -49 24 -65 hhcurveto
          -65 -56 -30 -53 -42 hvcurveto
          -29 callgsubr
          endchar
        </CharString>
        <CharString name="macron">
          -291 5 622 -73 callsubr
          endchar
        </CharString>
        <CharString name="minus">
          -40 45 211 -24 callgsubr
        </CharString>
        <CharString name="minute">
          -421 -13 callgsubr
          endchar
        </CharString>
        <CharString name="multiply">
          -40 105 41 rmoveto
          179 150 122 -147 69 60 -123 147 179 152 -55 68 -179 -152 -120 147 -69 -60 121 -147 -179 -150 rlineto
          endchar
        </CharString>
        <CharString name="n">
          14 hmoveto
          -87 callsubr
        </CharString>
        <CharString name="nacute">
          297 591 -95 callgsubr
          -390 -723 rmoveto
          -87 callsubr
        </CharString>
        <CharString name="nacute.loclPLK">
          290 591 -63 callsubr
          -323 -723 rmoveto
          -87 callsubr
        </CharString>
        <CharString name="napostrophe">
          12 28 475 rmoveto
          53 -11 callgsubr
          -9 -584 rmoveto
          -87 callsubr
        </CharString>
        <CharString name="ncaron">
          296 588 -94 callsubr
          -200 -723 rmoveto
          -87 callsubr
        </CharString>
        <CharString name="ncommaaccent">
          14 hmoveto
          -76 callgsubr
          41 -756 -79 callsubr
        </CharString>
        <CharString name="nine">
          -68 225 -12 rmoveto
          153 101 93 281 47 hvcurveto
          8 47 4 41 35 vvcurveto
          159 -82 54 -136 -141 -121 -108 -165 -106 59 -73 131 69 59 31 34 35 vhcurveto
          -146 -28 -42 -92 -113 hhcurveto
          -60 -28 32 58 12 1 13 2 14 hvcurveto
          -104 hlineto
          -3 -18 -2 -18 -17 vvcurveto
          -95 56 -66 135 vhcurveto
          46 341 rmoveto
          -74 -30 46 64 89 58 85 99 75 35 -45 -66 -95 -62 -78 -101 hvcurveto
          endchar
        </CharString>
        <CharString name="notequal">
          -75 72 25 rmoveto
          78 hlineto
          56 78 rlineto
          277 hlineto
          16 89 rlineto
          -230 hlineto
          87 123 rlineto
          165 hlineto
          16 90 rlineto
          -117 hlineto
          56 79 rlineto
          -78 hlineto
          -57 -79 rlineto
          -277 hlineto
          -16 -90 rlineto
          229 hlineto
          -87 -123 rlineto
          -163 hlineto
          -16 -89 rlineto
          116 hlineto
          endchar
        </CharString>
        <CharString name="ntilde">
          183 613 rmoveto
          -76 callsubr
          -103 callsubr
          -169 -613 rmoveto
          -87 callsubr
        </CharString>
        <CharString name="numbersign">
          -68 45 -12 rmoveto
          85 hlineto
          40 186 rlineto
          143 hlineto
          -40 -186 rlineto
          85 hlineto
          40 186 rlineto
          100 86 -82 hlineto
          31 145 rlineto
          96 86 -77 hlineto
          45 207 rlineto
          -86 hlineto
          -45 -207 rlineto
          -143 hlineto
          46 207 rlineto
          -86 hlineto
          -45 -207 rlineto
          -97 -86 79 hlineto
          -32 -145 rlineto
          -92 -86 74 hlineto
          104 86 rmoveto
          31 145 rlineto
          143 hlineto
          -32 -145 rlineto
          endchar
        </CharString>
        <CharString name="o">
          245 -12 -106 callgsubr
          endchar
        </CharString>
        <CharString name="oacute">
          272 591 -95 callgsubr
          -134 -735 -106 callgsubr
          endchar
        </CharString>
        <CharString name="oacute.loclPLK">
          265 591 -63 callsubr
          -67 -735 -106 callgsubr
          endchar
        </CharString>
        <CharString name="obreve">
          320 -84 callsubr
          -75 -612 -106 callgsubr
          endchar
        </CharString>
        <CharString name="ocircumflex">
          160 -75 callsubr
          -44 -735 -106 callgsubr
          endchar
        </CharString>
        <CharString name="odieresis">
          180 -65 callsubr
          -147 -735 -106 callgsubr
          endchar
        </CharString>
        <CharString name="oe">
          320 249 -12 rmoveto
          87 63 35 55 44 hvcurveto
          -61 36 67 -29 100 hhcurveto
          117 98 62 131 21 hvcurveto
          -101 hlineto
          -78 -13 -56 -32 -68 hhcurveto
          -87 -39 41 84 13 0 13 3 15 hvcurveto
          370 hlineto
          8 -19 callgsubr
          -74 62 -136 -90 -65 -35 -55 -46 vhcurveto
          61 -35 -66 29 -95 hhcurveto
          -209 -71 -178 -173 -136 78 -63 151 hvcurveto
          286 327 rmoveto
          90 24 52 50 86 hhcurveto
          64 42 -29 -73 -12 0 -13 -4 -13 hvcurveto
          -551 -242 rmoveto
          -83 -38 38 84 24 2 26 6 29 hvcurveto
          101 17 47 78 102 hhcurveto
          82 39 -38 -86 -26 -2 -27 -6 -31 hvcurveto
          -98 -18 -49 -74 -99 hhcurveto
          endchar
        </CharString>
        <CharString name="ogonek">
          -291 164 -44 callsubr
        </CharString>
        <CharString name="ograve">
          278 591 -83 callsubr
          52 -732 -106 callgsubr
          endchar
        </CharString>
        <CharString name="ohorn">
          531 686 -98 callgsubr
          endchar
        </CharString>
        <CharString name="ohungarumlaut">
          198 591 -70 callsubr
          -197 -735 -106 callgsubr
          endchar
        </CharString>
        <CharString name="omacron">
          174 622 -73 callsubr
          58 -711 -106 callgsubr
          endchar
        </CharString>
        <CharString name="one">
          -68 32 hmoveto
          434 hlineto
          -18 callgsubr
          -159 hlineto
          106 601 rlineto
          -46 hlineto
          -76 -39 -107 -30 -61 -6 -11 -63 rcurveline
          174 hlineto
          -82 -463 rlineto
          -172 hlineto
          endchar
        </CharString>
        <CharString name="oneeighth">
          210 57 -12 -53 callgsubr
          -673 -370 rmoveto
          234 hlineto
          11 62 -26 callgsubr
          -38 -19 -57 -16 -34 -3 -8 -45 rcurveline
          87 hlineto
          -38 -213 rlineto
          -86 hlineto
          551 -402 rmoveto
          89 51 55 65 30 -14 26 -26 -15 callsubr
          -35 38 -77 -80 -51 -47 callgsubr
          86 vhcurveto
          29 -11 callsubr
          24 20 36 0 callgsubr
          -30 -21 -31 hvcurveto
          -27 -160 rmoveto
          -34 -18 15 27 37 27 22 42 34 17 -14 -25 -41 -34 -21 -34 hvcurveto
          endchar
        </CharString>
        <CharString name="onehalf">
          210 52 -12 -53 callgsubr
          -663 -369 rmoveto
          234 hlineto
          10 -31 callsubr
          -37 -19 -57 -41 callgsubr
          409 -390 rmoveto
          254 hlineto
          10 62 rlineto
          -164 hlineto
          44 55 156 43 117 vvcurveto
          53 -36 36 -7 callgsubr
          6 19 -16 callgsubr
        </CharString>
        <CharString name="onequarter">
          210 49 -12 -53 callgsubr
          -663 -369 -13 callsubr
          -37 -19 -57 -41 callgsubr
          548 -390 -21 callsubr
          -15 -34 -14 -28 -14 -8 callsubr
          -78 hlineto
          -36 -89 -39 -76 -52 -67 -9 -55 rcurveline
          158 hlineto
          endchar
        </CharString>
        <CharString name="ordfeminine">
          -254 338 448 rmoveto
          7 40 203 13 70 vhcurveto
          -59 hlineto
          -20 -40 rlineto
          -4 hlineto
          33 -16 -28 15 -45 hhcurveto
          -98 -64 -104 -129 -86 43 -42 66 39 40 20 39 23 hvcurveto
          3 -8 hlineto
          -34 23 -17 34 22 16 6 4 8 vhcurveto
          8 45 rlineto
          -24 hlineto
          -12 -8 5 13 hvcurveto
          -151 -11 rmoveto
          -38 -17 25 45 82 30 85 70 42 19 -25 -46 -49 -28 -117 -78 hvcurveto
          endchar
        </CharString>
        <CharString name="ordmasculine">
          -259 210 374 rmoveto
          137 47 117 113 90 -51 42 -100 -137 -47 -118 -113 -89 51 -42 100 hvcurveto
          -1 61 rmoveto
          -50 -25 23 53 15 1 17 4 19 hvcurveto
          63 11 30 50 64 hhcurveto
          50 25 -24 -53 -14 -1 -15 -3 -18 hvcurveto
          -64 -10 -30 -52 -66 hhcurveto
          endchar
        </CharString>
        <CharString name="orthogonal">
          355 135 hmoveto
          625 hlineto
          13 73 rlineto
          -546 hlineto
          97 552 rlineto
          -78 hlineto
          endchar
        </CharString>
        <CharString name="oslash">
          -13 -1 -49 -72 callsubr
        </CharString>
        <CharString name="oslashacute">
          -13 308 591 -95 callgsubr
          -416 -772 -72 callsubr
        </CharString>
        <CharString name="otilde">
          158 613 rmoveto
          -76 callsubr
          -103 callsubr
          87 -625 -106 callgsubr
          endchar
        </CharString>
        <CharString name="p">
          -34 callsubr
          -69 63 -112 -63 -58 -29 -53 -41 hvcurveto
          -6 70 -80 hlineto
          158 -452 -33 callsubr
        </CharString>
        <CharString name="paragraph">
          -81 150 -168 rmoveto
          84 hlineto
          140 793 rlineto
          66 hlineto
          -140 -793 rlineto
          84 hlineto
          140 793 rlineto
          61 hlineto
          11 61 rlineto
          -286 hlineto
          -155 -112 -94 -168 -115 83 -56 98 hvcurveto
          endchar
        </CharString>
        <CharString name="parenleft">
          -291 153 -157 rmoveto
          68 hlineto
          -44 91 -28 117 118 vvcurveto
          204 98 204 131 158 vhcurveto
          -69 hlineto
          -166 -150 -96 -196 -207 vvcurveto
          -126 36 -116 70 -97 vhcurveto
          endchar
        </CharString>
        <CharString name="parenright">
          -291 -65 -157 rmoveto
          68 hlineto
          164 150 98 197 209 vvcurveto
          124 -36 117 -70 95 vhcurveto
          -68 hlineto
          44 -90 29 -116 -117 vvcurveto
          -201 -101 -210 -128 -158 vhcurveto
          endchar
        </CharString>
        <CharString name="partialdiff">
          -130 167 -12 rmoveto
          141 103 149 228 42 hvcurveto
          9 47 4 44 43 vvcurveto
          166 -86 70 -100 -48 -36 -13 -16 -29 vhcurveto
          -15 -83 rlineto
          18 28 36 16 46 hhcurveto
          76 35 -64 -106 -31 -3 -49 -11 -26 hvcurveto
          -4 hlineto
          26 -10 -34 42 -74 hhcurveto
          -98 -125 -116 -184 -91 48 -70 105 hvcurveto
          9 82 rmoveto
          -41 -21 33 53 110 72 107 67 53 26 -44 -36 4 hvcurveto
          -114 -28 -63 -109 -69 hhcurveto
          endchar
        </CharString>
        <CharString name="percent">
          265 222 337 rmoveto
          106 54 69 105 16 hvcurveto
          3 18 1 18 17 vvcurveto
          94 -51 40 -94 -101 -55 -63 -102 -18 vhcurveto
          -4 -21 -2 -22 -21 vvcurveto
          -93 51 -39 94 vhcurveto
          -133 -337 rmoveto
          92 hlineto
          620 -36 callsubr
          -93 hlineto
          -487 -283 rmoveto
          -40 -17 22 50 17 1 19 4 22 hvcurveto
          54 11 23 45 54 hhcurveto
          41 17 -22 -50 -16 -1 -17 -4 -22 hvcurveto
          -56 -10 -23 -46 -56 hhcurveto
          407 -415 rmoveto
          100 55 60 100 19 hvcurveto
          5 23 1 22 22 vvcurveto
          94 -51 40 -93 -98 -56 -59 -98 -19 vhcurveto
          -5 -24 -3 -25 -23 vvcurveto
          -93 52 -39 93 vhcurveto
          -1 66 rmoveto
          -40 -17 22 50 16 1 17 4 22 hvcurveto
          56 10 24 46 54 hhcurveto
          41 18 -22 -50 -16 -1 -17 -4 -22 hvcurveto
          -56 -11 -23 -46 -56 hhcurveto
          endchar
        </CharString>
        <CharString name="period">
          -346 29 hmoveto
          -49 callsubr
          endchar
        </CharString>
        <CharString name="periodcentered">
          -291 108 299 rmoveto
          -49 callsubr
          endchar
        </CharString>
        <CharString name="perthousand">
          376 173 340 rmoveto
          95 49 65 102 17 hvcurveto
          3 21 1 20 19 vvcurveto
          92 -46 38 -85 -89 -50 -56 -96 -18 vhcurveto
          -6 -25 -3 -26 -25 vvcurveto
          -90 46 -39 86 vhcurveto
          -122 -340 rmoveto
          81 hlineto
          497 -36 callsubr
          -83 hlineto
          -374 -280 rmoveto
          -32 -16 20 47 18 1 19 5 23 hvcurveto
          55 11 20 44 45 hhcurveto
          34 15 -21 -47 -14 -1 -15 -3 -20 hvcurveto
          -59 -8 -21 -50 -50 hhcurveto
          300 -418 rmoveto
          97 49 68 105 15 hvcurveto
          3 19 1 18 17 vvcurveto
          92 -46 38 -85 -92 -49 -59 -99 -18 vhcurveto
          -5 -24 -2 -24 -22 vvcurveto
          -90 46 -39 86 vhcurveto
          323 hmoveto
          92 49 60 98 19 hvcurveto
          4 24 2 23 22 vvcurveto
          92 -46 38 -86 -95 -50 -65 -104 -15 vhcurveto
          -4 -21 -1 -19 -19 vvcurveto
          -90 46 -39 85 vhcurveto
          -324 65 rmoveto
          -32 -16 21 47 17 1 20 5 23 hvcurveto
          54 10 21 45 45 hhcurveto
          34 15 -21 -47 -14 -1 -14 -3 -19 hvcurveto
          -60 -8 -20 -52 -51 hhcurveto
          323 hmoveto
          -32 -15 21 47 15 1 15 3 21 hvcurveto
          58 9 21 50 48 hhcurveto
          34 14 -21 -47 -16 -1 -17 -3 -22 hvcurveto
          -56 -9 -21 -48 -49 hhcurveto
          endchar
        </CharString>
        <CharString name="peseta">
          470 563 -11 rmoveto
          24 31 6 8 18 hvcurveto
          10 55 rlineto
          -42 22 54 -28 91 hhcurveto
          108 106 53 132 hvcurveto
          165 -235 -49 94 vvcurveto
          28 21 44 71 50 20 -26 -33 -5 0 -6 -3 -11 vhcurveto
          98 hlineto
          2 6 5 23 16 vvcurveto
          69 -59 50 -106 -31 -28 -4 -8 -26 vhcurveto
          -158 hlineto
          34 146 rlineto
          -107 hlineto
          -27 -146 rlineto
          -36 hlineto
          99 -5 -62 61 -133 hhcurveto
          -176 hlineto
          -121 -686 rlineto
          -28 callsubr
          45 255 rlineto
          86 hlineto
          130 85 72 114 31 hvcurveto
          30 hlineto
          -57 -321 rlineto
          -3 -17 -2 -16 -10 vvcurveto
          -48 23 -40 70 vhcurveto
          -376 361 rmoveto
          42 241 rlineto
          73 hlineto
          67 33 -32 -57 -93 -62 -59 -77 hvcurveto
          553 -280 rmoveto
          -47 -37 20 49 5 0 5 3 16 hvcurveto
          -95 hlineto
          -5 -16 -3 -20 -13 vvcurveto
          -15 3 -15 6 -13 vhcurveto
          -29 hlineto
          -25 -12 11 21 4 1 8 4 26 hvcurveto
          53 298 rlineto
          75 hlineto
          -13 -21 -11 -29 -25 -158 234 49 -105 vvcurveto
          -56 -52 -26 -50 vhcurveto
          endchar
        </CharString>
        <CharString name="pi">
          89 45 hmoveto
          107 hlineto
          55 87 73 229 32 125 rrcurveto
          185 hlineto
          -52 -294 rlineto
          -8 -48 -4 -37 -26 vvcurveto
          -17 2 -13 3 -6 vhcurveto
          101 hlineto
          -2 9 -1 11 13 vvcurveto
          28 5 39 10 56 vhcurveto
          50 285 rlineto
          99 hlineto
          25 85 rlineto
          -469 hlineto
          -100 -60 -11 -19 -33 hvcurveto
          4 -68 rlineto
          9 28 35 4 73 hhcurveto
          -26 -125 -72 -212 -60 -104 rrcurveto
          endchar
        </CharString>
        <CharString name="plus">
          -40 197 hmoveto
          94 hlineto
          37 210 rlineto
          190 hlineto
          16 90 rlineto
          -190 hlineto
          38 211 rlineto
          -94 hlineto
          -37 -5 callgsubr
          endchar
        </CharString>
        <CharString name="plusminus">
          -75 195 134 rmoveto
          93 hlineto
          36 210 rlineto
          190 hlineto
          16 90 rlineto
          -190 hlineto
          38 211 rlineto
          -93 hlineto
          -38 -5 callgsubr
          -249 -344 rmoveto
          471 hlineto
          17 89 rlineto
          -472 hlineto
          endchar
        </CharString>
        <CharString name="product">
          199 58 -128 rmoveto
          -28 callsubr
          134 757 rlineto
          327 hlineto
          -133 -757 rlineto
          109 hlineto
          134 757 rlineto
          97 hlineto
          18 94 rlineto
          -741 hlineto
          -18 -94 rlineto
          96 hlineto
          endchar
        </CharString>
        <CharString name="q">
          315 -173 rmoveto
          103 hlineto
          123 699 rlineto
          -82 hlineto
          -22 -70 rlineto
          -6 hlineto
          54 -28 -57 28 -73 hhcurveto
          -162 -91 -162 -192 -135 67 -61 104 68 52 27 45 39 hvcurveto
          6 -21 callgsubr
          15 rmoveto
          -70 -32 33 81 130 48 133 121 71 32 -43 -80 -116 -53 -138 -117 hvcurveto
          endchar
        </CharString>
        <CharString name="question">
          202 185 rmoveto
          98 hlineto
          7 37 rlineto
          19 110 216 13 197 vvcurveto
          99 -77 57 -123 -166 -100 -105 -134 -2 vhcurveto
          104 hlineto
          28 17 121 139 81 15 -46 -34 vhcurveto
          -1 -130 -192 -6 -26 -155 rrcurveto
          -45 -237 -27 callsubr
        </CharString>
        <CharString name="questiondown">
          -13 292 409 -1 callgsubr
          -64 -698 rmoveto
          165 100 105 134 3 hvcurveto
          -104 hlineto
          -28 -18 -121 -139 -80 -15 46 34 130 192 6 27 155 vhcurveto
          9 52 rlineto
          -99 hlineto
          -6 -37 rlineto
          -19 -110 -217 -13 -197 vvcurveto
          -99 77 -57 124 vhcurveto
          endchar
        </CharString>
        <CharString name="quotedbl">
          -233 84 408 rmoveto
          68 hlineto
          47 -30 callsubr
          180 -132 rmoveto
          67 hlineto
          48 -30 callsubr
          endchar
        </CharString>
        <CharString name="quotedblbase">
          -240 -43 callgsubr
          105 -141 rmoveto
          58 hlineto
          81 151 18 107 -74 callgsubr
          -21 -117 rlineto
          44 hlineto
          endchar
        </CharString>
        <CharString name="quotedblleft">
          -240 56 428 -22 callgsubr
          -44 hlineto
          69 -14 callgsubr
          155 -107 rmoveto
          -25 callgsubr
          21 117 rlineto
          -44 hlineto
          69 -14 callgsubr
          endchar
        </CharString>
        <CharString name="quotedblright">
          -240 -25 callsubr
          105 -141 rmoveto
          58 hlineto
          80 151 19 -7 callsubr
        </CharString>
        <CharString name="quoteleft">
          -385 84 428 rmoveto
          -2 callgsubr
          21 117 rlineto
          -45 hlineto
          70 -14 callgsubr
          endchar
        </CharString>
        <CharString name="quotereversed">
          -385 109 435 rmoveto
          58 hlineto
          -21 134 rlineto
          45 hlineto
          20 117 -74 callgsubr
          -20 -107 rlineto
          endchar
        </CharString>
        <CharString name="quoteright">
          -385 -25 callsubr
          endchar
        </CharString>
        <CharString name="quotesinglbase">
          -385 -43 callgsubr
          endchar
        </CharString>
        <CharString name="quotesingle">
          -419 84 408 rmoveto
          68 hlineto
          47 -30 callsubr
          endchar
        </CharString>
        <CharString name="r">
          -42 callgsubr
          endchar
        </CharString>
        <CharString name="racute">
          -274 186 591 -95 callgsubr
          -279 -723 rmoveto
          -80 callsubr
          endchar
        </CharString>
        <CharString name="radical">
          -75 204 -148 rmoveto
          93 hlineto
          339 1005 rlineto
          -73 hlineto
          -289 -871 -3 26 -3 30 -6 31 rlinecurve
          -61 319 -177 -69 10 -66 80 29 rlineto
          endchar
        </CharString>
        <CharString name="rcaron">
          -274 185 588 -94 callsubr
          -89 -723 rmoveto
          -80 callsubr
          endchar
        </CharString>
        <CharString name="rcommaaccent">
          -42 callgsubr
          -134 -756 -79 callsubr
        </CharString>
        <CharString name="registered">
          -57 callgsubr
          -145 98 rmoveto
          71 159 107 hlineto
          80 -159 rlineto
          75 hlineto
          -87 171 rlineto
          48 19 23 43 55 vvcurveto
          73 -42 51 -85 vhcurveto
          -190 hlineto
          71 -194 rmoveto
          135 109 vlineto
          42 23 -23 -42 -45 -26 -25 -39 hvcurveto
          endchar
        </CharString>
        <CharString name="revlogicalnot">
          -40 35 196 rmoveto
          88 hlineto
          29 163 rlineto
          393 -54 callgsubr
          -482 hlineto
          endchar
        </CharString>
        <CharString name="ring">
          -291 154 563 -70 callgsubr
          endchar
        </CharString>
        <CharString name="s">
          -61 callsubr
          endchar
        </CharString>
        <CharString name="sacute">
          -107 262 591 -95 callgsubr
          -149 -735 -97 callsubr
          endchar
        </CharString>
        <CharString name="sacute.loclPLK">
          -107 255 591 -63 callsubr
          -82 -735 -97 callsubr
          endchar
        </CharString>
        <CharString name="scaron">
          -107 261 588 -94 callsubr
          41 -735 -97 callsubr
          endchar
        </CharString>
        <CharString name="scedilla">
          -107 475 374 rmoveto
          2 4 5 21 17 vvcurveto
          71 -72 51 -126 -127 -98 -64 -109 vhcurveto
          -162 285 52 -108 vvcurveto
          -52 -63 -25 -65 -60 -48 21 51 3 1 11 2 9 vhcurveto
          -101 hlineto
          0 -7 -22 -22 vvcurveto
          -66 52 -54 119 -11 vhcurveto
          -24 -67 -64 callsubr
          8 24 rlineto
          112 6 100 54 125 169 -287 -51 95 vvcurveto
          28 27 40 90 67 26 -27 -35 -6 -1 -7 -1 -6 vhcurveto
          endchar
        </CharString>
        <CharString name="scircumflex">
          -107 150 -75 callsubr
          -59 -735 -97 callsubr
          endchar
        </CharString>
        <CharString name="scommaaccent">
          -61 callsubr
          -100 -218 -79 callsubr
        </CharString>
        <CharString name="second">
          -232 -13 callgsubr
          101 -174 rmoveto
          90 hlineto
          84 170 -1 4 -77 callsubr
          endchar
        </CharString>
        <CharString name="section">
          -68 202 -20 callgsubr
          146 100 66 113 48 -25 32 -33 25 hvcurveto
          65 32 54 53 73 174 -298 -12 111 vvcurveto
          23 18 59 110 73 27 -28 -34 -4 0 -5 -2 -10 vhcurveto
          106 hlineto
          3 6 4 21 14 vvcurveto
          71 -73 52 -130 -147 -98 -66 -112 -49 23 -33 34 -25 vhcurveto
          -65 -32 -54 -54 -73 -173 298 12 -111 vvcurveto
          -21 -17 -61 -111 -73 -26 27 36 4 0 4 2 11 vhcurveto
          -106 hlineto
          -3 -6 -4 -20 -14 vvcurveto
          -72 72 -52 130 vhcurveto
          125 322 rmoveto
          -86 36 -94 26 76 vvcurveto
          44 27 32 48 21 vhcurveto
          86 -37 94 -25 -76 vvcurveto
          -44 -28 -32 -47 -21 vhcurveto
          endchar
        </CharString>
        <CharString name="semicolon">
          -329 109 409 rmoveto
          -49 callsubr
          -118 -667 rmoveto
          58 hlineto
          81 151 18 -7 callsubr
        </CharString>
        <CharString name="seven">
          -68 84 hmoveto
          121 hlineto
          3 18 2 14 3 16 48 238 171 192 147 143 11 65 rcurveline
          -488 hlineto
          -17 -96 rlineto
          344 hlineto
          -138 -142 -166 -216 -41 -232 rrcurveto
          endchar
        </CharString>
        <CharString name="seveneighths">
          210 18 -12 -53 callgsubr
          -573 -371 rmoveto
          79 hlineto
          12 123 89 106 86 84 8 46 rcurveline
          -261 hlineto
          -11 -62 rlineto
          174 hlineto
          -73 -73 -81 -103 -22 -121 rrcurveto
          475 2 callgsubr
          -26 16 hvcurveto
          38 21 22 34 36 vvcurveto
          50 -36 38 -77 -79 -52 -47 callgsubr
          86 vhcurveto
          30 219 rmoveto
          -28 -15 14 24 35 24 20 35 0 callgsubr
          -29 -21 -31 hvcurveto
          -28 -15 callgsubr
          -33 -21 -35 hvcurveto
          endchar
        </CharString>
        <CharString name="six">
          -68 242 -12 rmoveto
          140 121 108 165 106 -59 73 -130 -70 -59 -31 -34 -35 hvcurveto
          146 29 42 92 112 hhcurveto
          60 28 -32 -58 -12 -1 -13 -2 -14 hvcurveto
          104 hlineto
          3 18 2 18 17 vvcurveto
          95 -56 66 -134 -154 -101 -93 -281 -46 vhcurveto
          -8 -47 -4 -41 -35 vvcurveto
          -159 81 -54 137 vhcurveto
          -5 85 rmoveto
          -75 -34 45 66 95 62 78 100 75 29 -46 -64 -89 -58 -85 -99 hvcurveto
          endchar
        </CharString>
        <CharString name="slash">
          -346 -68 -49 rmoveto
          78 hlineto
          336 784 rlineto
          -78 hlineto
          endchar
        </CharString>
        <CharString name="space">
          -346 endchar
        </CharString>
        <CharString name="sterling">
          -5 callsubr
          49 208 rlineto
          163 hlineto
          14 85 rlineto
          -162 hlineto
          24 132 -42 callsubr
          -21 -117 rlineto
          -86 hlineto
          -14 -85 rlineto
          86 hlineto
          -37 -208 rlineto
          -71 hlineto
          endchar
        </CharString>
        <CharString name="summation">
          89 -37 -128 rmoveto
          630 hlineto
          19 99 rlineto
          -482 hlineto
          1 4 349 335 -225 317 rlineto
          4 454 vlineto
          16 92 rlineto
          -602 hlineto
          -14 -81 240 -339 -372 -357 rlineto
          endchar
        </CharString>
        <CharString name="t">
          -329 143 -11 -80 callgsubr
          endchar
        </CharString>
        <CharString name="tbar">
          -329 292 441 rmoveto
          16 85 rlineto
          -90 hlineto
          34 147 -74 callgsubr
          -26 -147 rlineto
          -64 hlineto
          -15 -85 rlineto
          64 hlineto
          -20 -116 rlineto
          -65 hlineto
          -11 -65 rlineto
          64 hlineto
          -19 -108 rlineto
          -6 -37 -4 -24 -13 vvcurveto
          -48 25 -41 79 22 32 6 8 19 vhcurveto
          12 70 rlineto
          -49 hlineto
          -23 -11 11 21 4 1 11 1 7 hvcurveto
          24 133 rlineto
          89 hlineto
          12 65 rlineto
          -90 hlineto
          21 116 rlineto
          endchar
        </CharString>
        <CharString name="tcaron">
          -217 342 501 rmoveto
          53 hlineto
          69 117 17 94 rlineto
          -101 -3 callgsubr
          40 hlineto
          -259 -621 -80 callgsubr
          endchar
        </CharString>
        <CharString name="thorn">
          -34 callsubr
          -68 63 -112 -59 -54 -26 -46 -39 hvcurveto
          -5 hlineto
          46 261 -69 callsubr
          123 -653 -33 callsubr
        </CharString>
        <CharString name="three">
          -68 243 -12 rmoveto
          143 117 85 138 74 -41 47 -59 20 hvcurveto
          1 4 rlineto
          77 31 65 50 100 vvcurveto
          104 -83 57 -129 -124 -107 -73 -123 -17 vhcurveto
          -2 -13 rlineto
          104 hlineto
          2 12 rlineto
          62 7 53 50 84 hhcurveto
          58 46 -25 -59 -94 -76 -44 -73 hvcurveto
          -69 hlineto
          -15 -85 rlineto
          66 hlineto
          67 60 -18 -71 -100 -75 -44 -87 -76 -42 31 59 12 2 15 3 15 hvcurveto
          -104 hlineto
          -5 -22 -1 -17 -13 vvcurveto
          -101 78 -64 152 vhcurveto
          endchar
        </CharString>
        <CharString name="threeeighths">
          210 50 -12 -53 callgsubr
          -536 -371 rmoveto
          74 65 46 72 34 -17 24 -29 15 hvcurveto
          2 vlineto
          40 18 27 26 47 vvcurveto
          57 -45 30 -70 -66 -10 callgsubr
          -3 -17 rlineto
          70 hlineto
          1 11 rlineto
          34 6 27 15 29 hhcurveto
          26 -39 callgsubr
          -70 hlineto
          -3 -15 -1 -13 -8 vvcurveto
          -54 43 -33 80 vhcurveto
          433 2 callgsubr
          -27 -15 callsubr
          -35 38 -77 -79 -52 -47 callgsubr
          86 vhcurveto
          29 -11 callsubr
          25 20 35 0 callgsubr
          -29 -21 -32 hvcurveto
          -27 -15 callgsubr
          -34 -21 -34 hvcurveto
          endchar
        </CharString>
        <CharString name="threequarters">
          210 59 -12 -53 callgsubr
          -535 -371 rmoveto
          74 64 46 72 34 -17 24 -29 15 hvcurveto
          1 2 rlineto
          39 18 28 -20 callsubr
          2 11 rlineto
          34 5 27 15 30 hhcurveto
          25 20 -10 -27 -38 -34 -18 -33 hvcurveto
          -30 hlineto
          -11 -60 rlineto
          31 hlineto
          30 26 -9 -30 -43 -33 -18 -37 -32 callsubr
          -1 -13 -8 vvcurveto
          -54 43 -33 81 vhcurveto
          427 -327 -21 callsubr
          -14 -34 -14 -28 -15 -8 callsubr
          -77 hlineto
          -37 -89 -39 -76 -51 -67 -10 -55 rcurveline
          159 hlineto
          endchar
        </CharString>
        <CharString name="tilde">
          -291 -8 613 rmoveto
          -76 callsubr
          -103 callsubr
          endchar
        </CharString>
        <CharString name="trademark">
          376 188 282 rmoveto
          70 hlineto
          60 339 rlineto
          140 hlineto
          11 66 rlineto
          -351 hlineto
          -11 -66 rlineto
          141 hlineto
          201 -340 rmoveto
          64 hlineto
          57 320 rlineto
          4 hlineto
          51 -320 rlineto
          67 hlineto
          166 321 rlineto
          3 hlineto
          -56 -321 rlineto
          70 hlineto
          71 406 -74 callgsubr
          -158 -312 rlineto
          -5 hlineto
          -48 312 rlineto
          -104 hlineto
          endchar
        </CharString>
        <CharString name="two">
          -68 -14 hmoveto
          473 hlineto
          17 96 rlineto
          -341 hlineto
          7 10 10 11 13 13 rrcurveto
          118 107 264 91 203 vvcurveto
          101 -65 66 -137 -132 -128 -68 -180 -10 vhcurveto
          103 hlineto
          8 41 rlineto
          69 14 42 51 96 hhcurveto
          76 26 -39 -39 -200 -409 -69 -40 -233 hvcurveto
          endchar
        </CharString>
        <CharString name="u">
          190 -12 -104 callsubr
          endchar
        </CharString>
        <CharString name="uacute">
          286 591 -95 callgsubr
          -203 -735 -104 callsubr
          endchar
        </CharString>
        <CharString name="ubreve">
          334 -84 callsubr
          -144 -612 -104 callsubr
          endchar
        </CharString>
        <CharString name="ucircumflex">
          174 -75 callsubr
          -113 -735 -104 callsubr
          endchar
        </CharString>
        <CharString name="udieresis">
          194 -65 callsubr
          -216 -735 -104 callsubr
          endchar
        </CharString>
        <CharString name="ugrave">
          292 591 -83 callsubr
          -17 -732 -104 callsubr
          endchar
        </CharString>
        <CharString name="uhorn">
          -89 callsubr
          endchar
        </CharString>
        <CharString name="uhungarumlaut">
          212 591 -70 callsubr
          -266 -735 -104 callsubr
          endchar
        </CharString>
        <CharString name="umacron">
          188 622 -73 callsubr
          -11 -711 -104 callsubr
          endchar
        </CharString>
        <CharString name="underscore">
          -68 -70 -135 rmoveto
          555 hlineto
          11 67 rlineto
          -556 hlineto
          endchar
        </CharString>
        <CharString name="underscoredbl">
          -72 -65 -133 rmoveto
          551 hlineto
          12 65 rlineto
          -551 hlineto
          -31 -178 rmoveto
          551 hlineto
          11 65 rlineto
          -550 hlineto
          endchar
        </CharString>
        <CharString name="uni00A0">
          -346 endchar
        </CharString>
        <CharString name="uni00AD">
          -17 callsubr
        </CharString>
        <CharString name="uni00B2">
          -291 35 333 rmoveto
          253 hlineto
          11 62 rlineto
          -164 hlineto
          44 0 callsubr
          -7 callgsubr
          5 20 -16 callgsubr
        </CharString>
        <CharString name="uni00B3">
          -291 173 327 rmoveto
          74 64 46 72 34 -16 24 -30 15 hvcurveto
          2 vlineto
          41 18 27 -20 callsubr
          1 11 rlineto
          34 6 27 15 30 hhcurveto
          25 -39 callgsubr
          -69 hlineto
          -4 -15 -1 -13 -8 vvcurveto
          -54 43 -33 81 vhcurveto
          endchar
        </CharString>
        <CharString name="uni00B5">
          -51 callgsubr
        </CharString>
        <CharString name="uni00B9">
          -291 51 329 -38 callgsubr
          endchar
        </CharString>
        <CharString name="uni0162">
          -13 83 686 rmoveto
          -17 -96 -9 callsubr
          -103 -590 rlineto
          19 hlineto
          -27 -77 -64 callsubr
          12 35 rlineto
          22 hlineto
          104 590 -9 callsubr
          18 96 rlineto
          endchar
        </CharString>
        <CharString name="uni0163">
          -329 203 441 -6 callsubr
          16 85 rlineto
          -90 hlineto
          34 147 -74 callgsubr
          -26 -147 rlineto
          -64 hlineto
          -15 -85 rlineto
          64 hlineto
          -51 -289 rlineto
          -6 -37 -4 -24 -13 vvcurveto
          -28 8 -25 22 -16 vhcurveto
          -30 -86 -64 callsubr
          8 24 rlineto
          12 hlineto
          22 32 6 8 19 hvcurveto
          12 70 rlineto
          -49 hlineto
          -23 -11 11 21 4 1 11 1 7 hvcurveto
          endchar
        </CharString>
        <CharString name="uni018F">
          134 332 -12 rmoveto
          122 92 33 69 64 hvcurveto
          74 77 44 148 112 vvcurveto
          172 -110 99 -183 -95 -75 -16 -33 -58 vhcurveto
          -71 -40 -44 -65 -16 -92 rrcurveto
          107 hlineto
          104 18 82 50 134 hhcurveto
          127 72 -55 -121 -17 -1 -19 -3 -21 hvcurveto
          -550 hlineto
          -10 -57 rlineto
          -5 -28 -3 -27 -25 vvcurveto
          -157 104 -91 184 vhcurveto
          16 92 rmoveto
          -116 -76 42 108 15 1 17 3 18 hvcurveto
          432 hlineto
          -142 -39 -73 -58 -132 hhcurveto
          endchar
        </CharString>
        <CharString name="uni019D">
          98 -26 -20 callgsubr
          96 29 64 63 11 hvcurveto
          83 467 15 95 5 1 11 -19 15 -31 15 -28 rlinecurve
          234 -430 rlineto
          99 -35 callsubr
          686 -29 callsubr
          -77 -440 -3 -18 -4 -28 -3 -15 rlinecurve
          -4 hlineto
          -6 10 -12 24 -8 16 -248 451 rcurveline
          -102 hlineto
          -130 -739 rlineto
          -30 -5 -18 -17 -30 hhcurveto
          -45 -24 callsubr
        </CharString>
        <CharString name="uni01C4">
          709 1057 733 -94 callsubr
          -960 -868 rmoveto
          -64 callgsubr
        </CharString>
        <CharString name="uni01C5">
          598 981 588 -94 callsubr
          -884 -723 rmoveto
          -83 callgsubr
          403 -95 rmoveto
          -85 callsubr
          endchar
        </CharString>
        <CharString name="uni01C6">
          449 -79 callgsubr
          630 600 -94 callsubr
          -203 -723 rmoveto
          -85 callsubr
          -324 24 -32 callgsubr
        </CharString>
        <CharString name="uni01C7">
          466 15 hmoveto
          -59 callgsubr
          624 -698 -84 callgsubr
        </CharString>
        <CharString name="uni01C8">
          188 694 -45 callsubr
          -698 -723 rmoveto
          -59 callgsubr
          406 -868 -86 callsubr
        </CharString>
        <CharString name="uni01C9">
          -146 -35 callgsubr
          220 -106 -50 callgsubr
          -171 -905 -86 callsubr
        </CharString>
        <CharString name="uni01CA">
          615 -53 callsubr
          773 -698 -84 callgsubr
        </CharString>
        <CharString name="uni01CB">
          337 843 -45 callsubr
          -847 -723 rmoveto
          -96 callsubr
          555 -868 -86 callsubr
        </CharString>
        <CharString name="uni01CC">
          188 694 -45 callsubr
          -699 -723 rmoveto
          -76 callgsubr
          435 -708 -86 callsubr
        </CharString>
        <CharString name="uni01CD">
          60 376 733 -94 callsubr
          -339 -868 -102 callgsubr
        </CharString>
        <CharString name="uni01CE">
          -57 358 588 rmoveto
          129 135 rlineto
          -102 hlineto
          -67 -76 -45 76 rlineto
          -93 hlineto
          82 -135 rlineto
          191 -62 callsubr
          endchar
        </CharString>
        <CharString name="uni01CF">
          -346 161 733 -94 callsubr
          -55 -868 -73 callgsubr
        </CharString>
        <CharString name="uni01D0">
          -346 136 588 -94 callsubr
          -26 -49 callgsubr
        </CharString>
        <CharString name="uni01D1">
          154 394 733 -94 callsubr
          26 -879 -107 callsubr
          endchar
        </CharString>
        <CharString name="uni01D2">
          271 588 -94 callsubr
          56 -735 -106 callgsubr
          endchar
        </CharString>
        <CharString name="uni01D3">
          98 387 733 -94 callsubr
          15 -880 -104 callgsubr
          endchar
        </CharString>
        <CharString name="uni01D4">
          285 588 -94 callsubr
          -13 -735 -104 callsubr
          endchar
        </CharString>
        <CharString name="uni01D5">
          98 320 934 -73 callsubr
          -37 -245 -92 callgsubr
          -188 -880 -104 callgsubr
          endchar
        </CharString>
        <CharString name="uni01D6">
          218 789 -73 callsubr
          -37 -245 -92 callgsubr
          -216 -735 -104 callsubr
          endchar
        </CharString>
        <CharString name="uni01D7">
          98 418 903 -95 callgsubr
          -229 -269 -92 callgsubr
          -188 -880 -104 callgsubr
          endchar
        </CharString>
        <CharString name="uni01D8">
          316 758 -95 callgsubr
          -229 -269 -92 callgsubr
          -216 -735 -104 callsubr
          endchar
        </CharString>
        <CharString name="uni01D9">
          98 417 900 -94 callsubr
          -39 -269 -92 callgsubr
          -188 -880 -104 callgsubr
          endchar
        </CharString>
        <CharString name="uni01DA">
          315 755 -94 callsubr
          -39 -269 -92 callgsubr
          -216 -735 -104 callsubr
          endchar
        </CharString>
        <CharString name="uni01DB">
          98 424 903 -83 callsubr
          -43 -266 -92 callgsubr
          -188 -880 -104 callgsubr
          endchar
        </CharString>
        <CharString name="uni01DC">
          322 758 -83 callsubr
          -43 -266 -92 callgsubr
          -216 -735 -104 callsubr
          endchar
        </CharString>
        <CharString name="uni01EA">
          154 440 698 rmoveto
          -219 -140 -126 -222 -37 hvcurveto
          -5 -30 -3 -31 -33 vvcurveto
          -172 112 -95 190 16 15 1 1 15 vhcurveto
          -26 -24 -23 -31 -43 -57 callsubr
          1 vlineto
          140 44 89 115 28 172 rrcurveto
          5 30 3 31 31 vvcurveto
          171 -112 95 -190 vhcurveto
          180 -353 rmoveto
          -174 -30 -94 -88 -159 hhcurveto
          -119 -68 66 111 25 2 25 6 34 hvcurveto
          173 30 94 87 159 hhcurveto
          119 1 68 -65 -111 vvcurveto
          -26 -2 -25 -6 -33 vhcurveto
          endchar
        </CharString>
        <CharString name="uni01EB">
          306 538 rmoveto
          -161 -90 -89 -172 -27 hvcurveto
          -3 -28 -2 -26 -24 vvcurveto
          -130 1 85 -81 136 hhcurveto
          8 8 0 1 8 hvcurveto
          -26 -24 -21 -30 -42 -57 callsubr
          1 vlineto
          88 35 52 81 19 124 rrcurveto
          4 29 3 26 25 vvcurveto
          -39 callsubr
          -86 80 -137 hhcurveto
          117 -272 rmoveto
          -19 -134 -53 -59 -100 1 -82 -1 -43 43 -2 75 rrcurveto
          20 1 24 4 25 vhcurveto
          134 19 53 59 100 hhcurveto
          82 43 -42 -76 2 hvcurveto
          -20 -2 -24 -3 -25 vhcurveto
          endchar
        </CharString>
        <CharString name="uni01F1">
          709 15 hmoveto
          -64 callgsubr
        </CharString>
        <CharString name="uni01F2">
          598 15 hmoveto
          -83 callgsubr
          403 -95 rmoveto
          -85 callsubr
          endchar
        </CharString>
        <CharString name="uni01F3">
          449 -79 callgsubr
          345 12 rmoveto
          -85 callsubr
          -324 24 -32 callgsubr
        </CharString>
        <CharString name="uni01F4">
          154 615 865 -61 callgsubr
          241 -284 -101 callgsubr
          endchar
        </CharString>
        <CharString name="uni01F5">
          267 591 -95 callgsubr
          -176 -905 -102 callsubr
        </CharString>
        <CharString name="uni0200">
          60 323 736 -87 callgsubr
          -450 -865 -102 callgsubr
        </CharString>
        <CharString name="uni0201">
          -57 294 591 rmoveto
          -43 -37 callgsubr
          -108 hlineto
          -2 -3 68 -129 rlineto
          235 hmoveto
          -43 -37 callgsubr
          -108 hlineto
          -2 -3 68 -129 rlineto
          94 -491 -105 callgsubr
        </CharString>
        <CharString name="uni0202">
          60 275 745 -91 callgsubr
          -320 -82 callsubr
          endchar
        </CharString>
        <CharString name="uni0203">
          -57 320 651 rmoveto
          59 14 -30 -21 -1 hvcurveto
          70 hlineto
          1 6 1 6 6 vvcurveto
          53 -39 52 -92 -124 -38 -65 -58 -10 vhcurveto
          70 hlineto
          21 8 23 30 58 hhcurveto
          133 -551 -105 callgsubr
        </CharString>
        <CharString name="uni0204">
          43 316 736 -87 callgsubr
          -383 -865 rmoveto
          -99 callgsubr
          endchar
        </CharString>
        <CharString name="uni0205">
          -68 215 591 -87 callgsubr
          -44 -732 -106 callsubr
          endchar
        </CharString>
        <CharString name="uni0206">
          43 268 745 -91 callgsubr
          -253 -745 rmoveto
          -99 callgsubr
          endchar
        </CharString>
        <CharString name="uni0207">
          -68 167 600 -91 callgsubr
          86 -612 -106 callsubr
          endchar
        </CharString>
        <CharString name="uni0208">
          -346 108 736 -87 callgsubr
          -166 -865 -73 callgsubr
        </CharString>
        <CharString name="uni0209">
          -346 83 591 -87 callgsubr
          -137 -720 -65 callgsubr
        </CharString>
        <CharString name="uni020A">
          -346 60 745 -91 callgsubr
          -36 -745 -73 callgsubr
        </CharString>
        <CharString name="uni020B">
          -346 35 600 -91 callgsubr
          -7 -600 -65 callgsubr
        </CharString>
        <CharString name="uni020C">
          154 341 736 -87 callgsubr
          -85 -876 -107 callsubr
          endchar
        </CharString>
        <CharString name="uni020D">
          218 591 -87 callgsubr
          -55 -732 -106 callgsubr
          endchar
        </CharString>
        <CharString name="uni020E">
          154 293 745 -91 callgsubr
          45 -756 -107 callsubr
          endchar
        </CharString>
        <CharString name="uni020F">
          170 600 -91 callgsubr
          75 -612 -106 callgsubr
          endchar
        </CharString>
        <CharString name="uni0210">
          98 300 736 -87 callgsubr
          -367 -865 rmoveto
          -89 callgsubr
          endchar
        </CharString>
        <CharString name="uni0211">
          -274 132 591 -87 callgsubr
          -200 -720 rmoveto
          -80 callsubr
          endchar
        </CharString>
        <CharString name="uni0212">
          98 252 745 -91 callgsubr
          -237 -745 rmoveto
          -89 callgsubr
          endchar
        </CharString>
        <CharString name="uni0213">
          -274 84 600 -91 callgsubr
          -70 -600 rmoveto
          -80 callsubr
          endchar
        </CharString>
        <CharString name="uni0214">
          98 334 736 -87 callgsubr
          -96 -877 -104 callgsubr
          endchar
        </CharString>
        <CharString name="uni0215">
          232 591 -87 callgsubr
          -124 -732 -104 callsubr
          endchar
        </CharString>
        <CharString name="uni0216">
          98 286 745 -91 callgsubr
          34 -757 -104 callgsubr
          endchar
        </CharString>
        <CharString name="uni0217">
          184 600 -91 callgsubr
          6 -612 -104 callsubr
          endchar
        </CharString>
        <CharString name="uni021A">
          -13 191 hmoveto
          -52 callgsubr
          -141 -820 -79 callsubr
        </CharString>
        <CharString name="uni021B">
          -329 143 -11 -80 callgsubr
          -134 -219 -79 callsubr
        </CharString>
        <CharString name="uni0232">
          43 261 767 -73 callsubr
          -55 -844 rmoveto
          -85 callgsubr
          endchar
        </CharString>
        <CharString name="uni0232.loclGUA">
          43 275 767 -73 callsubr
          -14 -856 -99 callsubr
        </CharString>
        <CharString name="uni0233">
          -107 160 622 -73 callsubr
          -127 -881 -96 callgsubr
          endchar
        </CharString>
        <CharString name="uni0233.loclGUA">
          199 622 -73 callsubr
          -5 -881 -97 callgsubr
        </CharString>
        <CharString name="uni0237">
          -385 -31 -182 -86 callsubr
        </CharString>
        <CharString name="uni0259">
          -68 223 -12 rmoveto
          88 65 20 45 48 hvcurveto
          65 60 37 128 95 vvcurveto
          129 -73 73 -132 -70 -56 -13 -26 -44 vhcurveto
          -52 -32 -34 -51 -12 -71 rrcurveto
          101 hlineto
          78 14 62 32 74 hhcurveto
          79 38 -38 -81 -14 -1 -16 -2 -17 hvcurveto
          -375 hlineto
          -7 -40 rlineto
          -4 -24 -2 -24 -21 vvcurveto
          -122 68 -70 125 vhcurveto
          15 83 rmoveto
          -66 -40 27 69 13 2 15 3 16 hvcurveto
          265 hlineto
          -96 -26 -55 -44 -83 hhcurveto
          endchar
        </CharString>
        <CharString name="uni0272">
          -29 -20 callgsubr
          96 29 64 63 11 hvcurveto
          62 348 -95 callsubr
          -66 -67 -35 -48 -39 vhcurveto
          -29 callgsubr
          -102 -579 rlineto
          -30 -5 -18 -17 -30 hhcurveto
          -47 -24 callsubr
        </CharString>
        <CharString name="uni02BC">
          -399 83 475 rmoveto
          54 hlineto
          70 118 17 93 rlineto
          -102 -3 callgsubr
          39 hlineto
          endchar
        </CharString>
        <CharString name="uni02C9">
          -291 5 622 -73 callsubr
          endchar
        </CharString>
        <CharString name="uni030F">
          -624 -233 591 -87 callgsubr
          endchar
        </CharString>
        <CharString name="uni0311">
          -624 -259 600 -91 callgsubr
          endchar
        </CharString>
        <CharString name="uni031B">
          -624 -491 686 rmoveto
          -21 -117 rlineto
          50 hlineto
          -23 -50 -47 -26 -71 -8 rrcurveto
          -60 vlineto
          132 15 73 68 20 124 9 54 rcurveline
          endchar
        </CharString>
        <CharString name="uni0326">
          -624 -197 -230 -79 callsubr
        </CharString>
        <CharString name="uni0328">
          -624 -169 -44 callsubr
        </CharString>
        <CharString name="uni0394">
          59 -45 hmoveto
          673 hlineto
          -145 -36 callsubr
          -141 hlineto
          -219 -591 rmoveto
          17 30 18 30 15 28 145 266 rcurveline
          23 41 28 54 25 47 rrcurveto
          5 hlineto
          8 -50 9 -52 9 -41 52 -268 rcurveline
          5 -26 7 -30 6 -29 rrcurveto
          endchar
        </CharString>
        <CharString name="uni03A9">
          -68 callgsubr
        </CharString>
        <CharString name="uni03BC">
          -51 callgsubr
        </CharString>
        <CharString name="uni1E0C">
          98 15 hmoveto
          -83 callgsubr
          -59 -268 -86 callgsubr
          endchar
        </CharString>
        <CharString name="uni1E0D">
          -79 callgsubr
          30 87 -71 callsubr
          -72 -248 -86 callgsubr
          endchar
        </CharString>
        <CharString name="uni1E24">
          -46 callsubr
          98 -859 -86 callgsubr
          endchar
        </CharString>
        <CharString name="uni1E25">
          14 hmoveto
          -75 callgsubr
          45 257 -69 callsubr
          19 -896 -86 callgsubr
          endchar
        </CharString>
        <CharString name="uni1E44">
          98 401 763 -86 callgsubr
          -405 -868 rmoveto
          -96 callsubr
          endchar
        </CharString>
        <CharString name="uni1E45">
          298 -45 callgsubr
          -303 -723 rmoveto
          -87 callsubr
        </CharString>
        <CharString name="uni1E5A">
          -52 callsubr
          -198 -542 -86 callgsubr
          endchar
        </CharString>
        <CharString name="uni1E5B">
          -42 callgsubr
          -122 -699 -86 callgsubr
          endchar
        </CharString>
        <CharString name="uni1E62">
          -66 callgsubr
          -88 -161 -86 callgsubr
          endchar
        </CharString>
        <CharString name="uni1E63">
          -61 callsubr
          -88 -161 -86 callgsubr
          endchar
        </CharString>
        <CharString name="uni1E6C">
          -13 191 hmoveto
          -52 callgsubr
          -129 -763 -86 callgsubr
          endchar
        </CharString>
        <CharString name="uni1E6D">
          -329 143 -11 -80 callgsubr
          -122 -162 -86 callgsubr
          endchar
        </CharString>
        <CharString name="uni1E92">
          -13 -37 hmoveto
          -81 callsubr
          206 -228 -86 callgsubr
          endchar
        </CharString>
        <CharString name="uni1E93">
          -124 -26 hmoveto
          -85 callsubr
          140 -224 -86 callgsubr
          endchar
        </CharString>
        <CharString name="uni1E9E">
          174 -1 callsubr
          71 405 rlineto
          135 23 88 64 137 hhcurveto
          109 49 -38 -60 -64 -52 -55 -67 hvcurveto
          -187 hlineto
          -17 -95 rlineto
          190 hlineto
          74 40 -32 -48 -55 -48 -61 -77 hvcurveto
          -214 hlineto
          -17 -96 rlineto
          227 hlineto
          140 102 86 132 66 -37 45 -62 18 hvcurveto
          4 vlineto
          65 22 55 73 77 vvcurveto
          107 -102 68 -164 -191 -140 -96 -190 -33 vhcurveto
          endchar
        </CharString>
        <CharString name="uni1EA0">
          60 -45 hmoveto
          -105 callsubr
          -246 -435 -86 callgsubr
          endchar
        </CharString>
        <CharString name="uni1EA1">
          -57 453 100 -107 callgsubr
          -90 -248 -86 callgsubr
          endchar
        </CharString>
        <CharString name="uni1EA2">
          60 395 736 rmoveto
          -100 callgsubr
          -48 callgsubr
          hvcurveto
          -13 hlineto
          -451 -795 -102 callgsubr
        </CharString>
        <CharString name="uni1EA3">
          -57 338 672 rmoveto
          -48 callgsubr
          vhcurveto
          -13 hlineto
          -11 -59 rlineto
          -100 callgsubr
          hvcurveto
          115 -572 -105 callgsubr
        </CharString>
        <CharString name="uni1EA4">
          60 525 831 -95 callgsubr
          -367 -230 -101 callsubr
          -439 -868 -102 callgsubr
        </CharString>
        <CharString name="uni1EA5">
          -57 631 815 -61 callgsubr
          -183 -22 -82 callgsubr
        </CharString>
        <CharString name="uni1EA6">
          60 570 831 -83 callsubr
          -220 -227 -101 callsubr
          -439 -868 -102 callgsubr
        </CharString>
        <CharString name="uni1EA7">
          -57 539 686 -55 callgsubr
          -134 -22 -82 callgsubr
        </CharString>
        <CharString name="uni1EA8">
          60 542 831 rmoveto
          -100 callgsubr
          -48 callgsubr
          hvcurveto
          -13 hlineto
          -288 -157 -101 callsubr
          -439 -868 -102 callgsubr
        </CharString>
        <CharString name="uni1EA9">
          -57 481 830 rmoveto
          -22 -33 -3 -5 -23 hvcurveto
          -7 -41 -30 callgsubr
          18 11 -3 -11 -48 callgsubr
          hvcurveto
          -13 hlineto
          -11 -59 -30 callgsubr
          5 27 rlineto
          38 3 39 19 45 vvcurveto
          41 -50 9 -39 vhcurveto
          -159 -166 -82 callgsubr
        </CharString>
        <CharString name="uni1EAA">
          60 287 918 rmoveto
          -76 callsubr
          -103 callsubr
          -22 -185 -101 callsubr
          -439 -868 -102 callgsubr
        </CharString>
        <CharString name="uni1EAB">
          -57 275 806 rmoveto
          -103 callsubr
          -76 callsubr
          hhcurveto
          47 -142 -71 callgsubr
          endchar
        </CharString>
        <CharString name="uni1EAC">
          60 265 -78 callsubr
          -439 -868 rmoveto
          -105 callsubr
          -246 -435 -86 callgsubr
          endchar
        </CharString>
        <CharString name="uni1EAD">
          -57 322 664 -71 callgsubr
          -90 -248 -86 callgsubr
          endchar
        </CharString>
        <CharString name="uni1EAE">
          60 383 868 -95 callgsubr
          -65 -255 -93 callgsubr
        </CharString>
        <CharString name="uni1EAF">
          -57 489 852 -61 callgsubr
          -52 -123 -103 callgsubr
          142 -500 -105 callgsubr
        </CharString>
        <CharString name="uni1EB0">
          60 402 868 -83 callsubr
          108 -252 -93 callgsubr
        </CharString>
        <CharString name="uni1EB1">
          -57 378 723 -55 callgsubr
          16 -123 -103 callgsubr
          142 -500 -105 callgsubr
        </CharString>
        <CharString name="uni1EB2">
          60 400 868 rmoveto
          -100 callgsubr
          -48 callgsubr
          hvcurveto
          -13 hlineto
          14 -182 -93 callgsubr
        </CharString>
        <CharString name="uni1EB3">
          -57 343 804 rmoveto
          -48 callgsubr
          vhcurveto
          -13 hlineto
          -11 -59 rlineto
          -100 callgsubr
          hvcurveto
          -32 -204 -103 callgsubr
          142 -500 -105 callgsubr
        </CharString>
        <CharString name="uni1EB4">
          60 276 918 rmoveto
          -76 callsubr
          -103 callsubr
          149 -173 -93 callgsubr
        </CharString>
        <CharString name="uni1EB5">
          -57 264 806 rmoveto
          -103 callsubr
          -76 callsubr
          hhcurveto
          47 -134 rmoveto
          -57 -10 29 22 -28 callgsubr
          -2 -8 0 -8 -8 vvcurveto
          -51 33 -48 106 46 36 13 21 27 vhcurveto
          31 23 18 35 6 31 rrcurveto
          -70 hlineto
          -22 -7 -29 -29 -58 hhcurveto
          142 -572 -105 callgsubr
        </CharString>
        <CharString name="uni1EB6">
          60 425 745 -93 callsubr
          -246 -435 -86 callgsubr
          endchar
        </CharString>
        <CharString name="uni1EB7">
          -57 311 -84 callsubr
          142 -500 -107 callgsubr
          -90 -248 -86 callgsubr
          endchar
        </CharString>
        <CharString name="uni1EB8">
          43 15 hmoveto
          -99 callgsubr
          71 -859 -86 callgsubr
          endchar
        </CharString>
        <CharString name="uni1EB9">
          -68 253 -12 -106 callsubr
          -255 -488 -86 callgsubr
          endchar
        </CharString>
        <CharString name="uni1EBA">
          43 388 736 rmoveto
          -100 callgsubr
          -48 callgsubr
          hvcurveto
          -13 hlineto
          -384 -795 rmoveto
          -99 callgsubr
          endchar
        </CharString>
        <CharString name="uni1EBB">
          -68 287 591 rmoveto
          -100 callgsubr
          -48 callgsubr
          hvcurveto
          -13 hlineto
          -45 -662 -106 callsubr
          endchar
        </CharString>
        <CharString name="uni1EBC">
          43 256 758 rmoveto
          -76 callsubr
          -103 callsubr
          -241 -758 rmoveto
          -99 callgsubr
          endchar
        </CharString>
        <CharString name="uni1EBD">
          -68 155 613 rmoveto
          -76 callsubr
          -103 callsubr
          98 -625 -106 callsubr
          endchar
        </CharString>
        <CharString name="uni1EBE">
          43 518 831 -95 callgsubr
          -367 -230 -101 callsubr
          -372 -868 rmoveto
          -99 callgsubr
          endchar
        </CharString>
        <CharString name="uni1EBF">
          -68 417 686 -95 callgsubr
          -367 -230 -101 callsubr
          -33 -735 -106 callsubr
          endchar
        </CharString>
        <CharString name="uni1EC0">
          43 563 831 -83 callsubr
          -220 -227 -101 callsubr
          -372 -868 rmoveto
          -99 callgsubr
          endchar
        </CharString>
        <CharString name="uni1EC1">
          -68 462 686 -83 callsubr
          -220 -227 -101 callsubr
          -33 -735 -106 callsubr
          endchar
        </CharString>
        <CharString name="uni1EC2">
          43 535 831 rmoveto
          -100 callgsubr
          -48 callgsubr
          hvcurveto
          -13 hlineto
          -288 -157 -101 callsubr
          -372 -868 rmoveto
          -99 callgsubr
          endchar
        </CharString>
        <CharString name="uni1EC3">
          -68 434 686 rmoveto
          -100 callgsubr
          -48 callgsubr
          hvcurveto
          -13 hlineto
          -288 -157 -101 callsubr
          -33 -735 -106 callsubr
          endchar
        </CharString>
        <CharString name="uni1EC4">
          43 280 918 rmoveto
          -76 callsubr
          -103 callsubr
          -22 -185 -101 callsubr
          -372 -868 rmoveto
          -99 callgsubr
          endchar
        </CharString>
        <CharString name="uni1EC5">
          -68 179 773 rmoveto
          -76 callsubr
          -103 callsubr
          -22 -185 -101 callsubr
          -33 -735 -106 callsubr
          endchar
        </CharString>
        <CharString name="uni1EC6">
          43 258 -78 callsubr
          -372 -868 rmoveto
          -99 callgsubr
          71 -859 -86 callgsubr
          endchar
        </CharString>
        <CharString name="uni1EC7">
          -68 157 -75 callsubr
          -33 -735 -106 callsubr
          -255 -488 -86 callgsubr
          endchar
        </CharString>
        <CharString name="uni1EC8">
          -346 180 736 rmoveto
          -100 callgsubr
          -48 callgsubr
          hvcurveto
          -13 hlineto
          -167 -795 -73 callgsubr
        </CharString>
        <CharString name="uni1EC9">
          -346 155 591 rmoveto
          -100 callgsubr
          -48 callgsubr
          hvcurveto
          -13 hlineto
          -138 -650 -65 callgsubr
        </CharString>
        <CharString name="uni1ECA">
          -346 24 hmoveto
          -69 callgsubr
          -146 -859 -86 callgsubr
          endchar
        </CharString>
        <CharString name="uni1ECB">
          -34 callgsubr
          -122 -699 -86 callgsubr
          endchar
        </CharString>
        <CharString name="uni1ECC">
          154 338 -11 -107 callsubr
          -75 -256 -86 callgsubr
          endchar
        </CharString>
        <CharString name="uni1ECD">
          245 -12 -106 callgsubr
          -91 -247 -86 callgsubr
          endchar
        </CharString>
        <CharString name="uni1ECE">
          154 413 736 rmoveto
          -100 callgsubr
          -48 callgsubr
          hvcurveto
          -13 hlineto
          -86 -806 -107 callsubr
          endchar
        </CharString>
        <CharString name="uni1ECF">
          290 591 rmoveto
          -100 callgsubr
          -48 callgsubr
          hvcurveto
          -13 hlineto
          -56 -662 -106 callgsubr
          endchar
        </CharString>
        <CharString name="uni1ED0">
          154 543 831 -95 callgsubr
          -367 -230 -18 callsubr
          -879 -107 callsubr
          endchar
        </CharString>
        <CharString name="uni1ED1">
          420 686 -95 callgsubr
          -367 -230 -101 callsubr
          -44 -735 -106 callgsubr
          endchar
        </CharString>
        <CharString name="uni1ED2">
          154 588 831 -83 callsubr
          -220 -227 -18 callsubr
          -879 -107 callsubr
          endchar
        </CharString>
        <CharString name="uni1ED3">
          465 686 -83 callsubr
          -220 -227 -101 callsubr
          -44 -735 -106 callgsubr
          endchar
        </CharString>
        <CharString name="uni1ED4">
          154 560 831 rmoveto
          -100 callgsubr
          -48 callgsubr
          hvcurveto
          -13 hlineto
          -288 -157 -18 callsubr
          -879 -107 callsubr
          endchar
        </CharString>
        <CharString name="uni1ED5">
          437 686 rmoveto
          -100 callgsubr
          -48 callgsubr
          hvcurveto
          -13 hlineto
          -288 -157 -101 callsubr
          -44 -735 -106 callgsubr
          endchar
        </CharString>
        <CharString name="uni1ED6">
          154 305 918 rmoveto
          -76 callsubr
          -103 callsubr
          -22 -185 -18 callsubr
          -879 -107 callsubr
          endchar
        </CharString>
        <CharString name="uni1ED7">
          182 773 rmoveto
          -76 callsubr
          -103 callsubr
          -22 -185 -101 callsubr
          -44 -735 -106 callgsubr
          endchar
        </CharString>
        <CharString name="uni1ED8">
          154 -23 callgsubr
          -74 -879 -107 callsubr
          -75 -256 -86 callgsubr
          endchar
        </CharString>
        <CharString name="uni1ED9">
          160 -75 callsubr
          -44 -735 -106 callgsubr
          -91 -247 -86 callgsubr
          endchar
        </CharString>
        <CharString name="uni1EDA">
          154 615 865 -61 callgsubr
          239 92 -100 callsubr
          endchar
        </CharString>
        <CharString name="uni1EDB">
          492 720 -61 callgsubr
          165 95 -98 callgsubr
          endchar
        </CharString>
        <CharString name="uni1EDC">
          154 484 736 -55 callgsubr
          327 92 -100 callsubr
          endchar
        </CharString>
        <CharString name="uni1EDD">
          361 591 -55 callgsubr
          253 95 -98 callgsubr
          endchar
        </CharString>
        <CharString name="uni1EDE">
          154 470 817 rmoveto
          -48 callgsubr
          vhcurveto
          -13 hlineto
          -11 -59 rlineto
          -100 callgsubr
          hvcurveto
          258 11 -100 callsubr
          endchar
        </CharString>
        <CharString name="uni1EDF">
          347 672 rmoveto
          -48 callgsubr
          vhcurveto
          -13 hlineto
          -11 -59 rlineto
          -100 callgsubr
          hvcurveto
          184 14 -98 callgsubr
          endchar
        </CharString>
        <CharString name="uni1EE0">
          154 383 791 rmoveto
          -103 callsubr
          -76 callsubr
          hhcurveto
          345 37 -100 callsubr
          endchar
        </CharString>
        <CharString name="uni1EE1">
          260 646 rmoveto
          -103 callsubr
          -76 callsubr
          hhcurveto
          271 40 -98 callgsubr
          endchar
        </CharString>
        <CharString name="uni1EE2">
          154 728 828 -100 callsubr
          -358 -518 -86 callgsubr
          endchar
        </CharString>
        <CharString name="uni1EE3">
          531 686 -98 callgsubr
          -263 -439 -86 callgsubr
          endchar
        </CharString>
        <CharString name="uni1EE4">
          98 320 -12 -104 callgsubr
          -86 -161 -86 callgsubr
          endchar
        </CharString>
        <CharString name="uni1EE5">
          190 -12 -104 callsubr
          -30 -161 -86 callgsubr
          endchar
        </CharString>
        <CharString name="uni1EE6">
          98 406 736 rmoveto
          -100 callgsubr
          -48 callgsubr
          hvcurveto
          -13 hlineto
          -97 -807 -104 callgsubr
          endchar
        </CharString>
        <CharString name="uni1EE7">
          304 591 rmoveto
          -100 callgsubr
          -48 callgsubr
          hvcurveto
          -13 hlineto
          -125 -662 -104 callsubr
          endchar
        </CharString>
        <CharString name="uni1EE8">
          -90 callsubr
          -240 -3 -61 callgsubr
          endchar
        </CharString>
        <CharString name="uni1EE9">
          -89 callsubr
          -180 -3 -61 callgsubr
          endchar
        </CharString>
        <CharString name="uni1EEA">
          -90 callsubr
          -371 -132 -55 callgsubr
          endchar
        </CharString>
        <CharString name="uni1EEB">
          -89 callsubr
          -311 -132 -55 callgsubr
          endchar
        </CharString>
        <CharString name="uni1EEC">
          98 463 817 rmoveto
          -48 callgsubr
          vhcurveto
          -13 hlineto
          -11 -59 rlineto
          -100 callgsubr
          hvcurveto
          263 51 -88 callgsubr
          endchar
        </CharString>
        <CharString name="uni1EED">
          361 672 rmoveto
          -48 callgsubr
          vhcurveto
          -13 hlineto
          -11 -59 rlineto
          -100 callgsubr
          hvcurveto
          203 51 -88 callsubr
          endchar
        </CharString>
        <CharString name="uni1EEE">
          -90 callsubr
          -472 -77 rmoveto
          -103 callsubr
          -76 callsubr
          hhcurveto
          endchar
        </CharString>
        <CharString name="uni1EEF">
          -89 callsubr
          -412 -77 rmoveto
          -103 callsubr
          -76 callsubr
          hhcurveto
          endchar
        </CharString>
        <CharString name="uni1EF0">
          -90 callsubr
          -614 -1041 -86 callgsubr
          endchar
        </CharString>
        <CharString name="uni1EF1">
          -89 callsubr
          -526 -896 -86 callgsubr
          endchar
        </CharString>
        <CharString name="uni1EF4">
          43 219 hmoveto
          -85 callgsubr
          -75 -455 -86 callgsubr
          endchar
        </CharString>
        <CharString name="uni1EF5">
          -107 46 -182 -96 callgsubr
          214 9 -86 callgsubr
          endchar
        </CharString>
        <CharString name="uni1EF6">
          43 377 736 rmoveto
          -100 callgsubr
          -48 callgsubr
          hvcurveto
          -13 hlineto
          -169 -795 rmoveto
          -85 callgsubr
          endchar
        </CharString>
        <CharString name="uni1EF7">
          -107 276 591 rmoveto
          -100 callgsubr
          -48 callgsubr
          hvcurveto
          -13 hlineto
          -241 -832 -96 callgsubr
          endchar
        </CharString>
        <CharString name="uni1EF8">
          43 245 758 rmoveto
          -76 callsubr
          -103 callsubr
          -26 -758 rmoveto
          -85 callgsubr
          endchar
        </CharString>
        <CharString name="uni1EF8.loclGUA">
          43 259 758 rmoveto
          -76 callsubr
          -103 callsubr
          15 -770 -99 callsubr
        </CharString>
        <CharString name="uni1EF9">
          -107 144 613 rmoveto
          -76 callsubr
          -103 callsubr
          -98 -795 -96 callgsubr
          endchar
        </CharString>
        <CharString name="uni1EF9.loclGUA">
          183 613 rmoveto
          -76 callsubr
          -103 callsubr
          24 -795 -97 callgsubr
        </CharString>
        <CharString name="uni2015">
          -17 callgsubr
        </CharString>
        <CharString name="uni203E">
          -291 68 790 rmoveto
          363 hlineto
          13 77 rlineto
          -363 hlineto
          endchar
        </CharString>
        <CharString name="uni207F">
          -250 54 383 rmoveto
          73 hlineto
          36 197 rlineto
          61 11 44 36 46 hhcurveto
          27 19 -11 -34 -8 -1 -9 -2 -10 hvcurveto
          -39 -222 rlineto
          73 hlineto
          40 227 rlineto
          3 16 2 13 13 vvcurveto
          60 -41 24 -58 -42 -39 -19 -36 -28 vhcurveto
          -4 47 -59 hlineto
          endchar
        </CharString>
        <CharString name="uni20B2">
          -34 543 422 rmoveto
          2 13 2 12 12 vvcurveto
          104 -89 52 -109 3 vhcurveto
          19 105 rlineto
          -51 hlineto
          -19 -107 -136 -14 -89 -86 -29 -164 rlinecurve
          -4 -26 -2 -25 -22 vvcurveto
          -124 66 -69 98 -15 vhcurveto
          -21 -120 rlineto
          51 hlineto
          21 117 52 1 54 15 40 39 rlinecurve
          1 -46 rlineto
          82 hlineto
          48 271 rlineto
          -189 -19 callsubr
          79 hlineto
          -1 -6 -7 -41 -50 -44 -76 -1 rlinecurve
          64 362 rlineto
          1 hlineto
          62 40 -26 -54 -7 0 -8 -2 -7 hvcurveto
          -215 -255 rmoveto
          -48 12 -25 34 63 vvcurveto
          17 2 20 2 15 vhcurveto
          4 21 18 101 42 52 67 16 rlinecurve
          endchar
        </CharString>
        <CharString name="uni2105">
          261 221 314 rmoveto
          93 52 65 87 14 hvcurveto
          -83 hlineto
          -54 -9 -24 -30 -43 hhcurveto
          -39 -20 18 48 16 2 18 5 25 hvcurveto
          91 16 28 32 51 hhcurveto
          33 14 -17 -33 -10 -1 -11 -2 -13 hvcurveto
          86 hlineto
          3 15 1 15 13 vvcurveto
          71 -45 38 -89 -111 -51 -68 -122 -21 vhcurveto
          -5 -24 -1 -22 -20 vvcurveto
          -88 47 -40 99 vhcurveto
          -135 -326 rmoveto
          85 hlineto
          626 710 rlineto
          -85 hlineto
          -81 -710 rmoveto
          127 67 93 157 91 -52 43 -101 -126 -68 -93 -158 -90 52 -43 101 hvcurveto
          -1 68 rmoveto
          -43 -21 19 50 15 1 18 4 24 hvcurveto
          91 17 31 31 55 hhcurveto
          43 21 -19 -51 -15 -1 -17 -4 -24 hvcurveto
          -91 -16 -32 -31 -55 hhcurveto
          endchar
        </CharString>
        <CharString name="uni2113">
          -250 171 -12 rmoveto
          36 29 9 17 30 hvcurveto
          15 82 rlineto
          -18 -27 -30 -12 -33 hhcurveto
          -34 -24 24 60 14 1 16 3 18 hvcurveto
          8 49 rlineto
          142 126 97 131 125 vvcurveto
          65 -35 41 -69 -68 -75 -56 -171 -30 vhcurveto
          -44 -251 -17 -14 -15 -11 -13 -12 rlinecurve
          -14 -76 15 12 16 11 15 11 rlinecurve
          -5 -20 -1 -24 -14 vvcurveto
          -77 34 -55 93 vhcurveto
          -9 349 rmoveto
          29 171 rlineto
          118 20 41 39 31 hhcurveto
          24 10 -18 -30 -90 -70 -101 -85 -89 hvcurveto
          endchar
        </CharString>
        <CharString name="uni2116">
          462 872 304 rmoveto
          55 41 14 31 31 hvcurveto
          43 44 24 94 78 vvcurveto
          91 -51 42 -94 -44 -41 -11 -25 -31 vhcurveto
          -50 -40 -29 -74 -111 vvcurveto
          -92 49 -41 97 vhcurveto
          -857 -304 rmoveto
          104 hlineto
          75 425 13 78 rlineto
          5 hlineto
          9 -19 11 -21 9 -19 232 -444 rcurveline
          99 -35 callsubr
          686 -29 callsubr
          -79 -447 -2 -15 -3 -19 -3 -15 rlinecurve
          -4 hlineto
          -9 18 -8 18 -7 13 -235 447 rcurveline
          -102 hlineto
          738 -312 rmoveto
          -39 -19 20 51 15 2 18 4 25 hvcurveto
          90 17 29 35 50 hhcurveto
          39 19 -20 -48 -16 -2 -20 -5 -25 hvcurveto
          -90 -15 -29 -35 -51 hhcurveto
          -181 -183 rmoveto
          299 hlineto
          13 73 rlineto
          -299 hlineto
          endchar
        </CharString>
        <CharString name="uni2126">
          -68 callgsubr
        </CharString>
        <CharString name="uni2153">
          210 56 -12 -53 callgsubr
          -676 -369 -38 callgsubr
          553 -402 -46 callgsubr
          26 20 -10 -27 -38 -35 -19 -33 hvcurveto
          -30 hlineto
          -10 -60 rlineto
          30 hlineto
          30 26 -8 -30 -43 -32 -18 -38 -32 callsubr
          0 -13 -8 vvcurveto
          -54 42 -33 81 vhcurveto
          endchar
        </CharString>
        <CharString name="uni2154">
          210 45 332 rmoveto
          253 hlineto
          11 62 rlineto
          -165 hlineto
          45 0 callsubr
          -73 -75 -66 -41 -94 -4 vhcurveto
          68 hlineto
          4 23 rlineto
          30 6 19 22 42 hhcurveto
          34 9 -18 -18 -83 -201 -41 -23 -121 hvcurveto
          15 -369 -53 callgsubr
          -115 -710 -46 callgsubr
          25 20 -10 -27 -38 -34 -19 -33 hvcurveto
          -30 hlineto
          -10 -60 rlineto
          30 hlineto
          30 26 -8 -30 -43 -33 -18 -37 -32 callsubr
          0 -13 -8 vvcurveto
          -54 42 -33 81 vhcurveto
          endchar
        </CharString>
        <CharString name="uni2206">
          -12 -42 hmoveto
          585 hlineto
          -157 698 rlineto
          -326 -641 rmoveto
          271 439 101 -439 rlineto
          endchar
        </CharString>
        <CharString name="uni2215">
          -16 callsubr
        </CharString>
        <CharString name="uni2219">
          -274 162 191 rmoveto
          43 27 33 38 32 -25 25 -33 -43 -28 -33 -39 -31 25 -25 34 hvcurveto
          endchar
        </CharString>
        <CharString name="uniA78B">
          -437 27 208 rmoveto
          62 hlineto
          115 373 18 105 -74 callgsubr
          endchar
        </CharString>
        <CharString name="uniA78C">
          -455 41 288 rmoveto
          59 hlineto
          96 305 22 130 rlineto
          -102 hlineto
          endchar
        </CharString>
        <CharString name="uogonek">
          352 -20 callgsubr
          22 21 5 9 24 hvcurveto
          10 52 rlineto
          -27 hlineto
          -33 -13 15 17 39 40 20 53 25 hvcurveto
          93 526 rlineto
          -103 -60 callsubr
          1 18 4 19 hvcurveto
          58 331 -69 callsubr
          -59 -338 rlineto
          -5 -26 -3 -25 -20 vvcurveto
          -94 63 -35 92 -59 callsubr
          vhcurveto
          7 -68 hlineto
          -56 -20 -50 -35 -56 vvcurveto
          -57 46 -17 43 vhcurveto
          endchar
        </CharString>
        <CharString name="uring">
          329 563 -70 callgsubr
          -145 -624 -104 callsubr
          endchar
        </CharString>
        <CharString name="utilde">
          172 613 rmoveto
          -76 callsubr
          -103 callsubr
          18 -625 -104 callsubr
          endchar
        </CharString>
        <CharString name="v">
          -107 149 hmoveto
          106 hlineto
          287 -44 callgsubr
          -108 hlineto
          -133 -252 rlineto
          -32 -59 -43 -104 0 vvcurveto
          -5 hlineto
          0 -13 110 -9 53 vhcurveto
          -46 252 -29 callsubr
          endchar
        </CharString>
        <CharString name="w">
          115 108 hmoveto
          -90 callgsubr
        </CharString>
        <CharString name="wacute">
          115 370 591 -95 callgsubr
          -369 -723 rmoveto
          -90 callgsubr
        </CharString>
        <CharString name="wcircumflex">
          115 258 -75 callsubr
          -279 -723 rmoveto
          -90 callgsubr
        </CharString>
        <CharString name="wdieresis">
          115 278 -65 callsubr
          -382 -723 rmoveto
          -90 callgsubr
        </CharString>
        <CharString name="wgrave">
          115 376 591 -83 callsubr
          -183 -720 rmoveto
          -90 callgsubr
        </CharString>
        <CharString name="x">
          -107 -50 hmoveto
          122 hlineto
          163 194 rlineto
          6 hlineto
          97 -194 rlineto
          115 hlineto
          -145 270 229 256 rlineto
          -122 hlineto
          -151 -179 rlineto
          -6 hlineto
          -89 179 rlineto
          -116 hlineto
          138 -255 rlineto
          endchar
        </CharString>
        <CharString name="y">
          -107 46 -182 -96 callgsubr
          endchar
        </CharString>
        <CharString name="y.loclGUA">
          207 -182 -97 callgsubr
        </CharString>
        <CharString name="yacute">
          -107 258 591 -95 callgsubr
          -319 -905 -96 callgsubr
          endchar
        </CharString>
        <CharString name="yacute.loclGUA">
          297 591 -95 callgsubr
          -197 -905 -97 callgsubr
        </CharString>
        <CharString name="ycircumflex">
          -107 146 -75 callsubr
          -229 -905 -96 callgsubr
          endchar
        </CharString>
        <CharString name="ycircumflex.loclGUA">
          185 -75 callsubr
          -107 -905 -97 callgsubr
        </CharString>
        <CharString name="ydieresis">
          -107 166 -65 callsubr
          -332 -905 -96 callgsubr
          endchar
        </CharString>
        <CharString name="ydieresis.loclGUA">
          205 -65 callsubr
          -210 -905 -97 callgsubr
        </CharString>
        <CharString name="yen">
          -68 169 hmoveto
          103 hlineto
          29 161 rlineto
          189 -3 callsubr
          -189 hlineto
          13 70 rlineto
          189 -3 callsubr
          -162 hlineto
          6 7 30 34 30 39 180 235 rcurveline
          -113 hlineto
          -139 -191 -30 -41 -31 -47 -5 -7 rlinecurve
          -4 hlineto
          -2 7 -12 42 -20 47 -76 190 rcurveline
          -114 hlineto
          101 -231 16 -36 22 -40 3 -8 rlinecurve
          -168 hlineto
          -12 -70 rlineto
          196 hlineto
          -13 -70 rlineto
          -196 hlineto
          -12 -70 rlineto
          196 hlineto
          endchar
        </CharString>
        <CharString name="ygrave">
          -107 264 591 -83 callsubr
          -133 -902 -96 callgsubr
          endchar
        </CharString>
        <CharString name="ygrave.loclGUA">
          303 591 -83 callsubr
          -11 -902 -97 callgsubr
        </CharString>
        <CharString name="z">
          -124 -26 hmoveto
          -85 callsubr
          endchar
        </CharString>
        <CharString name="zacute">
          -124 260 591 -95 callgsubr
          -393 -723 rmoveto
          -85 callsubr
          endchar
        </CharString>
        <CharString name="zacute.loclPLK">
          -124 253 591 -63 callsubr
          -326 -723 rmoveto
          -85 callsubr
          endchar
        </CharString>
        <CharString name="zcaron">
          -124 259 588 -94 callsubr
          -203 -723 rmoveto
          -85 callsubr
          endchar
        </CharString>
        <CharString name="zdotaccent">
          -124 261 -45 callgsubr
          -306 -723 rmoveto
          -85 callsubr
          endchar
        </CharString>
        <CharString name="zero">
          -68 235 -12 rmoveto
          143 99 76 279 48 hvcurveto
          10 56 4 49 41 vvcurveto
          160 -78 49 -127 -143 -99 -76 -279 -46 vhcurveto
          -10 -57 -5 -49 -42 vvcurveto
          -159 77 -48 127 vhcurveto
          -5 85 rmoveto
          -70 -25 43 82 37 5 45 14 74 hvcurveto
          167 31 40 92 114 hhcurveto
          70 26 -44 -82 -37 -5 -45 -14 -73 hvcurveto
          -167 -30 -42 -92 -114 hhcurveto
          endchar
        </CharString>
      <CharString index="0">
        rmoveto
        -4 callgsubr
        vhcurveto
        -82 hlineto
        -31 -60 rlineto
        -6 hlineto
        49 -27 -45 23 -72 hhcurveto
        -151 -96 -159 -195 -131 66 -65 101 65 64 31 60 37 hvcurveto
        5 -13 hlineto
        -52 32 -26 47 33 25 9 7 13 vhcurveto
        12 69 rlineto
        -37 hlineto
        -18 -12 8 19 hvcurveto
        -235 -25 rmoveto
        -63 -28 40 75 127 47 135 113 70 30 -41 -76 -97 -43 -163 -126 hvcurveto
        return
      </CharString>
      <CharString index="1">
        rmoveto
        161 91 89 172 26 hvcurveto
        4 29 3 26 25 vvcurveto
        -39 callsubr
        -86 80 -137 hhcurveto
        -161 -90 -89 -172 -27 hvcurveto
        -3 -28 -2 -26 -24 vvcurveto
        -130 1 85 -81 136 hhcurveto
        6 86 rmoveto
        -82 -1 -43 43 -2 75 rrcurveto
        20 1 24 4 25 vhcurveto
        134 19 53 59 100 hhcurveto
        82 43 -42 -76 2 hvcurveto
        -20 -2 -24 -3 -25 vhcurveto
        -19 -134 -53 -59 -100 1 rrcurveto
        return
      </CharString>
      <CharString index="2">
        -107 callgsubr
        endchar
      </CharString>
      <CharString index="3">
        rmoveto
        172 109 83 183 33 hvcurveto
        76 432 -74 callgsubr
        -76 -434 -67 callgsubr
        -20 -75 -58 -110 hhcurveto
        -97 -52 44 86 14 2 18 2 14 hvcurveto
        75 428 rlineto
        -110 hlineto
        -74 -424 rlineto
        -4 -22 -2 -22 -19 vvcurveto
        -139 95 -72 167 vhcurveto
        return
      </CharString>
      <CharString index="4">
        rmoveto
        46 36 13 21 27 hvcurveto
        31 23 18 35 6 31 rrcurveto
        -70 hlineto
        -22 -7 -29 -29 -58 hhcurveto
        -57 -10 29 22 -28 callgsubr
        -2 -8 0 -8 -8 vvcurveto
        -51 33 -48 106 vhcurveto
        return
      </CharString>
      <CharString index="5">
        rmoveto
        -105 callsubr
        endchar
      </CharString>
      <CharString index="6">
        rmoveto
        3 16 1 16 14 vvcurveto
        135 -122 65 -168 -123 -99 -41 -71 -69 vhcurveto
        -77 -79 -40 -117 -136 vvcurveto
        -175 101 -91 185 101 80 30 64 66 vhcurveto
        -82 81 vlineto
        64 362 rlineto
        -342 -19 callsubr
        232 hlineto
        -1 -6 rlineto
        -100 -12 -98 -80 -146 hhcurveto
        -117 -63 52 127 37 5 36 9 43 hvcurveto
        144 32 100 83 153 hhcurveto
        100 70 -40 -84 -8 -1 -10 -2 -10 hvcurveto
        return
      </CharString>
      <CharString index="7">
        60 hlineto
        5 27 rlineto
        38 3 39 19 45 vvcurveto
        41 -50 9 -39 -22 -33 -3 -5 -23 vhcurveto
        -7 -41 -30 callgsubr
        18 11 -3 -11 return
      </CharString>
      <CharString index="8">
        538 -54 callgsubr
        -427 hlineto
        36 208 rlineto
        377 -54 callgsubr
        -377 hlineto
        33 193 rlineto
        421 hlineto
        18 95 rlineto
        -532 hlineto
        return
      </CharString>
      <CharString index="9">
        rmoveto
        -21 -117 rlineto
        50 hlineto
        -19 -40 -34 -25 -49 -12 rrcurveto
        30 -38 -52 16 -62 hhcurveto
        -161 -90 -89 -172 -27 hvcurveto
        -3 -28 -2 -26 -24 vvcurveto
        -130 1 85 -81 136 hhcurveto
        161 91 89 172 26 hvcurveto
        4 29 3 26 25 vvcurveto
        44 -11 39 -19 32 vhcurveto
        82 30 47 62 15 96 9 54 rcurveline
        -230 -420 rmoveto
        -19 -134 -53 -59 -100 1 -82 -1 -43 43 -2 75 rrcurveto
        20 1 24 4 25 vhcurveto
        134 19 53 59 100 hhcurveto
        82 43 -42 -76 2 hvcurveto
        -20 -2 -24 -3 -25 vhcurveto
        return
      </CharString>
      <CharString index="10">
        rmoveto
        145 80 81 164 28 hvcurveto
        82 463 -69 callsubr
        -48 -270 rlineto
        -100 -17 -77 -57 -76 hhcurveto
        -44 -31 16 52 14 2 18 3 19 hvcurveto
        54 308 -69 callsubr
        -55 -315 rlineto
        -4 -26 -4 -25 -20 vvcurveto
        -94 63 -35 92 62 64 32 43 36 vhcurveto
        7 hlineto
        -5 -27 rlineto
        -105 -19 -51 -52 -81 hhcurveto
        -56 -33 21 52 -3 hvcurveto
        -100 -10 hlineto
        -98 77 -49 115 vhcurveto
        endchar
      </CharString>
      <CharString index="11">
        rmoveto
        110 66 96 113 60 hvcurveto
        260 499 rlineto
        -108 -21 callgsubr
        -258 rlineto
        -30 -60 -41 -97 0 vvcurveto
        -5 hlineto
        0 -14 103 -11 54 vhcurveto
        -53 258 -29 callsubr
        111 -526 rlineto
        -78 -37 -48 -26 -54 hhcurveto
        -43 hlineto
        -13 -68 rlineto
        -4 12 25 -6 45 hhcurveto
        return
      </CharString>
      <CharString index="12">
        rmoveto
        94 hlineto
        126 -38 callsubr
        -112 hlineto
        return
      </CharString>
      <CharString index="13">
        rmoveto
        168 136 82 178 31 hvcurveto
        -109 hlineto
        -110 -20 -88 -56 -120 hhcurveto
        -117 -57 54 123 36 4 36 9 43 hvcurveto
        142 31 92 88 147 hhcurveto
        93 59 -42 -88 -11 -2 -14 -2 -13 hvcurveto
        113 hlineto
        3 20 2 19 17 vvcurveto
        138 -110 68 -159 -98 -82 -28 -50 -63 vhcurveto
        -100 -79 -51 -134 -155 vvcurveto
        -180 101 -84 189 vhcurveto
        endchar
      </CharString>
      <CharString index="14">
        -93 callsubr
        endchar
      </CharString>
      <CharString index="15">
        rmoveto
        96 hlineto
        19 -48 callsubr
        176 -102 rmoveto
        97 hlineto
        18 -48 callsubr
        return
      </CharString>
      <CharString index="16">
        rmoveto
        70 hlineto
        21 8 23 30 58 hhcurveto
        59 14 -30 -21 -1 hvcurveto
        70 hlineto
        1 6 1 6 6 vvcurveto
        53 -39 52 -92 -124 -38 -65 -58 -10 vhcurveto
        return
      </CharString>
      <CharString index="17">
        -28 callsubr
        124 295 rlineto
        15 36 27 74 0 vvcurveto
        4 hlineto
        0 2 -74 2 -36 vhcurveto
        20 -295 rlineto
        -28 callsubr
        250 -9 callgsubr
        -121 -274 rlineto
        -18 -40 -35 -91 0 vvcurveto
        -4 hlineto
        0 -4 97 -3 34 vhcurveto
        -19 274 rlineto
        -118 hlineto
        -113 -273 rlineto
        -12 -30 -37 -102 0 vvcurveto
        -5 hlineto
        0 -6 101 -3 31 vhcurveto
        -25 273 -69 callsubr
        endchar
      </CharString>
      <CharString index="18">
        -25 callgsubr
        48 275 rlineto
        238 hlineto
        92 -275 -14 callsubr
        -100 289 rlineto
        92 29 70 80 110 vvcurveto
        108 -68 70 -142 vhcurveto
        -337 hlineto
        55 -317 rmoveto
        38 222 rlineto
        239 hlineto
        67 34 -33 -57 -82 -58 -50 -79 hvcurveto
        return
      </CharString>
      <CharString index="19">
        rmoveto
        -21 -117 rlineto
        50 hlineto
        -14 -30 -22 -21 -30 -14 rrcurveto
        -90 hlineto
        -76 -434 -67 callgsubr
        -20 -75 -58 -110 hhcurveto
        -97 -52 44 86 14 2 18 2 14 hvcurveto
        75 428 rlineto
        -110 hlineto
        -74 -424 rlineto
        -4 -22 -2 -22 -19 vvcurveto
        -139 95 -72 167 172 109 83 183 33 vhcurveto
        66 373 78 31 46 62 15 94 rlinecurve
        9 54 rlineto
        return
      </CharString>
      <CharString index="20">
        rmoveto
        85 hlineto
        -43 -37 callgsubr
        -108 hlineto
        -2 -3 rlineto
        218 -129 rmoveto
        85 hlineto
        -43 -37 callgsubr
        -108 hlineto
        -2 -3 rlineto
        return
      </CharString>
      <CharString index="21">
        rmoveto
        102 hlineto
        19 105 rlineto
        -102 hlineto
        return
      </CharString>
      <CharString index="22">
        -28 callsubr
        50 282 338 404 -6 callgsubr
        hlineto
        -251 -306 rlineto
        -5 hlineto
        -148 306 rlineto
        -117 hlineto
        197 -404 rlineto
        return
      </CharString>
      <CharString index="23">
        rmoveto
        126 80 63 146 26 hvcurveto
        86 489 rlineto
        -110 hlineto
        -87 -492 rlineto
        -79 -14 -44 -33 -67 hhcurveto
        -52 -24 25 49 9 2 23 7 29 hvcurveto
        -110 hlineto
        -8 -36 -2 -25 -18 vvcurveto
        -99 67 -51 124 vhcurveto
        endchar
      </CharString>
      <CharString index="24">
        283 hlineto
        116 96 39 70 68 hvcurveto
        70 73 38 106 127 vvcurveto
        186 -112 85 -192 vhcurveto
        -246 hlineto
        7 -591 rmoveto
        86 496 rlineto
        153 hlineto
        120 70 -54 -130 -28 -3 -25 -5 -32 hvcurveto
        -146 -27 -102 -81 -142 hhcurveto
        return
      </CharString>
      <CharString index="25">
        rmoveto
        44 -76 rlineto
        92 hlineto
        -82 135 rlineto
        -96 hlineto
        -129 -135 rlineto
        102 hlineto
        195 -62 rmoveto
        -31 -60 rlineto
        -6 hlineto
        49 -27 -45 23 -72 hhcurveto
        -151 -96 -159 -195 -131 66 -65 101 65 64 31 60 37 hvcurveto
        5 -13 hlineto
        -52 32 -26 47 33 25 9 7 13 vhcurveto
        12 69 rlineto
        -37 hlineto
        -18 -12 8 19 -4 callgsubr
        hvcurveto
        -312 -451 rmoveto
        -63 -28 40 75 127 47 135 113 70 30 -41 -76 -97 -43 -163 -126 hvcurveto
        endchar
      </CharString>
      <CharString index="26">
        rlineto
        30 5 18 16 31 hhcurveto
        52 hlineto
        13 72 rlineto
        7 -19 -32 6 -29 hhcurveto
        -100 -31 -65 -63 -11 hvcurveto
        -14 -77 rlineto
        -76 hlineto
        -15 -85 rlineto
        76 hlineto
        -87 -492 rlineto
        -30 -5 -18 -16 -31 hhcurveto
        -51 hlineto
        -13 -72 rlineto
        -7 18 33 -6 29 hhcurveto
        return
      </CharString>
      <CharString index="27">
        rmoveto
        22 32 6 8 19 hvcurveto
        12 70 rlineto
        -49 hlineto
        -23 -11 11 21 4 1 11 1 7 hvcurveto
        56 314 rlineto
        89 hlineto
        16 85 rlineto
        -90 hlineto
        34 147 -74 callgsubr
        -26 -147 rlineto
        -64 hlineto
        -15 -85 rlineto
        64 hlineto
        -51 -289 rlineto
        -6 -37 -4 -24 -13 vvcurveto
        -48 25 -41 79 vhcurveto
        return
      </CharString>
      <CharString index="28">
        202 -12 rmoveto
        62 58 29 53 41 hvcurveto
        7 -70 80 -55 callsubr
        -45 -257 rlineto
        -6 hlineto
        46 -29 -47 26 -77 hhcurveto
        -152 -98 -154 -188 -145 69 -63 113 hvcurveto
        return
      </CharString>
      <CharString index="29">
        745 -103 callgsubr
        return
      </CharString>
      <CharString index="30">
        rmoveto
        84 74 27 59 57 hvcurveto
        -58 34 69 -28 100 hhcurveto
        115 96 62 131 21 hvcurveto
        -101 hlineto
        -78 -13 -55 -32 -66 hhcurveto
        -84 -39 41 84 13 1 13 3 15 hvcurveto
        363 hlineto
        8 -19 callgsubr
        -72 62 -135 -75 -57 -23 -38 -42 vhcurveto
        39 -30 -56 22 -85 hhcurveto
        -127 -105 -61 -107 hvcurveto
        99 hlineto
        2 13 rlineto
        34 7 30 38 88 hhcurveto
        75 23 -26 -39 -7 -1 -8 -1 -8 hvcurveto
        -9 -52 rlineto
        -209 -174 -36 -162 -111 106 -18 73 hvcurveto
        310 327 rmoveto
        90 23 52 50 83 hhcurveto
        62 41 -29 -73 -12 0 -13 -4 -13 hvcurveto
        -552 -243 rmoveto
        -55 -30 16 39 91 112 19 148 hvcurveto
        -5 -32 rlineto
        -83 -13 -79 -50 -78 hhcurveto
        endchar
      </CharString>
      <CharString index="31">
        -58 callgsubr
        -66 -67 -35 -48 -39 vhcurveto
        -29 callgsubr
        return
      </CharString>
      <CharString index="32">
        -58 callgsubr
        -61 -61 -30 -42 -40 vhcurveto
        -5 hlineto
        return
      </CharString>
      <CharString index="33">
        -56 callgsubr
        hlineto
        return
      </CharString>
      <CharString index="34">
        rmoveto
        -69 callgsubr
        endchar
      </CharString>
      <CharString index="35">
        766 -92 callgsubr
        return
      </CharString>
      <CharString index="36">
        rmoveto
        44 -76 rlineto
        92 hlineto
        -82 135 rlineto
        -96 hlineto
        -129 -135 rlineto
        102 hlineto
        200 -62 callsubr
        return
      </CharString>
      <CharString index="37">
        rmoveto
        70 43 49 64 46 -34 36 -52 -70 -43 -50 -65 -45 35 -35 51 hvcurveto
        6 49 rmoveto
        -27 -15 16 22 32 21 27 36 26 16 -17 -23 -31 -22 -26 -35 hvcurveto
        return
      </CharString>
      <CharString index="38">
        111 -63 callgsubr
        return
      </CharString>
      <CharString index="39">
        141 -24 hmoveto
        313 hlineto
        15 83 rlineto
        -94 19 -58 46 109 vvcurveto
        23 3 26 7 39 vhcurveto
        186 33 97 73 142 hhcurveto
        111 65 -51 -124 -25 -3 -28 -7 -41 hvcurveto
        -29 -169 -81 -60 -124 -23 -14 -83 rcurveline
        316 hlineto
        17 96 rlineto
        -44 hlineto
        -30 -34 -6 -1 -33 hvcurveto
        110 70 70 118 161 vvcurveto
        171 -107 89 -186 -237 -151 -181 -234 -84 32 -64 56 -46 vhcurveto
        2 -39 -35 5 -22 hhcurveto
        -42 hlineto
        endchar
      </CharString>
      <CharString index="40">
        rlineto
        -112 return
      </CharString>
      <CharString index="41">
        43 295 -12 -98 callsubr
        return
      </CharString>
      <CharString index="42">
        -68 callsubr
        endchar
      </CharString>
      <CharString index="43">
        283 hlineto
        116 96 39 70 68 hvcurveto
        70 73 38 106 127 vvcurveto
        186 -112 85 -192 vhcurveto
        -246 hlineto
        549 -686 rmoveto
        -81 callsubr
        -552 40 rmoveto
        86 496 rlineto
        153 hlineto
        120 70 -54 -130 -28 -3 -25 -5 -32 hvcurveto
        -146 -27 -102 -81 -142 hhcurveto
        endchar
      </CharString>
      <CharString index="44">
        -35 callsubr
        686 -74 callgsubr
        return
      </CharString>
      <CharString index="45">
        103 -60 callgsubr
        return
      </CharString>
      <CharString index="46">
        rmoveto
        -1 3 -77 callsubr
        -107 -132 rlineto
        94 hlineto
        return
      </CharString>
      <CharString index="47">
        hlineto
        93 -9 callgsubr
        return
      </CharString>
      <CharString index="48">
        480 hlineto
        17 96 rlineto
        -369 hlineto
        104 590 -74 callgsubr
        return
      </CharString>
      <CharString index="49">
        103 hlineto
        52 293 -95 callsubr
        return
      </CharString>
      <CharString index="50">
        113 368 -12 rmoveto
        196 159 159 196 196 -159 159 -196 -196 -159 -159 -196 -196 159 -159 196 hvcurveto
        52 vmoveto
        -167 -134 135 168 167 134 136 167 167 134 -136 -167 -168 -134 -135 -167 hvcurveto
        return
      </CharString>
      <CharString index="51">
        rlineto
        -111 return
      </CharString>
      <CharString index="52">
        rmoveto
        -51 callsubr
        -106 -37 callsubr
        85 -129 rlineto
        return
      </CharString>
      <CharString index="53">
        hlineto
        17 95 rlineto
        return
      </CharString>
      <CharString index="54">
        rmoveto
        85 hlineto
        671 710 rlineto
        -85 hlineto
        return
      </CharString>
      <CharString index="55">
        -28 callsubr
        104 590 -9 callsubr
        18 96 rlineto
        -568 hlineto
        -17 -96 -9 callsubr
        return
      </CharString>
      <CharString index="56">
        -48 -12 -173 rmoveto
        103 hlineto
        31 178 rlineto
        -11 22 25 -6 30 hhcurveto
        -59 callsubr
        hvcurveto
        7 -71 80 -60 callgsubr
        -52 -293 rlineto
        -100 -17 -77 -57 -76 hhcurveto
        -44 -31 -33 callgsubr
        3 1 callsubr
        endchar
      </CharString>
      <CharString index="57">
        rmoveto
        103 hlineto
        19 106 -69 callsubr
        return
      </CharString>
      <CharString index="58">
        -2 callsubr
        endchar
      </CharString>
      <CharString index="59">
        -15 -9 -7 -24 return
      </CharString>
      <CharString index="60">
        -52 -61 -26 12 -24 21 -16 vhcurveto
        -50 -21 -20 -39 -42 vvcurveto
        -51 34 -39 return
      </CharString>
      <CharString index="61">
        rmoveto
        74 65 45 73 34 -18 24 -28 15 hvcurveto
        2 vlineto
        39 18 28 26 47 vvcurveto
        57 -45 30 -71 -65 -10 callgsubr
        -3 -8 callgsubr
        return
      </CharString>
      <CharString index="62">
        618 -86 callgsubr
        return
      </CharString>
      <CharString index="63">
        526 rlineto
        return
      </CharString>
      <CharString index="64">
        4 -141 rmoveto
        58 hlineto
        81 151 19 107 -77 callsubr
        -21 -117 rlineto
        45 hlineto
        return
      </CharString>
      <CharString index="65">
        -274 14 hmoveto
        -80 callsubr
        return
      </CharString>
      <CharString index="66">
        -16 -34 -3 -8 -45 rcurveline
        86 hlineto
        -37 -213 rlineto
        -86 hlineto
        return
      </CharString>
      <CharString index="67">
        rmoveto
        79 hlineto
        -86 200 157 200 rlineto
        -88 hlineto
        -177 -200 rlineto
        return
      </CharString>
      <CharString index="68">
        20 -10 -27 -38 -34 -18 -34 hvcurveto
        -29 hlineto
        -11 -60 rlineto
        31 hlineto
        29 26 -9 -30 -43 -32 -18 -37 -33 -19 14 26 3 0 7 4 14 hvcurveto
        return
      </CharString>
      <CharString index="69">
        -13 callsubr
        -38 -19 -56 -41 callgsubr
        return
      </CharString>
      <CharString index="70">
        132 rlineto
        return
      </CharString>
      <CharString index="71">
        -20 callgsubr
        -10 callsubr
        hvcurveto
        return
      </CharString>
      <CharString index="72">
        13 hmoveto
        103 -55 callsubr
        return
      </CharString>
      <CharString index="73">
        -12 callsubr
        -127 -2 callsubr
        return
      </CharString>
      <CharString index="74">
        16 51 15 return
      </CharString>
      <CharString index="75">
        -71 callsubr
        endchar
      </CharString>
      <CharString index="76">
        99 31 65 63 11 hvcurveto
        87 495 rlineto
        return
      </CharString>
      <CharString index="77">
        rlineto
        60 hlineto
        return
      </CharString>
      <CharString index="78">
        -7 71 -80 hlineto
        return
      </CharString>
      <CharString index="79">
        hvcurveto
        -70 hlineto
        return
      </CharString>
      <CharString index="80">
        -18 18 99 -207 -17 49 193 rlineto
        -94 hlineto
        -19 -193 -200 17 -18 -99 206 18 return
      </CharString>
      <CharString index="81">
        rlineto
        -78 hlineto
        52 296 rlineto
        -34 hlineto
        return
      </CharString>
      <CharString index="82">
        111 hlineto
        return
      </CharString>
      <CharString index="83">
        rmoveto
        472 hlineto
        16 89 rlineto
        -472 hlineto
        endchar
      </CharString>
      <CharString index="84">
        283 -78 callsubr
        return
      </CharString>
      <CharString index="85">
        rmoveto
        -2 callgsubr
        20 117 rlineto
        return
      </CharString>
      <CharString index="86">
        hlineto
        -127 return
      </CharString>
      <CharString index="87">
        -182 rmoveto
        return
      </CharString>
      <CharString index="88">
        40 rlineto
        5 27 3 25 23 vvcurveto
        124 return
      </CharString>
      <CharString index="89">
        15 85 rlineto
        return
      </CharString>
      <CharString index="90">
        376 -9 229 rmoveto
        999 hlineto
        14 82 rlineto
        -1000 hlineto
        endchar
      </CharString>
      <CharString index="91">
        22 42 hhcurveto
        33 10 -19 -17 -84 -201 -41 -23 -121 hvcurveto
        endchar
      </CharString>
      <CharString index="92">
        -160 rmoveto
        -34 -17 15 27 37 26 22 42 34 17 -14 -25 -41 return
      </CharString>
      <CharString index="93">
        141 rlineto
        -58 hlineto
        -80 -151 rlineto
        return
      </CharString>
      <CharString index="94">
        75 512 rmoveto
        90 hlineto
        84 170 -1 4 -74 callgsubr
        return
      </CharString>
      <CharString index="95">
        197 rlineto
        -21 hlineto
        -198 -189 -10 -53 144 53 return
      </CharString>
      <CharString index="96">
        hlineto
        69 118 17 93 rlineto
        -102 hlineto
        -17 -102 rlineto
        38 hlineto
        return
      </CharString>
      <CharString index="97">
        -55 -40 -62 -10 vhcurveto
        return
      </CharString>
      <CharString index="98">
        526 -69 callsubr
        return
      </CharString>
      <CharString index="99">
        -17 rlineto
        69 hlineto
        2 11 rlineto
        34 5 27 15 30 hhcurveto
        return
      </CharString>
      <CharString index="100">
        -72 -75 -67 -41 -94 -3 vhcurveto
        67 hlineto
        5 23 rlineto
        30 return
      </CharString>
      <CharString index="101">
        rlineto
        -124 return
      </CharString>
      <CharString index="102">
        -211 rlineto
        -189 hlineto
        -16 -90 rlineto
        189 hlineto
        return
      </CharString>
      <CharString index="103">
        11 56 -58 callsubr
        return
      </CharString>
      <CharString index="104">
        hlineto
        -18 -102 rlineto
        return
      </CharString>
      <CharString index="105">
        112 hlineto
        return
      </CharString>
      <CharString index="106">
        -22 callgsubr
        -111 hlineto
        return
      </CharString>
      <CharString index="107">
        28 16 -13 -24 -35 return
      </CharString>
      <CharString index="108">
        -359 154 414 155 18 102 return
      </CharString>
      <CharString index="109">
        -339 rmoveto
        90 50 55 65 30 -13 26 return
      </CharString>
</ttFont>
